<svg xmlns="http://www.w3.org/2000/svg" xmlns:xlink="http://www.w3.org/1999/xlink" width="500" zoomAndPan="magnify" viewBox="0 0 375 374.999991" height="500" preserveAspectRatio="xMidYMid meet" version="1.0"><defs><g/><clipPath id="aefe06cfbe"><path d="M 183 41.769531 L 192 41.769531 L 192 81 L 183 81 Z M 183 41.769531 " clip-rule="nonzero"/></clipPath><clipPath id="de49c1e2f1"><path d="M 51.058594 150 L 91 150 L 91 159 L 51.058594 159 Z M 51.058594 150 " clip-rule="nonzero"/></clipPath></defs><path fill="#ffffff" d="M 160.859375 275.574219 C 159.875 272.074219 158.621094 268.652344 157.105469 265.347656 C 153.457031 257.375 148.351562 250.164062 143.226562 243.042969 C 139.292969 237.574219 135.320312 232.121094 131.828125 226.355469 C 127.386719 219.027344 123.730469 211.210938 121.085938 203.0625 C 118.933594 196.421875 117.445312 189.539062 117.121094 182.574219 C 116.589844 171.109375 119.261719 159.546875 124.554688 149.363281 C 128.417969 141.941406 133.652344 135.242188 139.925781 129.703125 C 147.855469 122.691406 157.417969 117.574219 167.582031 114.617188 C 177.402344 111.757812 187.820312 110.902344 197.960938 112.28125 C 209.082031 113.792969 219.828125 118.003906 229.035156 124.429688 C 239.527344 131.761719 248.015625 142.023438 252.867188 153.871094 C 257.347656 164.816406 258.683594 176.945312 257.304688 188.6875 C 256.050781 199.390625 252.585938 209.796875 247.492188 219.296875 C 242.863281 227.941406 236.933594 235.808594 231.125 243.707031 C 224.421875 252.820312 217.703125 262.308594 214.898438 273.273438 C 214.109375 276.363281 213.644531 279.523438 213.28125 282.695312 C 212.832031 286.644531 212.542969 290.621094 212.621094 294.59375 C 212.71875 299.640625 213.402344 304.707031 212.792969 309.71875 C 211.910156 317.066406 208.042969 324.136719 201.929688 328.296875 C 196.605469 331.917969 189.828125 333.175781 183.472656 332.152344 C 177.921875 331.257812 172.617188 328.640625 168.75 324.558594 C 165.554688 321.1875 163.382812 316.863281 162.558594 312.292969 C 161.941406 308.875 162.0625 305.371094 162.089844 301.894531 C 162.125 297.609375 162.015625 293.328125 162.089844 289.042969 C 162.164062 285.117188 162.378906 281.128906 161.398438 277.328125 C 161.25 276.734375 161.066406 276.148438 160.859375 275.574219 " fill-opacity="1" fill-rule="nonzero"/><g clip-path="url(#aefe06cfbe)"><path fill="#ffffff" d="M 187.421875 41.769531 C 186.40625 41.78125 185.4375 42.203125 184.730469 42.933594 C 184.023438 43.660156 183.632812 44.640625 183.648438 45.65625 L 183.648438 76.949219 C 183.644531 77.96875 184.046875 78.945312 184.765625 79.664062 C 185.488281 80.386719 186.460938 80.792969 187.480469 80.792969 C 188.5 80.792969 189.472656 80.386719 190.195312 79.664062 C 190.914062 78.945312 191.316406 77.96875 191.3125 76.949219 L 191.3125 45.65625 C 191.328125 44.621094 190.925781 43.625 190.191406 42.890625 C 189.457031 42.15625 188.460938 41.753906 187.421875 41.769531 " fill-opacity="1" fill-rule="nonzero"/></g><path fill="#ffffff" d="M 290.238281 77.949219 C 289.507812 77.238281 288.527344 76.847656 287.511719 76.863281 C 286.496094 76.878906 285.523438 77.296875 284.816406 78.027344 L 262.691406 100.152344 C 261.972656 100.871094 261.566406 101.84375 261.5625 102.863281 C 261.5625 103.882812 261.964844 104.855469 262.6875 105.578125 C 263.40625 106.296875 264.382812 106.699219 265.402344 106.699219 C 266.417969 106.699219 267.394531 106.292969 268.113281 105.574219 L 290.238281 83.445312 C 290.980469 82.726562 291.402344 81.730469 291.402344 80.695312 C 291.402344 79.660156 290.980469 78.667969 290.238281 77.945312 L 290.238281 77.949219 " fill-opacity="1" fill-rule="nonzero"/><path fill="#ffffff" d="M 84.722656 77.949219 C 85.449219 77.238281 86.429688 76.847656 87.445312 76.863281 C 88.464844 76.878906 89.433594 77.296875 90.140625 78.027344 L 112.265625 100.152344 C 112.988281 100.871094 113.390625 101.84375 113.390625 102.863281 C 113.394531 103.882812 112.992188 104.855469 112.269531 105.578125 C 111.550781 106.296875 110.574219 106.699219 109.558594 106.699219 C 108.539062 106.699219 107.566406 106.292969 106.847656 105.574219 L 84.722656 83.445312 C 83.976562 82.726562 83.558594 81.730469 83.558594 80.695312 C 83.558594 79.660156 83.976562 78.667969 84.722656 77.945312 L 84.722656 77.949219 " fill-opacity="1" fill-rule="nonzero"/><path fill="#ffffff" d="M 323.855469 154.453125 C 323.835938 153.4375 323.417969 152.46875 322.691406 151.757812 C 321.960938 151.050781 320.980469 150.660156 319.964844 150.679688 L 288.671875 150.679688 C 287.652344 150.671875 286.671875 151.074219 285.949219 151.792969 C 285.230469 152.511719 284.820312 153.488281 284.820312 154.507812 C 284.820312 155.53125 285.230469 156.507812 285.949219 157.226562 C 286.671875 157.945312 287.652344 158.347656 288.671875 158.34375 L 319.964844 158.34375 C 321 158.359375 321.996094 157.953125 322.730469 157.21875 C 323.460938 156.488281 323.867188 155.488281 323.855469 154.453125 " fill-opacity="1" fill-rule="nonzero"/><g clip-path="url(#de49c1e2f1)"><path fill="#ffffff" d="M 90.171875 154.453125 C 90.152344 153.4375 89.734375 152.46875 89.007812 151.757812 C 88.277344 151.050781 87.296875 150.660156 86.28125 150.679688 L 54.988281 150.679688 C 53.972656 150.671875 52.996094 151.078125 52.273438 151.796875 C 51.550781 152.515625 51.148438 153.492188 51.148438 154.507812 C 51.148438 155.527344 51.550781 156.503906 52.273438 157.222656 C 52.996094 157.945312 53.972656 158.34375 54.988281 158.34375 L 86.28125 158.34375 C 87.316406 158.359375 88.3125 157.953125 89.046875 157.21875 C 89.78125 156.488281 90.183594 155.488281 90.171875 154.453125 " fill-opacity="1" fill-rule="nonzero"/></g><path fill="#ffffff" d="M 55.855469 234.566406 C 56.375 235.441406 57.222656 236.070312 58.207031 236.320312 C 59.191406 236.570312 60.238281 236.417969 61.109375 235.894531 L 88.207031 220.25 C 89.09375 219.742188 89.738281 218.902344 90.003906 217.921875 C 90.269531 216.9375 90.132812 215.886719 89.621094 215.007812 C 89.113281 214.125 88.273438 213.484375 87.289062 213.21875 C 86.304688 212.957031 85.257812 213.097656 84.375 213.609375 L 57.277344 229.253906 C 56.375 229.761719 55.707031 230.609375 55.441406 231.613281 C 55.175781 232.609375 55.324219 233.679688 55.855469 234.566406 " fill-opacity="1" fill-rule="nonzero"/><path fill="#ffffff" d="M 319.105469 234.566406 C 318.585938 235.441406 317.738281 236.070312 316.75 236.320312 C 315.765625 236.570312 314.71875 236.417969 313.847656 235.894531 L 286.75 220.25 C 285.863281 219.742188 285.214844 218.90625 284.949219 217.921875 C 284.683594 216.9375 284.816406 215.886719 285.328125 215.003906 C 285.839844 214.121094 286.679688 213.476562 287.664062 213.214844 C 288.652344 212.953125 289.703125 213.097656 290.578125 213.609375 L 317.679688 229.253906 C 318.585938 229.761719 319.25 230.609375 319.515625 231.613281 C 319.785156 232.609375 319.636719 233.679688 319.105469 234.566406 " fill-opacity="1" fill-rule="nonzero"/><path fill="#ebeae8" d="M 190.4375 111.671875 C 201.339844 116.945312 210.871094 125.09375 217.585938 135.179688 C 224.722656 145.898438 228.691406 158.59375 229.660156 171.4375 C 230.625 184.28125 228.652344 197.257812 224.597656 209.480469 C 218.753906 227.078125 208.371094 243.40625 193.75 254.808594 C 183.6875 262.664062 171.703125 267.953125 159.167969 270.363281 C 159.796875 272.078125 160.363281 273.820312 160.859375 275.574219 C 161.066406 276.148438 161.25 276.738281 161.398438 277.332031 C 162.316406 280.898438 162.183594 284.625 162.105469 288.316406 L 212.78125 288.316406 C 212.902344 286.4375 213.070312 284.566406 213.28125 282.695312 C 213.644531 279.523438 214.109375 276.359375 214.902344 273.269531 C 217.707031 262.308594 224.421875 252.820312 231.125 243.703125 C 236.933594 235.804688 242.867188 227.941406 247.496094 219.296875 C 252.585938 209.796875 256.050781 199.394531 257.304688 188.6875 C 258.683594 176.945312 257.347656 164.816406 252.867188 153.871094 C 248.019531 142.023438 239.53125 131.761719 229.035156 124.433594 C 219.828125 118.003906 209.085938 113.792969 197.960938 112.285156 C 195.464844 111.945312 192.953125 111.742188 190.4375 111.671875 " fill-opacity="1" fill-rule="nonzero"/><path fill="#ffffff" d="M 161.960938 280.695312 C 162.242188 283.453125 162.140625 286.261719 162.09375 289.046875 C 162.019531 293.328125 162.125 297.609375 162.09375 301.894531 C 162.0625 305.371094 161.941406 308.871094 162.558594 312.289062 C 163.382812 316.863281 165.554688 321.1875 168.75 324.558594 C 172.617188 328.640625 177.921875 331.261719 183.46875 332.15625 C 189.828125 333.179688 196.609375 331.917969 201.929688 328.296875 C 208.046875 324.136719 211.910156 317.066406 212.792969 309.71875 C 213.398438 304.707031 212.71875 299.644531 212.621094 294.59375 C 212.542969 290.621094 212.832031 286.644531 213.28125 282.695312 C 213.359375 282.027344 213.46875 281.363281 213.558594 280.695312 L 161.960938 280.695312 " fill-opacity="1" fill-rule="nonzero"/><path fill="#ebeae8" d="M 203.179688 280.695312 C 203.289062 287.183594 202.695312 293.691406 201.382812 300.046875 C 200.433594 304.644531 199.113281 309.195312 197.023438 313.402344 C 194.9375 317.605469 192.058594 321.472656 188.335938 324.335938 C 184.589844 327.210938 180.03125 328.992188 175.335938 329.472656 C 177.878906 330.789062 180.640625 331.699219 183.46875 332.15625 C 189.824219 333.179688 196.605469 331.917969 201.929688 328.296875 C 208.046875 324.136719 211.910156 317.066406 212.792969 309.71875 C 213.398438 304.707031 212.71875 299.644531 212.621094 294.59375 C 212.542969 290.621094 212.832031 286.644531 213.28125 282.695312 C 213.359375 282.027344 213.46875 281.363281 213.554688 280.695312 L 203.179688 280.695312 " fill-opacity="1" fill-rule="nonzero"/><path fill="#c8c8c1" d="M 167.414062 287.601562 C 166.59375 287.601562 165.804688 287.929688 165.222656 288.507812 C 164.640625 289.089844 164.316406 289.875 164.316406 290.699219 C 164.316406 291.519531 164.640625 292.308594 165.222656 292.890625 C 165.804688 293.472656 166.59375 293.796875 167.414062 293.796875 L 207.546875 293.796875 C 208.371094 293.796875 209.15625 293.472656 209.734375 292.890625 C 210.316406 292.308594 210.648438 291.519531 210.648438 290.699219 C 210.648438 289.875 210.316406 289.089844 209.734375 288.507812 C 209.15625 287.929688 208.371094 287.601562 207.546875 287.601562 L 167.414062 287.601562 " fill-opacity="1" fill-rule="nonzero"/><path fill="#c8c8c1" d="M 167.414062 298.878906 C 165.703125 298.878906 164.316406 300.269531 164.316406 301.980469 C 164.316406 303.691406 165.703125 305.078125 167.414062 305.078125 L 207.546875 305.078125 C 208.367188 305.078125 209.15625 304.75 209.734375 304.167969 C 210.316406 303.589844 210.644531 302.800781 210.644531 301.980469 C 210.644531 301.15625 210.316406 300.371094 209.734375 299.789062 C 209.15625 299.207031 208.367188 298.878906 207.546875 298.878906 L 167.414062 298.878906 " fill-opacity="1" fill-rule="nonzero"/><path fill="#c8c8c1" d="M 167.414062 309.832031 C 166.589844 309.824219 165.796875 310.152344 165.210938 310.730469 C 164.628906 311.3125 164.300781 312.101562 164.300781 312.929688 C 164.300781 313.75 164.628906 314.539062 165.210938 315.121094 C 165.796875 315.703125 166.589844 316.027344 167.414062 316.027344 L 207.546875 316.027344 C 208.371094 316.027344 209.164062 315.703125 209.746094 315.121094 C 210.328125 314.539062 210.660156 313.75 210.660156 312.929688 C 210.660156 312.101562 210.328125 311.3125 209.746094 310.730469 C 209.164062 310.152344 208.371094 309.824219 207.546875 309.832031 L 167.414062 309.832031 " fill-opacity="1" fill-rule="nonzero"/><g fill="#ffffff" fill-opacity="1"><g transform="translate(185.964222, 191.251058)"><g><path d="M 0.71875 -6.875 C 0.71875 -7.351562 0.988281 -7.59375 1.53125 -7.59375 C 2.070312 -7.59375 2.34375 -7.351562 2.34375 -6.875 C 2.34375 -6.644531 2.273438 -6.460938 2.140625 -6.328125 C 2.003906 -6.203125 1.800781 -6.140625 1.53125 -6.140625 C 0.988281 -6.140625 0.71875 -6.382812 0.71875 -6.875 Z M 2.265625 0 L 0.78125 0 L 0.78125 -5.453125 L 2.265625 -5.453125 Z M 2.265625 0 "/></g></g></g></svg>