<svg xmlns="http://www.w3.org/2000/svg" xmlns:xlink="http://www.w3.org/1999/xlink" width="1080" zoomAndPan="magnify" viewBox="0 0 810 1012.49997" height="1350" preserveAspectRatio="xMidYMid meet" version="1.0"><path stroke-linecap="butt" transform="matrix(0.74963, 0, 0, 0.74963, 0.199913, 0)" fill="none" stroke-linejoin="miter" d="M 547.472461 385.570547 C 547.472461 385.075511 547.420352 384.580475 547.326556 384.095861 C 547.227549 383.606036 547.086854 383.137054 546.894051 382.678494 C 546.706458 382.219935 546.471967 381.782219 546.195789 381.370557 C 545.919611 380.958895 545.606957 380.573288 545.257826 380.224158 C 544.903485 379.875027 544.523089 379.562373 544.111427 379.286195 C 543.699766 379.010017 543.262049 378.775526 542.80349 378.587933 C 542.34493 378.39513 541.870738 378.254435 541.386123 378.155428 C 540.896298 378.056421 540.406473 378.009523 539.911437 378.009523 L 539.588361 378.009523 C 539.093325 378.009523 538.6035 378.056421 538.113675 378.155428 C 537.62906 378.254435 537.154868 378.39513 536.696308 378.587933 C 536.237749 378.775526 535.800032 379.010017 535.388371 379.286195 C 534.976709 379.562373 534.596313 379.875027 534.241972 380.224158 C 533.892841 380.573288 533.580187 380.958895 533.304009 381.370557 C 533.027831 381.782219 532.79334 382.219935 532.605747 382.678494 C 532.412944 383.137054 532.272249 383.606036 532.173242 384.095861 C 532.079446 384.580475 532.032548 385.075511 532.032548 385.570547 L 532.032548 449.789749 C 532.032548 450.284785 532.079446 450.779821 532.173242 451.264435 C 532.272249 451.754261 532.412944 452.223242 532.605747 452.681802 C 532.79334 453.140362 533.027831 453.578078 533.304009 453.989739 C 533.580187 454.401401 533.892841 454.787008 534.241972 455.136138 C 534.596313 455.485269 534.976709 455.797923 535.388371 456.074101 C 535.800032 456.350279 536.237749 456.58477 536.696308 456.772363 C 537.154868 456.965166 537.62906 457.105861 538.113675 457.204868 C 538.6035 457.303875 539.093325 457.350773 539.588361 457.350773 L 539.911437 457.350773 C 540.406473 457.350773 540.896298 457.303875 541.386123 457.204868 C 541.870738 457.105861 542.34493 456.965166 542.80349 456.772363 C 543.262049 456.58477 543.699766 456.350279 544.111427 456.074101 C 544.523089 455.797923 544.903485 455.485269 545.257826 455.136138 C 545.606957 454.787008 545.919611 454.401401 546.195789 453.989739 C 546.471967 453.578078 546.706458 453.140362 546.894051 452.681802 C 547.086854 452.223242 547.227549 451.754261 547.326556 451.264435 C 547.420352 450.779821 547.472461 450.284785 547.472461 449.789749 L 547.472461 385.570547 " stroke="#ffbfa7" stroke-width="2" stroke-opacity="1" stroke-miterlimit="4"/><path stroke-linecap="butt" transform="matrix(0.74963, 0, 0, 0.74963, 0.199913, 0)" fill="none" stroke-linejoin="miter" d="M 386.518005 507.771497 C 386.877558 507.417156 387.195423 507.026338 387.471601 506.609465 C 387.75299 506.192593 387.987481 505.749666 388.180284 505.285895 C 388.373088 504.822124 388.518993 504.342721 388.618 503.847685 C 388.717008 503.35786 388.763906 502.857613 388.763906 502.352155 C 388.763906 501.851908 388.717008 501.351661 388.618 500.861836 C 388.518993 500.3668 388.373088 499.887397 388.180284 499.423626 C 387.987481 498.959856 387.75299 498.516929 387.471601 498.100056 C 387.195423 497.677973 386.877558 497.292366 386.518005 496.938024 L 341.32382 451.738628 C 340.964268 451.384286 340.578661 451.066421 340.161788 450.785032 C 339.744916 450.508854 339.301989 450.269152 338.838218 450.08156 C 338.374447 449.888756 337.895044 449.742851 337.400008 449.643844 C 336.904972 449.544837 336.409936 449.497938 335.904478 449.497938 C 335.404231 449.497938 334.903984 449.544837 334.408948 449.643844 C 333.919123 449.742851 333.43972 449.888756 332.975949 450.08156 C 332.512178 450.269152 332.069252 450.508854 331.652379 450.785032 C 331.230296 451.066421 330.844689 451.384286 330.490347 451.738628 L 330.318387 451.910588 C 329.964046 452.264929 329.64618 452.650536 329.364791 453.067409 C 329.088613 453.489492 328.854123 453.927208 328.661319 454.39619 C 328.468516 454.85996 328.32261 455.339364 328.223603 455.829189 C 328.124596 456.324225 328.077698 456.824472 328.077698 457.324719 C 328.077698 457.830177 328.124596 458.325213 328.223603 458.820249 C 328.32261 459.315285 328.468516 459.794688 328.661319 460.258459 C 328.854123 460.722229 329.088613 461.165156 329.364791 461.582029 C 329.64618 461.998901 329.964046 462.384508 330.318387 462.744061 L 375.517783 507.938246 C 375.872125 508.297799 376.262943 508.615664 376.679815 508.891842 C 377.096688 509.173231 377.539615 509.407722 378.003385 509.600525 C 378.467156 509.793329 378.946559 509.939234 379.441595 510.038241 C 379.931421 510.137248 380.431668 510.184146 380.931914 510.184146 C 381.437372 510.184146 381.937619 510.137248 382.427444 510.038241 C 382.92248 509.939234 383.401884 509.793329 383.865654 509.600525 C 384.329425 509.407722 384.772352 509.173231 385.189224 508.891842 C 385.606097 508.615664 385.996915 508.297799 386.351256 507.938246 L 386.518005 507.771497 " stroke="#ffbfa7" stroke-width="2" stroke-opacity="1" stroke-miterlimit="4"/><path stroke-linecap="butt" transform="matrix(0.74963, 0, 0, 0.74963, 0.199913, 0)" fill="none" stroke-linejoin="miter" d="M 749.155356 462.702374 C 749.514909 462.342821 749.827563 461.957214 750.108952 461.540342 C 750.38513 461.118258 750.619621 460.675331 750.812424 460.211561 C 751.005228 459.74779 751.151133 459.268387 751.24493 458.773351 C 751.343937 458.283525 751.390835 457.783279 751.390835 457.277821 C 751.390835 456.777574 751.338726 456.277327 751.239719 455.787502 C 751.140711 455.292466 750.994806 454.813062 750.802003 454.349292 C 750.609199 453.885521 750.374708 453.442594 750.093319 453.025722 C 749.81193 452.608849 749.494065 452.223242 749.139724 451.868901 L 748.952131 451.681308 C 748.597789 451.326966 748.212182 451.014312 747.790099 450.732923 C 747.373227 450.456745 746.9303 450.217043 746.466529 450.029451 C 746.002758 449.836647 745.523355 449.690742 745.028319 449.591735 C 744.533283 449.497938 744.038247 449.45104 743.532789 449.45104 C 743.032542 449.45104 742.532295 449.497938 742.04247 449.596946 C 741.547434 449.695953 741.068031 449.847069 740.60426 450.039873 C 740.140489 450.232676 739.697562 450.467167 739.28069 450.748556 C 738.863818 451.029945 738.478211 451.34781 738.123869 451.702152 L 693.002636 496.979711 C 692.648295 497.334053 692.330429 497.724871 692.054251 498.141743 C 691.772863 498.558616 691.538372 499.001543 691.345568 499.465313 C 691.152765 499.934295 691.01207 500.413698 690.913063 500.903523 C 690.814056 501.398559 690.767158 501.898806 690.767158 502.399053 C 690.767158 502.904511 690.819267 503.399547 690.918274 503.894583 C 691.017281 504.389619 691.163187 504.863812 691.35599 505.332793 C 691.548794 505.796564 691.788495 506.23428 692.064673 506.651152 C 692.346062 507.073236 692.663927 507.458843 693.02348 507.813184 L 693.205862 507.995566 C 693.560203 508.349908 693.951021 508.667773 694.367894 508.949162 C 694.784766 509.22534 695.227693 509.459831 695.691464 509.652634 C 696.160445 509.845438 696.639848 509.986132 697.129674 510.085139 C 697.62471 510.184146 698.124957 510.231045 698.625204 510.231045 C 699.130661 510.231045 699.625697 510.178936 700.120734 510.079928 C 700.610559 509.980921 701.089962 509.835016 701.553733 509.642212 C 702.022714 509.449409 702.46043 509.209707 702.877303 508.933529 C 703.299386 508.65214 703.684993 508.334275 704.039335 507.974722 L 749.155356 462.702374 " stroke="#ffbfa7" stroke-width="2" stroke-opacity="1" stroke-miterlimit="4"/><path stroke-linecap="butt" transform="matrix(0.74963, 0, 0, 0.74963, 0.199913, 0)" fill="none" stroke-linejoin="miter" d="M 489.402128 932.069495 C 493.998147 951.860515 511.428626 966.388521 531.032054 969.801664 C 563.892025 975.518027 590.868884 951.349847 591.978807 918.760842 C 592.197665 912.294108 592.025705 905.264596 591.457716 897.672307 C 590.629182 886.468859 592.05176 873.452017 593.182526 863.931692 C 595.62123 843.228764 605.23014 822.338243 617.559143 805.309003 C 623.379725 797.278997 633.353398 783.339824 647.480164 763.501906 C 689.130933 704.978224 699.651752 626.340446 650.007453 569.11949 C 575.361229 483.087437 428.231306 516.009939 400.227898 627.241933 C 387.909317 676.208814 407.507534 727.598766 435.427566 767.628944 C 444.734244 780.984495 454.004445 794.355679 463.23817 807.747707 C 475.129457 824.990594 488.078558 850.821053 488.010816 872.118025 C 487.969129 885.478787 487.97434 898.834339 488.03166 912.179468 C 488.068136 921.652895 488.526696 928.281167 489.402128 932.069495 " stroke="#ffbfa7" stroke-width="2" stroke-opacity="1" stroke-miterlimit="4"/><path stroke-linecap="butt" transform="matrix(0.74963, 0, 0, 0.74963, 0.199913, 0)" fill="none" stroke-linejoin="miter" d="M 341.412405 607.461334 C 341.412405 606.955877 341.360296 606.45563 341.261289 605.960594 C 341.162282 605.465558 341.016377 604.986154 340.823573 604.517173 C 340.63077 604.048191 340.396279 603.605264 340.11489 603.188392 C 339.833501 602.766308 339.515636 602.380701 339.156083 602.021149 C 338.801742 601.666807 338.410924 601.348942 337.994051 601.067553 C 337.571968 600.786164 337.129041 600.546463 336.66527 600.353659 C 336.196289 600.160856 335.716886 600.01495 335.221849 599.915943 C 334.726813 599.816936 334.226566 599.770038 333.721109 599.770038 L 269.741608 599.770038 C 269.23615 599.770038 268.735903 599.816936 268.240867 599.915943 C 267.745831 600.01495 267.261217 600.160856 266.797446 600.353659 C 266.328465 600.546463 265.885538 600.786164 265.468665 601.067553 C 265.046582 601.348942 264.660975 601.666807 264.301423 602.021149 C 263.947081 602.380701 263.624005 602.766308 263.347827 603.188392 C 263.066438 603.605264 262.826736 604.048191 262.633933 604.517173 C 262.441129 604.986154 262.295224 605.465558 262.196217 605.960594 C 262.097209 606.45563 262.050311 606.955877 262.050311 607.461334 L 262.050311 607.800043 C 262.050311 608.305501 262.097209 608.805748 262.196217 609.300784 C 262.295224 609.79582 262.441129 610.275224 262.633933 610.744205 C 262.826736 611.207976 263.066438 611.650903 263.347827 612.072986 C 263.624005 612.489858 263.947081 612.880676 264.301423 613.235018 C 264.660975 613.59457 265.046582 613.912436 265.468665 614.193825 C 265.885538 614.475214 266.328465 614.709704 266.797446 614.902508 C 267.261217 615.095311 267.745831 615.241217 268.240867 615.340224 C 268.735903 615.439231 269.23615 615.49134 269.741608 615.49134 L 333.721109 615.49134 C 334.226566 615.49134 334.726813 615.439231 335.221849 615.340224 C 335.716886 615.241217 336.196289 615.095311 336.66527 614.902508 C 337.129041 614.709704 337.571968 614.475214 337.994051 614.193825 C 338.410924 613.912436 338.801742 613.59457 339.156083 613.235018 C 339.515636 612.880676 339.833501 612.489858 340.11489 612.072986 C 340.396279 611.650903 340.63077 611.207976 340.823573 610.744205 C 341.016377 610.275224 341.162282 609.79582 341.261289 609.300784 C 341.360296 608.805748 341.412405 608.305501 341.412405 607.800043 L 341.412405 607.461334 " stroke="#ffbfa7" stroke-width="2" stroke-opacity="1" stroke-miterlimit="4"/><path stroke-linecap="butt" transform="matrix(0.74963, 0, 0, 0.74963, 0.199913, 0)" fill="none" stroke-linejoin="miter" d="M 817.29837 607.32064 C 817.29837 606.820393 817.251472 606.330568 817.152465 605.840743 C 817.058669 605.356129 816.912763 604.881936 816.725171 604.423376 C 816.532367 603.964817 816.297877 603.527101 816.021699 603.115439 C 815.745521 602.698567 815.432866 602.318171 815.083736 601.96904 C 814.729394 601.614698 814.348998 601.302044 813.937336 601.025866 C 813.520464 600.749688 813.087959 600.515197 812.629399 600.327605 C 812.165628 600.134801 811.696647 599.994107 811.206822 599.895099 C 810.716997 599.796092 810.227171 599.749194 809.732135 599.749194 L 745.830798 599.749194 C 745.330552 599.749194 744.840726 599.796092 744.350901 599.895099 C 743.866287 599.994107 743.392095 600.134801 742.933535 600.327605 C 742.474975 600.515197 742.037259 600.749688 741.625598 601.025866 C 741.208725 601.302044 740.828329 601.614698 740.479198 601.96904 C 740.124857 602.318171 739.812202 602.698567 739.536024 603.115439 C 739.259846 603.527101 739.025356 603.964817 738.837763 604.423376 C 738.64496 604.881936 738.504265 605.356129 738.405258 605.840743 C 738.306251 606.330568 738.259352 606.820393 738.259352 607.32064 L 738.259352 607.940738 C 738.259352 608.435774 738.306251 608.93081 738.405258 609.415424 C 738.504265 609.905249 738.64496 610.379442 738.837763 610.838001 C 739.025356 611.296561 739.259846 611.734277 739.536024 612.145939 C 739.812202 612.5576 740.124857 612.943207 740.479198 613.292338 C 740.828329 613.64668 741.208725 613.959334 741.625598 614.235512 C 742.037259 614.51169 742.474975 614.74097 742.933535 614.933773 C 743.392095 615.121366 743.866287 615.267271 744.350901 615.366278 C 744.840726 615.460075 745.330552 615.512184 745.830798 615.512184 L 809.732135 615.512184 C 810.227171 615.512184 810.716997 615.460075 811.206822 615.366278 C 811.696647 615.267271 812.165628 615.121366 812.629399 614.933773 C 813.087959 614.74097 813.520464 614.51169 813.937336 614.235512 C 814.348998 613.959334 814.729394 613.64668 815.083736 613.292338 C 815.432866 612.943207 815.745521 612.5576 816.021699 612.145939 C 816.297877 611.734277 816.532367 611.296561 816.725171 610.838001 C 816.912763 610.379442 817.058669 609.905249 817.152465 609.415424 C 817.251472 608.93081 817.29837 608.435774 817.29837 607.940738 L 817.29837 607.32064 " stroke="#ffbfa7" stroke-width="2" stroke-opacity="1" stroke-miterlimit="4"/><path stroke-linecap="butt" transform="matrix(0.74963, 0, 0, 0.74963, 0.199913, 0)" fill="none" stroke-linejoin="miter" d="M 340.125312 730.824317 C 339.869977 730.3866 339.578167 729.98015 339.24988 729.604965 C 338.916382 729.229779 338.551618 728.88586 338.150378 728.583627 C 337.75435 728.276184 337.327055 728.015638 336.878917 727.791569 C 336.425569 727.572711 335.956587 727.395541 335.471973 727.265268 C 334.987359 727.134995 334.492323 727.056832 333.992076 727.025566 C 333.491829 726.994301 332.991582 727.009934 332.491335 727.077675 C 331.996299 727.145417 331.506474 727.254846 331.032281 727.421595 C 330.558089 727.583133 330.10474 727.786358 329.667024 728.041693 L 274.368892 760.099185 C 273.931176 760.349308 273.529937 760.641119 273.149541 760.974617 C 272.774355 761.302904 272.430436 761.672878 272.128203 762.068907 C 271.82076 762.470147 271.560214 762.89223 271.336145 763.345579 C 271.117287 763.793717 270.940116 764.262699 270.809844 764.747313 C 270.684782 765.231927 270.601408 765.726963 270.570142 766.22721 C 270.538877 766.732668 270.554509 767.227704 270.622251 767.727951 C 270.689993 768.222987 270.804633 768.712812 270.966171 769.187004 C 271.127709 769.661197 271.336145 770.119757 271.586269 770.552262 L 271.716541 770.776331 C 271.966665 771.214047 272.258476 771.615286 272.591974 771.995683 C 272.925472 772.370868 273.290235 772.714788 273.686264 773.01702 C 274.087504 773.324464 274.514798 773.585009 274.962936 773.809078 C 275.416285 774.027936 275.880055 774.205107 276.36988 774.335379 C 276.854494 774.460441 277.34432 774.543816 277.849777 774.575081 C 278.350024 774.606346 278.850271 774.590714 279.345307 774.522972 C 279.845554 774.45523 280.330169 774.34059 280.804361 774.179052 C 281.283764 774.017514 281.737113 773.809078 282.169618 773.558954 L 337.472961 741.501462 C 337.905466 741.251339 338.311917 740.959528 338.687102 740.62603 C 339.067498 740.297743 339.406207 739.927769 339.71365 739.53174 C 340.015883 739.1305 340.281639 738.708417 340.500497 738.255068 C 340.724566 737.80693 340.896526 737.337949 341.026798 736.853334 C 341.157071 736.363509 341.240446 735.873684 341.271711 735.373437 C 341.302976 734.867979 341.282133 734.372943 341.219602 733.872696 C 341.15186 733.372449 341.03722 732.887835 340.875682 732.413643 C 340.714144 731.93945 340.505708 731.480891 340.255584 731.048385 L 340.125312 730.824317 " stroke="#ffbfa7" stroke-width="2" stroke-opacity="1" stroke-miterlimit="4"/><path stroke-linecap="butt" transform="matrix(0.74963, 0, 0, 0.74963, 0.199913, 0)" fill="none" stroke-linejoin="miter" d="M 807.923951 770.54184 C 808.174075 770.104124 808.382511 769.650775 808.54926 769.171372 C 808.710798 768.697179 808.825438 768.207354 808.89318 767.712318 C 808.95571 767.212071 808.976554 766.711824 808.940078 766.206366 C 808.908812 765.706119 808.830649 765.211083 808.700376 764.721258 C 808.570103 764.236644 808.392933 763.767662 808.174075 763.314314 C 807.950006 762.860965 807.68946 762.438882 807.382017 762.037642 C 807.074573 761.636402 806.735865 761.271639 806.355468 760.938141 C 805.975072 760.604643 805.568622 760.312832 805.136117 760.062709 L 749.86925 728.02606 C 749.431534 727.770726 748.978186 727.56229 748.498782 727.400751 C 748.02459 727.239213 747.534765 727.124573 747.034518 727.056832 C 746.539482 726.98909 746.034024 726.973457 745.533777 727.004723 C 745.03353 727.035988 744.538494 727.119363 744.048669 727.249635 C 743.564055 727.374697 743.095073 727.551868 742.641724 727.775937 C 742.188375 727.994795 741.761081 728.260551 741.365052 728.567994 C 740.963813 728.870227 740.599049 729.214147 740.265551 729.594543 C 739.932053 729.969728 739.640242 730.376179 739.384908 730.813895 L 739.254635 731.037964 C 739.004512 731.47568 738.796076 731.929029 738.634538 732.408432 C 738.473 732.882624 738.35836 733.372449 738.290618 733.867485 C 738.222876 734.367732 738.207243 734.867979 738.238509 735.373437 C 738.269774 735.873684 738.347938 736.36872 738.478211 736.858545 C 738.608483 737.34316 738.785654 737.812141 739.004512 738.26549 C 739.228581 738.718839 739.494337 739.140922 739.79657 739.542162 C 740.104013 739.943402 740.447933 740.308165 740.823118 740.641663 C 741.203514 740.975161 741.609965 741.266972 742.047681 741.522306 L 797.309336 773.558954 C 797.747052 773.809078 798.205612 774.017514 798.679804 774.179052 C 799.153997 774.34059 799.643822 774.45523 800.144069 774.522972 C 800.644316 774.590714 801.144563 774.606346 801.64481 774.575081 C 802.150268 774.543816 802.645304 774.460441 803.129918 774.335379 C 803.614532 774.205107 804.083514 774.027936 804.536862 773.803867 C 804.990211 773.585009 805.417505 773.319253 805.818745 773.011809 C 806.214774 772.709577 806.584748 772.365657 806.913035 771.990472 C 807.246533 771.610076 807.543555 771.203625 807.793678 770.765909 L 807.923951 770.54184 " stroke="#ffbfa7" stroke-width="2" stroke-opacity="1" stroke-miterlimit="4"/><path stroke-linecap="butt" transform="matrix(0.74963, 0, 0, 0.74963, 0.199913, 0)" fill="none" stroke-linejoin="miter" d="M 586.778323 885.061915 C 586.778323 884.660675 586.741847 884.269857 586.663683 883.879039 C 586.58552 883.488221 586.47088 883.107825 586.319763 882.743062 C 586.168647 882.373088 585.981055 882.023957 585.756986 881.69567 C 585.538128 881.362172 585.288004 881.054728 585.006615 880.77334 C 584.725226 880.491951 584.417783 880.241827 584.084285 880.022969 C 583.755998 879.7989 583.406867 879.611308 583.036893 879.460191 C 582.672129 879.309075 582.291733 879.194435 581.900915 879.116272 C 581.510097 879.038108 581.11928 879.001632 580.71804 879.001632 L 498.797391 879.001632 C 498.401362 879.001632 498.010544 879.038108 497.619726 879.116272 C 497.228908 879.194435 496.848512 879.309075 496.478538 879.460191 C 496.113775 879.611308 495.764644 879.7989 495.431146 880.022969 C 495.102859 880.241827 494.795415 880.491951 494.514026 880.77334 C 494.232638 881.054728 493.982514 881.362172 493.763656 881.69567 C 493.539587 882.023957 493.351994 882.373088 493.200878 882.743062 C 493.049762 883.107825 492.935122 883.488221 492.856958 883.879039 C 492.778795 884.269857 492.742319 884.660675 492.742319 885.061915 L 492.742319 885.442311 C 492.742319 885.83834 492.778795 886.234369 492.856958 886.619976 C 492.935122 887.010794 493.049762 887.39119 493.200878 887.761164 C 493.351994 888.125928 493.539587 888.475058 493.763656 888.808556 C 493.982514 889.136843 494.232638 889.444287 494.514026 889.725676 C 494.795415 890.007064 495.102859 890.257188 495.431146 890.476046 C 495.764644 890.700115 496.113775 890.887708 496.478538 891.038824 C 496.848512 891.18994 497.228908 891.30458 497.619726 891.382744 C 498.010544 891.460907 498.401362 891.502594 498.797391 891.502594 L 580.71804 891.502594 C 581.11928 891.502594 581.510097 891.460907 581.900915 891.382744 C 582.291733 891.30458 582.672129 891.18994 583.036893 891.038824 C 583.406867 890.887708 583.755998 890.700115 584.084285 890.481257 C 584.417783 890.257188 584.725226 890.007064 585.006615 889.725676 C 585.288004 889.444287 585.538128 889.136843 585.756986 888.808556 C 585.981055 888.475058 586.168647 888.125928 586.319763 887.761164 C 586.47088 887.39119 586.58552 887.010794 586.663683 886.619976 C 586.741847 886.234369 586.778323 885.83834 586.778323 885.442311 L 586.778323 885.061915 " stroke="#e4e4e0" stroke-width="2" stroke-opacity="1" stroke-miterlimit="4"/><path stroke-linecap="butt" transform="matrix(0.74963, 0, 0, 0.74963, 0.199913, 0)" fill="none" stroke-linejoin="miter" d="M 586.788745 908.130595 C 586.788745 907.729355 586.752269 907.328115 586.674105 906.932086 C 586.595941 906.541268 586.476091 906.155661 586.324974 905.785687 C 586.168647 905.410502 585.981055 905.061371 585.756986 904.722662 C 585.532917 904.389164 585.277582 904.081721 584.996193 903.795121 C 584.709594 903.508521 584.40215 903.258398 584.063441 903.034329 C 583.729943 902.81026 583.375602 902.622667 583.005627 902.46634 C 582.635653 902.310013 582.250046 902.195373 581.854017 902.117209 C 581.463199 902.039046 581.06196 902.002569 580.66072 902.002569 L 498.880765 902.002569 C 498.479526 902.002569 498.078286 902.039046 497.682257 902.117209 C 497.291439 902.195373 496.905832 902.315224 496.535858 902.46634 C 496.160673 902.622667 495.811542 902.81026 495.472833 903.034329 C 495.139335 903.258398 494.831892 903.508521 494.545292 903.795121 C 494.258692 904.081721 494.008569 904.389164 493.7845 904.722662 C 493.560431 905.061371 493.372838 905.410502 493.216511 905.785687 C 493.060184 906.155661 492.945544 906.541268 492.86738 906.932086 C 492.789217 907.328115 492.747529 907.729355 492.747529 908.130595 L 492.747529 908.370296 C 492.747529 908.771536 492.789217 909.172776 492.86738 909.563594 C 492.945544 909.959622 493.060184 910.34523 493.216511 910.715204 C 493.372838 911.085178 493.560431 911.43952 493.7845 911.773018 C 494.008569 912.111727 494.258692 912.41917 494.545292 912.70577 C 494.831892 912.987159 495.139335 913.242493 495.472833 913.466562 C 495.811542 913.690631 496.160673 913.878224 496.535858 914.034551 C 496.905832 914.185667 497.291439 914.305518 497.682257 914.383681 C 498.078286 914.461845 498.479526 914.498321 498.880765 914.498321 L 580.66072 914.498321 C 581.06196 914.498321 581.463199 914.461845 581.854017 914.383681 C 582.250046 914.305518 582.635653 914.185667 583.005627 914.034551 C 583.375602 913.878224 583.729943 913.690631 584.063441 913.466562 C 584.40215 913.242493 584.709594 912.987159 584.996193 912.70577 C 585.277582 912.41917 585.532917 912.111727 585.756986 911.773018 C 585.981055 911.43952 586.168647 911.085178 586.324974 910.715204 C 586.476091 910.34523 586.595941 909.959622 586.674105 909.563594 C 586.752269 909.172776 586.788745 908.771536 586.788745 908.370296 L 586.788745 908.130595 " stroke="#e4e4e0" stroke-width="2" stroke-opacity="1" stroke-miterlimit="4"/><path stroke-linecap="butt" transform="matrix(0.74963, 0, 0, 0.74963, 0.199913, 0)" fill="none" stroke-linejoin="miter" d="M 586.788745 930.308209 C 586.788745 929.91218 586.752269 929.516152 586.674105 929.125334 C 586.595941 928.739727 586.481302 928.359331 586.330185 927.989356 C 586.173858 927.624593 585.991476 927.275462 585.767407 926.941964 C 585.548549 926.613677 585.298426 926.306234 585.017037 926.024845 C 584.735648 925.743456 584.428205 925.493332 584.094707 925.269263 C 583.76642 925.050405 583.417289 924.862813 583.047315 924.711697 C 582.682551 924.56058 582.302155 924.44594 581.911337 924.367777 C 581.520519 924.289613 581.129701 924.247926 580.728462 924.247926 L 498.828656 924.247926 C 498.432628 924.247926 498.036599 924.289613 497.645781 924.367777 C 497.254963 924.44594 496.879778 924.56058 496.509803 924.711697 C 496.14504 924.862813 495.795909 925.050405 495.462411 925.269263 C 495.134124 925.493332 494.826681 925.743456 494.545292 926.024845 C 494.263903 926.306234 494.01378 926.613677 493.789711 926.941964 C 493.570853 927.275462 493.38326 927.624593 493.232144 927.989356 C 493.081027 928.359331 492.966387 928.739727 492.888224 929.125334 C 492.81006 929.516152 492.768373 929.91218 492.768373 930.308209 L 492.768373 930.688605 C 492.768373 931.089845 492.81006 931.480663 492.888224 931.871481 C 492.966387 932.262299 493.081027 932.642695 493.232144 933.007458 C 493.38326 933.377433 493.570853 933.726563 493.789711 934.054851 C 494.01378 934.388349 494.263903 934.695792 494.545292 934.977181 C 494.826681 935.25857 495.134124 935.508693 495.462411 935.727551 C 495.795909 935.95162 496.14504 936.134002 496.509803 936.290329 C 496.879778 936.441445 497.254963 936.556085 497.645781 936.634249 C 498.036599 936.712412 498.432628 936.748889 498.828656 936.748889 L 580.728462 936.748889 C 581.129701 936.748889 581.520519 936.712412 581.911337 936.634249 C 582.302155 936.556085 582.682551 936.441445 583.047315 936.290329 C 583.417289 936.134002 583.76642 935.95162 584.094707 935.727551 C 584.428205 935.508693 584.735648 935.25857 585.017037 934.977181 C 585.298426 934.695792 585.548549 934.388349 585.767407 934.054851 C 585.991476 933.726563 586.173858 933.377433 586.330185 933.007458 C 586.481302 932.642695 586.595941 932.262299 586.674105 931.871481 C 586.752269 931.480663 586.788745 931.089845 586.788745 930.688605 L 586.788745 930.308209 " stroke="#e4e4e0" stroke-width="2" stroke-opacity="1" stroke-miterlimit="4"/><path fill="#fe6118" d="M 728.832031 750.605469 C 728.832031 751.828125 728.800781 753.050781 728.742188 754.273438 C 728.683594 755.492188 728.59375 756.714844 728.472656 757.929688 C 728.351562 759.148438 728.203125 760.363281 728.023438 761.570312 C 727.84375 762.78125 727.636719 763.988281 727.394531 765.1875 C 727.15625 766.386719 726.890625 767.578125 726.59375 768.765625 C 726.296875 769.953125 725.96875 771.132812 725.613281 772.300781 C 725.257812 773.472656 724.875 774.632812 724.464844 775.785156 C 724.050781 776.9375 723.609375 778.078125 723.144531 779.207031 C 722.675781 780.339844 722.179688 781.457031 721.65625 782.5625 C 721.132812 783.667969 720.582031 784.761719 720.007812 785.839844 C 719.429688 786.917969 718.828125 787.980469 718.199219 789.03125 C 717.570312 790.082031 716.914062 791.113281 716.234375 792.128906 C 715.554688 793.148438 714.851562 794.148438 714.125 795.128906 C 713.394531 796.113281 712.640625 797.078125 711.867188 798.023438 C 711.089844 798.96875 710.292969 799.894531 709.46875 800.800781 C 708.648438 801.707031 707.804688 802.59375 706.941406 803.457031 C 706.074219 804.324219 705.1875 805.164062 704.28125 805.988281 C 703.375 806.808594 702.449219 807.609375 701.503906 808.382812 C 700.558594 809.160156 699.59375 809.910156 698.613281 810.640625 C 697.628906 811.371094 696.628906 812.074219 695.613281 812.753906 C 694.597656 813.433594 693.5625 814.085938 692.515625 814.714844 C 691.464844 815.34375 690.402344 815.949219 689.320312 816.523438 C 688.242188 817.101562 687.152344 817.652344 686.042969 818.171875 C 684.9375 818.695312 683.820312 819.191406 682.691406 819.660156 C 681.5625 820.128906 680.417969 820.566406 679.269531 820.980469 C 678.117188 821.394531 676.957031 821.777344 675.785156 822.132812 C 674.613281 822.488281 673.433594 822.8125 672.25 823.109375 C 671.0625 823.40625 669.867188 823.675781 668.667969 823.914062 C 667.46875 824.152344 666.265625 824.359375 665.054688 824.539062 C 663.84375 824.71875 662.628906 824.871094 661.414062 824.988281 C 660.195312 825.109375 658.976562 825.199219 657.753906 825.257812 C 656.53125 825.320312 655.308594 825.351562 654.085938 825.351562 L 155.914062 825.351562 C 154.691406 825.351562 153.46875 825.320312 152.246094 825.261719 C 151.023438 825.199219 149.804688 825.109375 148.585938 824.988281 C 147.371094 824.871094 146.15625 824.71875 144.945312 824.539062 C 143.734375 824.359375 142.53125 824.152344 141.332031 823.914062 C 140.132812 823.675781 138.9375 823.40625 137.75 823.109375 C 136.566406 822.8125 135.386719 822.488281 134.214844 822.132812 C 133.042969 821.777344 131.882812 821.394531 130.730469 820.980469 C 129.582031 820.566406 128.4375 820.128906 127.308594 819.660156 C 126.179688 819.191406 125.0625 818.695312 123.957031 818.171875 C 122.847656 817.648438 121.757812 817.101562 120.679688 816.523438 C 119.597656 815.949219 118.535156 815.34375 117.484375 814.714844 C 116.4375 814.085938 115.402344 813.433594 114.386719 812.753906 C 113.371094 812.074219 112.371094 811.367188 111.386719 810.640625 C 110.40625 809.910156 109.441406 809.160156 108.496094 808.382812 C 107.550781 807.605469 106.625 806.808594 105.71875 805.988281 C 104.8125 805.164062 103.925781 804.324219 103.058594 803.457031 C 102.195312 802.59375 101.351562 801.707031 100.53125 800.800781 C 99.707031 799.894531 98.910156 798.96875 98.132812 798.023438 C 97.359375 797.078125 96.605469 796.113281 95.875 795.128906 C 95.148438 794.148438 94.445312 793.148438 93.765625 792.128906 C 93.085938 791.113281 92.429688 790.082031 91.800781 789.03125 C 91.171875 787.980469 90.570312 786.917969 89.992188 785.839844 C 89.417969 784.761719 88.867188 783.667969 88.34375 782.5625 C 87.820312 781.457031 87.324219 780.339844 86.855469 779.207031 C 86.390625 778.078125 85.949219 776.9375 85.535156 775.785156 C 85.125 774.632812 84.742188 773.472656 84.386719 772.300781 C 84.03125 771.132812 83.703125 769.953125 83.40625 768.765625 C 83.109375 767.578125 82.84375 766.386719 82.605469 765.1875 C 82.363281 763.988281 82.15625 762.78125 81.976562 761.570312 C 81.796875 760.363281 81.648438 759.148438 81.527344 757.929688 C 81.40625 756.714844 81.316406 755.492188 81.257812 754.273438 C 81.199219 753.050781 81.167969 751.828125 81.167969 750.605469 L 81.167969 261.394531 C 81.167969 260.171875 81.199219 258.949219 81.257812 257.726562 C 81.316406 256.507812 81.40625 255.285156 81.527344 254.070312 C 81.648438 252.851562 81.796875 251.636719 81.976562 250.429688 C 82.15625 249.21875 82.363281 248.011719 82.605469 246.8125 C 82.84375 245.613281 83.109375 244.421875 83.40625 243.234375 C 83.703125 242.046875 84.03125 240.867188 84.386719 239.699219 C 84.742188 238.527344 85.125 237.367188 85.535156 236.214844 C 85.949219 235.0625 86.390625 233.921875 86.855469 232.792969 C 87.324219 231.660156 87.820312 230.542969 88.34375 229.4375 C 88.867188 228.332031 89.417969 227.238281 89.992188 226.160156 C 90.570312 225.082031 91.171875 224.019531 91.800781 222.96875 C 92.429688 221.917969 93.085938 220.886719 93.765625 219.871094 C 94.445312 218.851562 95.148438 217.851562 95.875 216.871094 C 96.605469 215.886719 97.359375 214.921875 98.132812 213.976562 C 98.910156 213.03125 99.707031 212.105469 100.53125 211.199219 C 101.351562 210.292969 102.195312 209.40625 103.058594 208.542969 C 103.925781 207.679688 104.8125 206.835938 105.71875 206.011719 C 106.625 205.191406 107.550781 204.394531 108.496094 203.617188 C 109.441406 202.839844 110.40625 202.089844 111.386719 201.359375 C 112.371094 200.632812 113.371094 199.925781 114.386719 199.246094 C 115.402344 198.566406 116.4375 197.914062 117.484375 197.285156 C 118.535156 196.65625 119.597656 196.054688 120.679688 195.476562 C 121.757812 194.898438 122.847656 194.351562 123.957031 193.828125 C 125.0625 193.304688 126.179688 192.808594 127.308594 192.339844 C 128.4375 191.871094 129.582031 191.433594 130.730469 191.019531 C 131.882812 190.609375 133.042969 190.222656 134.214844 189.867188 C 135.386719 189.515625 136.566406 189.1875 137.75 188.890625 C 138.9375 188.59375 140.132812 188.324219 141.332031 188.085938 C 142.53125 187.847656 143.734375 187.640625 144.945312 187.460938 C 146.15625 187.28125 147.371094 187.128906 148.585938 187.011719 C 149.804688 186.890625 151.023438 186.800781 152.246094 186.742188 C 153.46875 186.679688 154.691406 186.648438 155.914062 186.648438 L 654.085938 186.648438 C 655.308594 186.648438 656.53125 186.679688 657.753906 186.742188 C 658.976562 186.800781 660.195312 186.890625 661.414062 187.011719 C 662.628906 187.128906 663.84375 187.28125 665.054688 187.460938 C 666.265625 187.640625 667.46875 187.847656 668.667969 188.085938 C 669.867188 188.324219 671.0625 188.59375 672.25 188.890625 C 673.433594 189.1875 674.613281 189.515625 675.785156 189.867188 C 676.957031 190.222656 678.117188 190.609375 679.269531 191.019531 C 680.417969 191.433594 681.5625 191.871094 682.691406 192.339844 C 683.820312 192.808594 684.9375 193.304688 686.042969 193.828125 C 687.152344 194.351562 688.242188 194.898438 689.320312 195.476562 C 690.402344 196.054688 691.464844 196.65625 692.515625 197.285156 C 693.5625 197.914062 694.597656 198.566406 695.613281 199.246094 C 696.628906 199.925781 697.628906 200.632812 698.613281 201.359375 C 699.59375 202.089844 700.558594 202.839844 701.503906 203.617188 C 702.449219 204.394531 703.375 205.191406 704.28125 206.011719 C 705.1875 206.835938 706.074219 207.679688 706.941406 208.542969 C 707.804688 209.40625 708.648438 210.292969 709.46875 211.199219 C 710.292969 212.105469 711.089844 213.03125 711.867188 213.976562 C 712.640625 214.921875 713.394531 215.886719 714.125 216.871094 C 714.851562 217.851562 715.554688 218.851562 716.234375 219.871094 C 716.914062 220.886719 717.570312 221.917969 718.199219 222.96875 C 718.828125 224.019531 719.429688 225.082031 720.007812 226.160156 C 720.582031 227.238281 721.132812 228.332031 721.65625 229.4375 C 722.179688 230.542969 722.675781 231.660156 723.144531 232.792969 C 723.609375 233.921875 724.050781 235.0625 724.464844 236.214844 C 724.875 237.367188 725.257812 238.527344 725.613281 239.699219 C 725.96875 240.867188 726.296875 242.046875 726.59375 243.234375 C 726.890625 244.421875 727.15625 245.613281 727.394531 246.8125 C 727.636719 248.011719 727.84375 249.21875 728.023438 250.429688 C 728.203125 251.636719 728.351562 252.851562 728.472656 254.070312 C 728.59375 255.285156 728.683594 256.507812 728.742188 257.726562 C 728.800781 258.949219 728.832031 260.171875 728.832031 261.394531 Z M 410.601562 289.035156 C 410.601562 288.664062 410.5625 288.292969 410.492188 287.929688 C 410.417969 287.5625 410.3125 287.210938 410.167969 286.867188 C 410.027344 286.523438 409.851562 286.195312 409.644531 285.886719 C 409.4375 285.578125 409.203125 285.289062 408.941406 285.027344 C 408.675781 284.765625 408.390625 284.53125 408.082031 284.324219 C 407.773438 284.117188 407.445312 283.941406 407.101562 283.800781 C 406.757812 283.65625 406.402344 283.550781 406.039062 283.476562 C 405.671875 283.402344 405.304688 283.367188 404.933594 283.367188 L 404.691406 283.367188 C 404.320312 283.367188 403.953125 283.402344 403.585938 283.476562 C 403.222656 283.550781 402.867188 283.65625 402.523438 283.800781 C 402.179688 283.941406 401.851562 284.117188 401.542969 284.324219 C 401.234375 284.53125 400.949219 284.765625 400.683594 285.027344 C 400.421875 285.289062 400.1875 285.578125 399.980469 285.886719 C 399.773438 286.195312 399.597656 286.523438 399.457031 286.867188 C 399.3125 287.210938 399.207031 287.5625 399.132812 287.929688 C 399.0625 288.292969 399.027344 288.664062 399.027344 289.035156 L 399.027344 337.175781 C 399.027344 337.546875 399.0625 337.917969 399.132812 338.28125 C 399.207031 338.648438 399.3125 339 399.457031 339.34375 C 399.597656 339.6875 399.773438 340.015625 399.980469 340.324219 C 400.1875 340.632812 400.421875 340.921875 400.683594 341.183594 C 400.949219 341.445312 401.234375 341.679688 401.542969 341.886719 C 401.851562 342.09375 402.179688 342.269531 402.523438 342.410156 C 402.867188 342.554688 403.222656 342.660156 403.585938 342.734375 C 403.953125 342.808594 404.320312 342.84375 404.691406 342.84375 L 404.933594 342.84375 C 405.304688 342.84375 405.671875 342.808594 406.039062 342.734375 C 406.402344 342.660156 406.757812 342.554688 407.101562 342.410156 C 407.445312 342.269531 407.773438 342.09375 408.082031 341.886719 C 408.390625 341.679688 408.675781 341.445312 408.941406 341.183594 C 409.203125 340.921875 409.4375 340.632812 409.644531 340.324219 C 409.851562 340.015625 410.027344 339.6875 410.167969 339.34375 C 410.3125 339 410.417969 338.648438 410.492188 338.28125 C 410.5625 337.917969 410.601562 337.546875 410.601562 337.175781 Z M 289.945312 380.640625 C 290.214844 380.375 290.453125 380.082031 290.660156 379.769531 C 290.871094 379.457031 291.046875 379.125 291.191406 378.777344 C 291.335938 378.429688 291.445312 378.070312 291.519531 377.699219 C 291.59375 377.332031 291.628906 376.957031 291.628906 376.578125 C 291.628906 376.203125 291.59375 375.828125 291.519531 375.460938 C 291.445312 375.089844 291.335938 374.730469 291.191406 374.382812 C 291.046875 374.035156 290.871094 373.703125 290.660156 373.390625 C 290.453125 373.074219 290.214844 372.785156 289.945312 372.519531 L 256.066406 338.636719 C 255.796875 338.371094 255.507812 338.132812 255.195312 337.921875 C 254.882812 337.714844 254.550781 337.535156 254.203125 337.394531 C 253.855469 337.25 253.496094 337.140625 253.125 337.066406 C 252.753906 336.992188 252.382812 336.957031 252.003906 336.957031 C 251.628906 336.957031 251.253906 336.992188 250.882812 337.066406 C 250.515625 337.140625 250.15625 337.25 249.808594 337.394531 C 249.460938 337.535156 249.128906 337.714844 248.816406 337.921875 C 248.5 338.132812 248.210938 338.371094 247.945312 338.636719 L 247.816406 338.765625 C 247.550781 339.03125 247.3125 339.320312 247.101562 339.632812 C 246.894531 339.949219 246.71875 340.277344 246.574219 340.628906 C 246.429688 340.976562 246.320312 341.335938 246.246094 341.703125 C 246.171875 342.074219 246.136719 342.449219 246.136719 342.824219 C 246.136719 343.203125 246.171875 343.574219 246.246094 343.945312 C 246.320312 344.316406 246.429688 344.675781 246.574219 345.023438 C 246.71875 345.371094 246.894531 345.703125 247.101562 346.015625 C 247.3125 346.328125 247.550781 346.617188 247.816406 346.886719 L 281.699219 380.765625 C 281.964844 381.035156 282.257812 381.273438 282.570312 381.480469 C 282.882812 381.691406 283.214844 381.867188 283.5625 382.011719 C 283.910156 382.15625 284.269531 382.265625 284.640625 382.339844 C 285.007812 382.414062 285.382812 382.449219 285.757812 382.449219 C 286.136719 382.449219 286.511719 382.414062 286.878906 382.339844 C 287.25 382.265625 287.609375 382.15625 287.957031 382.011719 C 288.304688 381.867188 288.636719 381.691406 288.949219 381.480469 C 289.261719 381.273438 289.554688 381.035156 289.820312 380.765625 Z M 561.789062 346.855469 C 562.058594 346.585938 562.292969 346.296875 562.503906 345.984375 C 562.710938 345.667969 562.886719 345.335938 563.03125 344.988281 C 563.175781 344.640625 563.285156 344.28125 563.355469 343.910156 C 563.429688 343.542969 563.464844 343.167969 563.464844 342.789062 C 563.464844 342.414062 563.425781 342.039062 563.351562 341.671875 C 563.277344 341.300781 563.167969 340.941406 563.023438 340.59375 C 562.878906 340.246094 562.703125 339.914062 562.492188 339.601562 C 562.28125 339.289062 562.042969 339 561.777344 338.734375 L 561.636719 338.59375 C 561.371094 338.328125 561.082031 338.09375 560.765625 337.882812 C 560.453125 337.675781 560.121094 337.496094 559.773438 337.355469 C 559.425781 337.210938 559.066406 337.101562 558.695312 337.027344 C 558.324219 336.957031 557.953125 336.921875 557.574219 336.921875 C 557.199219 336.921875 556.824219 336.957031 556.457031 337.03125 C 556.085938 337.105469 555.726562 337.21875 555.378906 337.363281 C 555.03125 337.507812 554.699219 337.683594 554.386719 337.894531 C 554.074219 338.105469 553.785156 338.34375 553.519531 338.609375 L 519.695312 372.550781 C 519.429688 372.816406 519.191406 373.109375 518.984375 373.421875 C 518.773438 373.734375 518.597656 374.066406 518.453125 374.414062 C 518.308594 374.765625 518.203125 375.125 518.128906 375.492188 C 518.054688 375.863281 518.019531 376.238281 518.019531 376.613281 C 518.019531 376.992188 518.058594 377.363281 518.132812 377.734375 C 518.207031 378.105469 518.316406 378.460938 518.460938 378.8125 C 518.605469 379.160156 518.785156 379.488281 518.992188 379.800781 C 519.203125 380.117188 519.441406 380.40625 519.710938 380.671875 L 519.847656 380.808594 C 520.113281 381.074219 520.40625 381.3125 520.71875 381.523438 C 521.03125 381.730469 521.363281 381.90625 521.710938 382.050781 C 522.0625 382.195312 522.421875 382.300781 522.789062 382.375 C 523.160156 382.449219 523.535156 382.484375 523.910156 382.484375 C 524.289062 382.484375 524.660156 382.445312 525.03125 382.371094 C 525.398438 382.296875 525.757812 382.1875 526.105469 382.042969 C 526.457031 381.898438 526.785156 381.71875 527.097656 381.511719 C 527.414062 381.300781 527.703125 381.0625 527.96875 380.792969 Z M 367.070312 698.707031 C 370.515625 713.542969 383.582031 724.433594 398.277344 726.992188 C 422.910156 731.277344 443.132812 713.160156 443.964844 688.730469 C 444.128906 683.882812 444 678.613281 443.574219 672.921875 C 442.953125 664.523438 444.019531 654.765625 444.867188 647.628906 C 446.695312 632.109375 453.898438 616.449219 463.140625 603.683594 C 467.503906 597.664062 474.980469 587.214844 485.570312 572.34375 C 516.792969 528.472656 524.679688 469.523438 487.464844 426.628906 C 431.507812 362.136719 321.214844 386.816406 300.222656 470.199219 C 290.988281 506.90625 305.679688 545.429688 326.609375 575.4375 C 333.585938 585.449219 340.535156 595.472656 347.457031 605.511719 C 356.371094 618.4375 366.078125 637.800781 366.027344 653.765625 C 365.996094 663.78125 366 673.792969 366.042969 683.796875 C 366.070312 690.898438 366.414062 695.867188 367.070312 698.707031 Z M 256.132812 455.371094 C 256.132812 454.992188 256.09375 454.617188 256.019531 454.246094 C 255.945312 453.875 255.835938 453.515625 255.691406 453.164062 C 255.546875 452.8125 255.371094 452.480469 255.160156 452.167969 C 254.949219 451.851562 254.710938 451.5625 254.441406 451.292969 C 254.175781 451.027344 253.882812 450.789062 253.570312 450.578125 C 253.253906 450.367188 252.921875 450.1875 252.574219 450.042969 C 252.222656 449.898438 251.863281 449.789062 251.492188 449.714844 C 251.121094 449.640625 250.746094 449.605469 250.367188 449.605469 L 202.40625 449.605469 C 202.027344 449.605469 201.652344 449.640625 201.28125 449.714844 C 200.910156 449.789062 200.546875 449.898438 200.199219 450.042969 C 199.847656 450.1875 199.515625 450.367188 199.203125 450.578125 C 198.886719 450.789062 198.597656 451.027344 198.328125 451.292969 C 198.0625 451.5625 197.820312 451.851562 197.613281 452.167969 C 197.402344 452.480469 197.222656 452.8125 197.078125 453.164062 C 196.933594 453.515625 196.824219 453.875 196.75 454.246094 C 196.675781 454.617188 196.640625 454.992188 196.640625 455.371094 L 196.640625 455.625 C 196.640625 456.003906 196.675781 456.378906 196.75 456.75 C 196.824219 457.121094 196.933594 457.480469 197.078125 457.832031 C 197.222656 458.179688 197.402344 458.511719 197.613281 458.828125 C 197.820312 459.140625 198.0625 459.433594 198.328125 459.699219 C 198.597656 459.96875 198.886719 460.207031 199.203125 460.417969 C 199.515625 460.628906 199.847656 460.804688 200.199219 460.949219 C 200.546875 461.09375 200.910156 461.203125 201.28125 461.277344 C 201.652344 461.351562 202.027344 461.390625 202.40625 461.390625 L 250.367188 461.390625 C 250.746094 461.390625 251.121094 461.351562 251.492188 461.277344 C 251.863281 461.203125 252.222656 461.09375 252.574219 460.949219 C 252.921875 460.804688 253.253906 460.628906 253.570312 460.417969 C 253.882812 460.207031 254.175781 459.96875 254.441406 459.699219 C 254.710938 459.433594 254.949219 459.140625 255.160156 458.828125 C 255.371094 458.511719 255.546875 458.179688 255.691406 457.832031 C 255.835938 457.480469 255.945312 457.121094 256.019531 456.75 C 256.09375 456.378906 256.132812 456.003906 256.132812 455.625 Z M 612.871094 455.265625 C 612.871094 454.890625 612.835938 454.523438 612.761719 454.15625 C 612.691406 453.792969 612.582031 453.4375 612.441406 453.09375 C 612.296875 452.75 612.121094 452.421875 611.914062 452.113281 C 611.707031 451.800781 611.472656 451.515625 611.210938 451.253906 C 610.945312 450.988281 610.660156 450.753906 610.351562 450.546875 C 610.039062 450.339844 609.714844 450.164062 609.371094 450.023438 C 609.023438 449.878906 608.671875 449.773438 608.304688 449.699219 C 607.9375 449.625 607.570312 449.589844 607.199219 449.589844 L 559.296875 449.589844 C 558.921875 449.589844 558.554688 449.625 558.1875 449.699219 C 557.824219 449.773438 557.46875 449.878906 557.125 450.023438 C 556.78125 450.164062 556.453125 450.339844 556.144531 450.546875 C 555.832031 450.753906 555.546875 450.988281 555.285156 451.253906 C 555.019531 451.515625 554.785156 451.800781 554.578125 452.113281 C 554.371094 452.421875 554.195312 452.75 554.054688 453.09375 C 553.910156 453.4375 553.804688 453.792969 553.730469 454.15625 C 553.65625 454.523438 553.621094 454.890625 553.621094 455.265625 L 553.621094 455.730469 C 553.621094 456.101562 553.65625 456.472656 553.730469 456.835938 C 553.804688 457.203125 553.910156 457.558594 554.054688 457.902344 C 554.195312 458.246094 554.371094 458.574219 554.578125 458.882812 C 554.785156 459.191406 555.019531 459.480469 555.285156 459.742188 C 555.546875 460.007812 555.832031 460.242188 556.144531 460.449219 C 556.453125 460.65625 556.78125 460.828125 557.125 460.972656 C 557.46875 461.113281 557.824219 461.222656 558.1875 461.296875 C 558.554688 461.367188 558.921875 461.40625 559.296875 461.40625 L 607.199219 461.40625 C 607.570312 461.40625 607.9375 461.367188 608.304688 461.296875 C 608.671875 461.222656 609.023438 461.113281 609.371094 460.972656 C 609.714844 460.828125 610.039062 460.65625 610.351562 460.449219 C 610.660156 460.242188 610.945312 460.007812 611.210938 459.742188 C 611.472656 459.480469 611.707031 459.191406 611.914062 458.882812 C 612.121094 458.574219 612.296875 458.246094 612.441406 457.902344 C 612.582031 457.558594 612.691406 457.203125 612.761719 456.835938 C 612.835938 456.472656 612.871094 456.101562 612.871094 455.730469 Z M 255.167969 547.847656 C 254.976562 547.519531 254.757812 547.214844 254.511719 546.933594 C 254.261719 546.652344 253.988281 546.394531 253.6875 546.167969 C 253.390625 545.9375 253.070312 545.742188 252.734375 545.574219 C 252.394531 545.410156 252.042969 545.277344 251.679688 545.179688 C 251.316406 545.082031 250.945312 545.023438 250.570312 545 C 250.195312 544.976562 249.820312 544.988281 249.445312 545.039062 C 249.074219 545.089844 248.707031 545.171875 248.351562 545.296875 C 247.996094 545.417969 247.65625 545.570312 247.328125 545.761719 L 205.875 569.792969 C 205.546875 569.980469 205.246094 570.199219 204.960938 570.449219 C 204.679688 570.695312 204.421875 570.972656 204.195312 571.269531 C 203.964844 571.570312 203.769531 571.886719 203.601562 572.226562 C 203.4375 572.5625 203.304688 572.914062 203.207031 573.277344 C 203.113281 573.640625 203.050781 574.011719 203.027344 574.386719 C 203.003906 574.765625 203.015625 575.136719 203.066406 575.511719 C 203.117188 575.882812 203.203125 576.25 203.324219 576.605469 C 203.445312 576.960938 203.601562 577.304688 203.789062 577.628906 L 203.886719 577.796875 C 204.074219 578.125 204.292969 578.425781 204.542969 578.710938 C 204.792969 578.992188 205.066406 579.25 205.363281 579.476562 C 205.664062 579.707031 205.984375 579.902344 206.320312 580.070312 C 206.660156 580.234375 207.007812 580.367188 207.375 580.464844 C 207.738281 580.558594 208.105469 580.621094 208.484375 580.644531 C 208.859375 580.667969 209.234375 580.65625 209.605469 580.605469 C 209.980469 580.554688 210.34375 580.46875 210.699219 580.347656 C 211.058594 580.226562 211.398438 580.070312 211.722656 579.882812 L 253.179688 555.851562 C 253.503906 555.664062 253.808594 555.445312 254.089844 555.195312 C 254.375 554.949219 254.628906 554.671875 254.859375 554.375 C 255.085938 554.074219 255.285156 553.757812 255.449219 553.417969 C 255.617188 553.082031 255.746094 552.730469 255.84375 552.367188 C 255.941406 552 256.003906 551.632812 256.027344 551.257812 C 256.050781 550.878906 256.035156 550.507812 255.988281 550.132812 C 255.9375 549.757812 255.851562 549.394531 255.730469 549.039062 C 255.609375 548.683594 255.453125 548.339844 255.265625 548.015625 Z M 605.84375 577.621094 C 606.03125 577.292969 606.1875 576.953125 606.3125 576.59375 C 606.433594 576.238281 606.519531 575.871094 606.570312 575.5 C 606.617188 575.125 606.632812 574.75 606.605469 574.371094 C 606.582031 573.996094 606.523438 573.625 606.425781 573.257812 C 606.328125 572.894531 606.195312 572.542969 606.03125 572.203125 C 605.863281 571.863281 605.667969 571.546875 605.4375 571.246094 C 605.207031 570.945312 604.953125 570.671875 604.667969 570.421875 C 604.382812 570.171875 604.078125 569.953125 603.753906 569.765625 L 562.324219 545.75 C 561.996094 545.558594 561.65625 545.402344 561.296875 545.28125 C 560.941406 545.160156 560.574219 545.074219 560.199219 545.023438 C 559.828125 544.972656 559.449219 544.960938 559.074219 544.984375 C 558.699219 545.007812 558.328125 545.070312 557.960938 545.167969 C 557.597656 545.261719 557.246094 545.394531 556.90625 545.5625 C 556.566406 545.726562 556.246094 545.925781 555.949219 546.15625 C 555.648438 546.382812 555.375 546.640625 555.125 546.925781 C 554.875 547.207031 554.65625 547.511719 554.464844 547.839844 L 554.367188 548.007812 C 554.179688 548.335938 554.023438 548.675781 553.902344 549.035156 C 553.78125 549.390625 553.695312 549.757812 553.644531 550.128906 C 553.59375 550.503906 553.582031 550.878906 553.605469 551.257812 C 553.628906 551.632812 553.6875 552.003906 553.785156 552.371094 C 553.882812 552.734375 554.015625 553.085938 554.179688 553.425781 C 554.347656 553.765625 554.546875 554.082031 554.773438 554.382812 C 555.003906 554.683594 555.261719 554.957031 555.542969 555.207031 C 555.828125 555.457031 556.132812 555.675781 556.460938 555.867188 L 597.886719 579.882812 C 598.214844 580.070312 598.558594 580.226562 598.914062 580.347656 C 599.269531 580.46875 599.636719 580.554688 600.011719 580.605469 C 600.386719 580.65625 600.761719 580.667969 601.136719 580.644531 C 601.515625 580.621094 601.886719 580.558594 602.25 580.464844 C 602.613281 580.367188 602.964844 580.234375 603.304688 580.066406 C 603.644531 579.902344 603.964844 579.703125 604.265625 579.472656 C 604.5625 579.246094 604.839844 578.988281 605.085938 578.707031 C 605.335938 578.421875 605.558594 578.117188 605.746094 577.789062 Z M 605.84375 577.621094 " fill-opacity="1" fill-rule="nonzero"/><path fill="#ffffff" d="M 404.691406 283.367188 L 404.933594 283.367188 C 405.304688 283.367188 405.671875 283.402344 406.039062 283.476562 C 406.402344 283.550781 406.757812 283.65625 407.101562 283.800781 C 407.445312 283.941406 407.773438 284.117188 408.082031 284.324219 C 408.390625 284.53125 408.675781 284.765625 408.941406 285.027344 C 409.203125 285.289062 409.4375 285.578125 409.644531 285.886719 C 409.851562 286.195312 410.027344 286.523438 410.167969 286.867188 C 410.3125 287.210938 410.417969 287.5625 410.492188 287.929688 C 410.5625 288.292969 410.601562 288.664062 410.601562 289.035156 L 410.601562 337.175781 C 410.601562 337.546875 410.5625 337.917969 410.492188 338.28125 C 410.417969 338.648438 410.3125 339 410.167969 339.34375 C 410.027344 339.6875 409.851562 340.015625 409.644531 340.324219 C 409.4375 340.632812 409.203125 340.921875 408.941406 341.183594 C 408.675781 341.445312 408.390625 341.679688 408.082031 341.886719 C 407.773438 342.09375 407.445312 342.269531 407.101562 342.410156 C 406.757812 342.554688 406.402344 342.660156 406.039062 342.734375 C 405.671875 342.808594 405.304688 342.84375 404.933594 342.84375 L 404.691406 342.84375 C 404.320312 342.84375 403.953125 342.808594 403.585938 342.734375 C 403.222656 342.660156 402.867188 342.554688 402.523438 342.410156 C 402.179688 342.269531 401.851562 342.09375 401.542969 341.886719 C 401.234375 341.679688 400.949219 341.445312 400.683594 341.183594 C 400.421875 340.921875 400.1875 340.632812 399.980469 340.324219 C 399.773438 340.015625 399.597656 339.6875 399.457031 339.34375 C 399.3125 339 399.207031 338.648438 399.132812 338.28125 C 399.0625 337.917969 399.027344 337.546875 399.027344 337.175781 L 399.027344 289.035156 C 399.027344 288.664062 399.0625 288.292969 399.132812 287.929688 C 399.207031 287.5625 399.3125 287.210938 399.457031 286.867188 C 399.597656 286.523438 399.773438 286.195312 399.980469 285.886719 C 400.1875 285.578125 400.421875 285.289062 400.683594 285.027344 C 400.949219 284.765625 401.234375 284.53125 401.542969 284.324219 C 401.851562 284.117188 402.179688 283.941406 402.523438 283.800781 C 402.867188 283.65625 403.222656 283.550781 403.585938 283.476562 C 403.953125 283.402344 404.320312 283.367188 404.691406 283.367188 Z M 404.691406 283.367188 " fill-opacity="1" fill-rule="nonzero"/><path fill="#ffffff" d="M 256.066406 338.636719 L 289.945312 372.519531 C 290.214844 372.785156 290.453125 373.074219 290.660156 373.390625 C 290.871094 373.703125 291.046875 374.035156 291.191406 374.382812 C 291.335938 374.730469 291.445312 375.089844 291.519531 375.460938 C 291.59375 375.828125 291.628906 376.203125 291.628906 376.578125 C 291.628906 376.957031 291.59375 377.332031 291.519531 377.699219 C 291.445312 378.070312 291.335938 378.429688 291.191406 378.777344 C 291.046875 379.125 290.871094 379.457031 290.660156 379.769531 C 290.453125 380.082031 290.214844 380.375 289.945312 380.640625 L 289.820312 380.765625 C 289.554688 381.035156 289.261719 381.273438 288.949219 381.480469 C 288.636719 381.691406 288.304688 381.867188 287.957031 382.011719 C 287.609375 382.15625 287.25 382.265625 286.878906 382.339844 C 286.511719 382.414062 286.136719 382.449219 285.757812 382.449219 C 285.382812 382.449219 285.007812 382.414062 284.640625 382.339844 C 284.269531 382.265625 283.910156 382.15625 283.5625 382.011719 C 283.214844 381.867188 282.882812 381.691406 282.570312 381.480469 C 282.257812 381.273438 281.964844 381.035156 281.699219 380.765625 L 247.816406 346.886719 C 247.550781 346.617188 247.3125 346.328125 247.101562 346.015625 C 246.894531 345.703125 246.71875 345.371094 246.574219 345.023438 C 246.429688 344.675781 246.320312 344.316406 246.246094 343.945312 C 246.171875 343.574219 246.136719 343.203125 246.136719 342.824219 C 246.136719 342.449219 246.171875 342.074219 246.246094 341.703125 C 246.320312 341.335938 246.429688 340.976562 246.574219 340.628906 C 246.71875 340.277344 246.894531 339.949219 247.101562 339.636719 C 247.3125 339.320312 247.550781 339.03125 247.816406 338.765625 L 247.945312 338.636719 C 248.210938 338.371094 248.5 338.132812 248.816406 337.921875 C 249.128906 337.714844 249.460938 337.535156 249.808594 337.394531 C 250.15625 337.25 250.515625 337.140625 250.882812 337.066406 C 251.253906 336.992188 251.628906 336.957031 252.003906 336.957031 C 252.382812 336.957031 252.753906 336.992188 253.125 337.066406 C 253.496094 337.140625 253.855469 337.25 254.203125 337.394531 C 254.550781 337.535156 254.882812 337.714844 255.195312 337.921875 C 255.507812 338.132812 255.796875 338.371094 256.066406 338.636719 Z M 256.066406 338.636719 " fill-opacity="1" fill-rule="nonzero"/><path fill="#ffffff" d="M 561.636719 338.59375 L 561.777344 338.734375 C 562.042969 339 562.28125 339.289062 562.492188 339.601562 C 562.703125 339.914062 562.878906 340.246094 563.023438 340.59375 C 563.167969 340.941406 563.277344 341.300781 563.351562 341.671875 C 563.425781 342.039062 563.464844 342.414062 563.464844 342.789062 C 563.464844 343.167969 563.429688 343.542969 563.355469 343.910156 C 563.285156 344.28125 563.175781 344.640625 563.03125 344.988281 C 562.886719 345.335938 562.710938 345.667969 562.503906 345.984375 C 562.292969 346.296875 562.058594 346.585938 561.789062 346.855469 L 527.96875 380.792969 C 527.703125 381.0625 527.414062 381.300781 527.097656 381.511719 C 526.785156 381.71875 526.457031 381.898438 526.105469 382.042969 C 525.757812 382.1875 525.398438 382.296875 525.03125 382.371094 C 524.660156 382.445312 524.289062 382.484375 523.910156 382.484375 C 523.535156 382.484375 523.160156 382.449219 522.789062 382.375 C 522.421875 382.300781 522.0625 382.195312 521.710938 382.050781 C 521.363281 381.90625 521.03125 381.730469 520.71875 381.523438 C 520.40625 381.3125 520.113281 381.074219 519.847656 380.808594 L 519.710938 380.671875 C 519.441406 380.40625 519.203125 380.117188 518.992188 379.800781 C 518.785156 379.488281 518.605469 379.160156 518.460938 378.8125 C 518.316406 378.460938 518.207031 378.105469 518.132812 377.734375 C 518.058594 377.363281 518.019531 376.992188 518.019531 376.613281 C 518.019531 376.238281 518.054688 375.863281 518.128906 375.492188 C 518.203125 375.125 518.308594 374.765625 518.453125 374.414062 C 518.597656 374.066406 518.773438 373.734375 518.984375 373.421875 C 519.191406 373.109375 519.429688 372.816406 519.695312 372.550781 L 553.519531 338.609375 C 553.785156 338.34375 554.074219 338.105469 554.386719 337.894531 C 554.699219 337.683594 555.03125 337.507812 555.378906 337.363281 C 555.726562 337.21875 556.085938 337.105469 556.457031 337.03125 C 556.824219 336.957031 557.199219 336.921875 557.574219 336.921875 C 557.953125 336.921875 558.324219 336.957031 558.695312 337.027344 C 559.066406 337.101562 559.425781 337.210938 559.773438 337.355469 C 560.121094 337.496094 560.453125 337.675781 560.765625 337.882812 C 561.082031 338.09375 561.371094 338.328125 561.636719 338.59375 Z M 561.636719 338.59375 " fill-opacity="1" fill-rule="nonzero"/><path fill="#ffffff" d="M 398.277344 726.992188 C 383.582031 724.433594 370.515625 713.542969 367.070312 698.707031 C 366.414062 695.867188 366.070312 690.898438 366.042969 683.796875 C 366 673.792969 365.996094 663.78125 366.027344 653.765625 C 366.078125 637.800781 356.371094 618.4375 347.457031 605.511719 C 340.535156 595.472656 333.585938 585.449219 326.609375 575.4375 C 305.679688 545.429688 290.988281 506.90625 300.222656 470.199219 C 321.214844 386.816406 431.507812 362.136719 487.464844 426.628906 C 524.679688 469.523438 516.792969 528.472656 485.570312 572.34375 C 474.980469 587.214844 467.503906 597.664062 463.140625 603.683594 C 453.898438 616.449219 446.695312 632.109375 444.867188 647.628906 C 444.019531 654.765625 442.953125 664.523438 443.574219 672.921875 C 444 678.613281 444.128906 683.882812 443.964844 688.730469 C 443.132812 713.160156 422.910156 731.277344 398.277344 726.992188 Z M 440.066406 663.46875 C 440.066406 663.167969 440.039062 662.875 439.980469 662.582031 C 439.921875 662.289062 439.835938 662.003906 439.722656 661.730469 C 439.609375 661.453125 439.46875 661.191406 439.300781 660.945312 C 439.136719 660.695312 438.949219 660.464844 438.738281 660.253906 C 438.527344 660.042969 438.296875 659.855469 438.046875 659.691406 C 437.800781 659.523438 437.539062 659.382812 437.261719 659.269531 C 436.988281 659.15625 436.703125 659.070312 436.410156 659.011719 C 436.117188 658.953125 435.824219 658.925781 435.523438 658.925781 L 374.113281 658.925781 C 373.816406 658.925781 373.523438 658.953125 373.230469 659.011719 C 372.9375 659.070312 372.652344 659.15625 372.375 659.269531 C 372.101562 659.382812 371.839844 659.523438 371.589844 659.691406 C 371.34375 659.855469 371.113281 660.042969 370.902344 660.253906 C 370.691406 660.464844 370.503906 660.695312 370.339844 660.945312 C 370.171875 661.191406 370.03125 661.453125 369.917969 661.730469 C 369.804688 662.003906 369.71875 662.289062 369.660156 662.582031 C 369.601562 662.875 369.574219 663.167969 369.574219 663.46875 L 369.574219 663.753906 C 369.574219 664.050781 369.601562 664.347656 369.660156 664.636719 C 369.71875 664.929688 369.804688 665.214844 369.917969 665.492188 C 370.03125 665.765625 370.171875 666.027344 370.339844 666.277344 C 370.503906 666.523438 370.691406 666.753906 370.902344 666.964844 C 371.113281 667.175781 371.34375 667.363281 371.589844 667.527344 C 371.839844 667.695312 372.101562 667.835938 372.375 667.949219 C 372.652344 668.0625 372.9375 668.148438 373.230469 668.207031 C 373.523438 668.265625 373.816406 668.296875 374.113281 668.296875 L 435.523438 668.296875 C 435.824219 668.296875 436.117188 668.265625 436.410156 668.207031 C 436.703125 668.148438 436.988281 668.0625 437.261719 667.949219 C 437.539062 667.835938 437.800781 667.695312 438.046875 667.53125 C 438.296875 667.363281 438.527344 667.175781 438.738281 666.964844 C 438.949219 666.753906 439.136719 666.523438 439.300781 666.277344 C 439.46875 666.027344 439.609375 665.765625 439.722656 665.492188 C 439.835938 665.214844 439.921875 664.929688 439.980469 664.636719 C 440.039062 664.347656 440.066406 664.050781 440.066406 663.753906 Z M 440.074219 680.761719 C 440.074219 680.460938 440.046875 680.160156 439.988281 679.863281 C 439.929688 679.570312 439.839844 679.28125 439.726562 679.003906 C 439.609375 678.722656 439.46875 678.460938 439.300781 678.207031 C 439.132812 677.957031 438.941406 677.726562 438.730469 677.511719 C 438.515625 677.296875 438.285156 677.109375 438.03125 676.941406 C 437.78125 676.773438 437.515625 676.632812 437.238281 676.515625 C 436.960938 676.398438 436.671875 676.3125 436.375 676.253906 C 436.082031 676.195312 435.78125 676.167969 435.480469 676.167969 L 374.175781 676.167969 C 373.875 676.167969 373.574219 676.195312 373.277344 676.253906 C 372.984375 676.3125 372.695312 676.402344 372.417969 676.515625 C 372.136719 676.632812 371.875 676.773438 371.621094 676.941406 C 371.371094 677.109375 371.140625 677.296875 370.925781 677.511719 C 370.710938 677.726562 370.523438 677.957031 370.355469 678.207031 C 370.1875 678.460938 370.046875 678.722656 369.929688 679.003906 C 369.8125 679.28125 369.726562 679.570312 369.667969 679.863281 C 369.609375 680.160156 369.578125 680.460938 369.578125 680.761719 L 369.578125 680.941406 C 369.578125 681.242188 369.609375 681.542969 369.667969 681.835938 C 369.726562 682.132812 369.8125 682.421875 369.929688 682.699219 C 370.046875 682.976562 370.1875 683.242188 370.355469 683.492188 C 370.523438 683.746094 370.710938 683.976562 370.925781 684.191406 C 371.140625 684.402344 371.371094 684.59375 371.621094 684.761719 C 371.875 684.929688 372.136719 685.070312 372.417969 685.1875 C 372.695312 685.300781 372.984375 685.390625 373.277344 685.449219 C 373.574219 685.507812 373.875 685.535156 374.175781 685.535156 L 435.480469 685.535156 C 435.78125 685.535156 436.082031 685.507812 436.375 685.449219 C 436.671875 685.390625 436.960938 685.300781 437.238281 685.1875 C 437.515625 685.070312 437.78125 684.929688 438.03125 684.761719 C 438.285156 684.59375 438.515625 684.402344 438.730469 684.191406 C 438.941406 683.976562 439.132812 683.746094 439.300781 683.492188 C 439.46875 683.242188 439.609375 682.976562 439.726562 682.699219 C 439.839844 682.421875 439.929688 682.132812 439.988281 681.835938 C 440.046875 681.542969 440.074219 681.242188 440.074219 680.941406 Z M 440.074219 697.386719 C 440.074219 697.089844 440.046875 696.792969 439.988281 696.5 C 439.929688 696.210938 439.84375 695.925781 439.730469 695.648438 C 439.613281 695.375 439.476562 695.113281 439.308594 694.863281 C 439.144531 694.617188 438.957031 694.386719 438.746094 694.175781 C 438.535156 693.964844 438.304688 693.777344 438.054688 693.609375 C 437.808594 693.445312 437.546875 693.304688 437.269531 693.191406 C 436.996094 693.078125 436.710938 692.992188 436.417969 692.933594 C 436.125 692.875 435.832031 692.84375 435.53125 692.84375 L 374.136719 692.84375 C 373.839844 692.84375 373.542969 692.875 373.25 692.933594 C 372.957031 692.992188 372.675781 693.078125 372.398438 693.191406 C 372.125 693.304688 371.863281 693.445312 371.613281 693.609375 C 371.367188 693.777344 371.136719 693.964844 370.925781 694.175781 C 370.714844 694.386719 370.527344 694.617188 370.359375 694.863281 C 370.195312 695.113281 370.054688 695.375 369.941406 695.648438 C 369.828125 695.925781 369.742188 696.210938 369.683594 696.5 C 369.625 696.792969 369.59375 697.089844 369.59375 697.386719 L 369.59375 697.671875 C 369.59375 697.972656 369.625 698.265625 369.683594 698.558594 C 369.742188 698.851562 369.828125 699.136719 369.941406 699.410156 C 370.054688 699.6875 370.195312 699.949219 370.359375 700.195312 C 370.527344 700.445312 370.714844 700.675781 370.925781 700.886719 C 371.136719 701.097656 371.367188 701.285156 371.613281 701.449219 C 371.863281 701.617188 372.125 701.753906 372.398438 701.871094 C 372.675781 701.984375 372.957031 702.070312 373.25 702.128906 C 373.542969 702.1875 373.839844 702.214844 374.136719 702.214844 L 435.53125 702.214844 C 435.832031 702.214844 436.125 702.1875 436.417969 702.128906 C 436.710938 702.070312 436.996094 701.984375 437.269531 701.871094 C 437.546875 701.753906 437.808594 701.617188 438.054688 701.449219 C 438.304688 701.285156 438.535156 701.097656 438.746094 700.886719 C 438.957031 700.675781 439.144531 700.445312 439.308594 700.195312 C 439.476562 699.949219 439.613281 699.6875 439.730469 699.410156 C 439.84375 699.136719 439.929688 698.851562 439.988281 698.558594 C 440.046875 698.265625 440.074219 697.972656 440.074219 697.671875 Z M 440.074219 697.386719 " fill-opacity="1" fill-rule="nonzero"/><path fill="#ffffff" d="M 202.40625 449.605469 L 250.367188 449.605469 C 250.746094 449.605469 251.121094 449.640625 251.492188 449.714844 C 251.863281 449.789062 252.222656 449.898438 252.574219 450.042969 C 252.921875 450.1875 253.253906 450.367188 253.570312 450.578125 C 253.882812 450.789062 254.175781 451.027344 254.441406 451.292969 C 254.710938 451.5625 254.949219 451.851562 255.160156 452.167969 C 255.371094 452.480469 255.546875 452.8125 255.691406 453.164062 C 255.835938 453.515625 255.945312 453.875 256.019531 454.246094 C 256.09375 454.617188 256.132812 454.992188 256.132812 455.371094 L 256.132812 455.625 C 256.132812 456.003906 256.09375 456.378906 256.019531 456.75 C 255.945312 457.121094 255.835938 457.480469 255.691406 457.832031 C 255.546875 458.179688 255.371094 458.511719 255.160156 458.828125 C 254.949219 459.140625 254.710938 459.433594 254.441406 459.699219 C 254.175781 459.96875 253.882812 460.207031 253.570312 460.417969 C 253.253906 460.628906 252.921875 460.804688 252.574219 460.949219 C 252.222656 461.09375 251.863281 461.203125 251.492188 461.277344 C 251.121094 461.351562 250.746094 461.390625 250.367188 461.390625 L 202.40625 461.390625 C 202.027344 461.390625 201.652344 461.351562 201.28125 461.277344 C 200.910156 461.203125 200.546875 461.09375 200.199219 460.949219 C 199.847656 460.804688 199.515625 460.628906 199.203125 460.417969 C 198.886719 460.207031 198.597656 459.96875 198.328125 459.699219 C 198.0625 459.433594 197.820312 459.140625 197.613281 458.828125 C 197.402344 458.511719 197.222656 458.179688 197.078125 457.832031 C 196.933594 457.480469 196.824219 457.121094 196.75 456.75 C 196.675781 456.378906 196.640625 456.003906 196.640625 455.625 L 196.640625 455.371094 C 196.640625 454.992188 196.675781 454.617188 196.75 454.246094 C 196.824219 453.875 196.933594 453.515625 197.078125 453.164062 C 197.222656 452.8125 197.402344 452.480469 197.613281 452.167969 C 197.820312 451.851562 198.0625 451.5625 198.328125 451.292969 C 198.597656 451.027344 198.886719 450.789062 199.203125 450.578125 C 199.515625 450.367188 199.847656 450.1875 200.199219 450.042969 C 200.546875 449.898438 200.910156 449.789062 201.28125 449.714844 C 201.652344 449.640625 202.027344 449.605469 202.40625 449.605469 Z M 202.40625 449.605469 " fill-opacity="1" fill-rule="nonzero"/><path fill="#ffffff" d="M 559.296875 449.589844 L 607.199219 449.589844 C 607.570312 449.589844 607.9375 449.625 608.304688 449.699219 C 608.671875 449.773438 609.023438 449.878906 609.371094 450.023438 C 609.714844 450.164062 610.039062 450.339844 610.351562 450.546875 C 610.660156 450.753906 610.945312 450.988281 611.210938 451.253906 C 611.472656 451.515625 611.707031 451.800781 611.914062 452.113281 C 612.121094 452.421875 612.296875 452.75 612.441406 453.09375 C 612.582031 453.4375 612.691406 453.792969 612.761719 454.15625 C 612.835938 454.523438 612.871094 454.890625 612.871094 455.265625 L 612.871094 455.730469 C 612.871094 456.101562 612.835938 456.472656 612.761719 456.835938 C 612.691406 457.203125 612.582031 457.558594 612.441406 457.902344 C 612.296875 458.246094 612.121094 458.574219 611.914062 458.882812 C 611.707031 459.191406 611.472656 459.480469 611.210938 459.742188 C 610.945312 460.007812 610.660156 460.242188 610.351562 460.449219 C 610.039062 460.65625 609.714844 460.828125 609.371094 460.972656 C 609.023438 461.113281 608.671875 461.222656 608.304688 461.296875 C 607.9375 461.367188 607.570312 461.40625 607.199219 461.40625 L 559.296875 461.40625 C 558.921875 461.40625 558.554688 461.367188 558.1875 461.296875 C 557.824219 461.222656 557.46875 461.113281 557.125 460.972656 C 556.78125 460.828125 556.453125 460.65625 556.144531 460.449219 C 555.832031 460.242188 555.546875 460.007812 555.285156 459.742188 C 555.019531 459.480469 554.785156 459.191406 554.578125 458.882812 C 554.371094 458.574219 554.195312 458.246094 554.054688 457.902344 C 553.910156 457.558594 553.804688 457.203125 553.730469 456.835938 C 553.65625 456.472656 553.621094 456.101562 553.621094 455.730469 L 553.621094 455.265625 C 553.621094 454.890625 553.65625 454.523438 553.730469 454.15625 C 553.804688 453.792969 553.910156 453.4375 554.054688 453.09375 C 554.195312 452.75 554.371094 452.421875 554.578125 452.113281 C 554.785156 451.800781 555.019531 451.515625 555.285156 451.253906 C 555.546875 450.988281 555.832031 450.753906 556.144531 450.546875 C 556.453125 450.339844 556.78125 450.164062 557.125 450.023438 C 557.46875 449.878906 557.824219 449.773438 558.1875 449.699219 C 558.554688 449.625 558.921875 449.589844 559.296875 449.589844 Z M 559.296875 449.589844 " fill-opacity="1" fill-rule="nonzero"/><path fill="#ffffff" d="M 205.875 569.792969 L 247.328125 545.761719 C 247.65625 545.570312 247.996094 545.417969 248.351562 545.296875 C 248.707031 545.171875 249.074219 545.089844 249.445312 545.039062 C 249.820312 544.988281 250.195312 544.976562 250.570312 545 C 250.945312 545.023438 251.316406 545.082031 251.679688 545.179688 C 252.042969 545.277344 252.394531 545.410156 252.734375 545.574219 C 253.070312 545.742188 253.390625 545.9375 253.6875 546.167969 C 253.988281 546.394531 254.261719 546.652344 254.511719 546.933594 C 254.757812 547.214844 254.976562 547.519531 255.167969 547.847656 L 255.265625 548.015625 C 255.453125 548.339844 255.609375 548.683594 255.730469 549.039062 C 255.851562 549.394531 255.9375 549.757812 255.988281 550.132812 C 256.035156 550.503906 256.050781 550.878906 256.027344 551.257812 C 256.003906 551.632812 255.941406 552 255.84375 552.367188 C 255.746094 552.730469 255.617188 553.082031 255.449219 553.417969 C 255.285156 553.757812 255.085938 554.074219 254.859375 554.375 C 254.628906 554.671875 254.375 554.945312 254.089844 555.195312 C 253.808594 555.445312 253.503906 555.664062 253.179688 555.851562 L 211.722656 579.882812 C 211.398438 580.070312 211.058594 580.226562 210.699219 580.347656 C 210.34375 580.46875 209.980469 580.554688 209.605469 580.605469 C 209.234375 580.65625 208.859375 580.667969 208.484375 580.644531 C 208.105469 580.621094 207.738281 580.558594 207.375 580.464844 C 207.007812 580.367188 206.660156 580.234375 206.320312 580.070312 C 205.984375 579.902344 205.664062 579.707031 205.363281 579.476562 C 205.066406 579.25 204.792969 578.992188 204.542969 578.710938 C 204.292969 578.425781 204.074219 578.125 203.886719 577.796875 L 203.789062 577.628906 C 203.601562 577.304688 203.445312 576.960938 203.324219 576.605469 C 203.203125 576.25 203.117188 575.882812 203.066406 575.511719 C 203.015625 575.136719 203.003906 574.765625 203.027344 574.386719 C 203.050781 574.011719 203.113281 573.640625 203.207031 573.277344 C 203.304688 572.914062 203.4375 572.5625 203.601562 572.226562 C 203.769531 571.886719 203.964844 571.570312 204.195312 571.269531 C 204.421875 570.972656 204.679688 570.695312 204.960938 570.449219 C 205.246094 570.199219 205.546875 569.980469 205.875 569.792969 Z M 205.875 569.792969 " fill-opacity="1" fill-rule="nonzero"/><path fill="#ffffff" d="M 562.324219 545.75 L 603.753906 569.761719 C 604.078125 569.953125 604.382812 570.171875 604.667969 570.421875 C 604.953125 570.671875 605.207031 570.945312 605.4375 571.246094 C 605.667969 571.546875 605.863281 571.863281 606.03125 572.203125 C 606.195312 572.542969 606.328125 572.894531 606.425781 573.257812 C 606.523438 573.625 606.582031 573.996094 606.605469 574.371094 C 606.632812 574.75 606.617188 575.125 606.570312 575.5 C 606.519531 575.871094 606.433594 576.238281 606.3125 576.59375 C 606.1875 576.953125 606.03125 577.292969 605.84375 577.621094 L 605.746094 577.789062 C 605.554688 578.117188 605.335938 578.421875 605.085938 578.707031 C 604.839844 578.988281 604.5625 579.246094 604.265625 579.472656 C 603.964844 579.703125 603.644531 579.902344 603.304688 580.066406 C 602.964844 580.234375 602.613281 580.367188 602.25 580.464844 C 601.886719 580.558594 601.515625 580.621094 601.136719 580.644531 C 600.761719 580.667969 600.386719 580.65625 600.011719 580.605469 C 599.636719 580.554688 599.269531 580.46875 598.914062 580.347656 C 598.558594 580.226562 598.214844 580.070312 597.886719 579.882812 L 556.460938 555.867188 C 556.132812 555.675781 555.828125 555.457031 555.542969 555.207031 C 555.261719 554.957031 555.003906 554.683594 554.773438 554.382812 C 554.546875 554.082031 554.347656 553.765625 554.179688 553.425781 C 554.015625 553.085938 553.882812 552.734375 553.785156 552.371094 C 553.6875 552.003906 553.628906 551.632812 553.605469 551.257812 C 553.582031 550.878906 553.59375 550.503906 553.644531 550.128906 C 553.695312 549.757812 553.78125 549.390625 553.902344 549.035156 C 554.023438 548.675781 554.179688 548.335938 554.367188 548.007812 L 554.464844 547.839844 C 554.65625 547.511719 554.875 547.207031 555.125 546.925781 C 555.375 546.640625 555.648438 546.382812 555.949219 546.15625 C 556.25 545.925781 556.566406 545.726562 556.90625 545.5625 C 557.246094 545.394531 557.597656 545.261719 557.960938 545.167969 C 558.328125 545.070312 558.699219 545.007812 559.074219 544.984375 C 559.449219 544.960938 559.828125 544.972656 560.199219 545.023438 C 560.574219 545.074219 560.941406 545.160156 561.296875 545.28125 C 561.65625 545.402344 561.996094 545.558594 562.324219 545.75 Z M 562.324219 545.75 " fill-opacity="1" fill-rule="nonzero"/><path fill="#c8c8c1" d="M 374.113281 658.925781 L 435.523438 658.925781 C 435.824219 658.925781 436.117188 658.953125 436.410156 659.011719 C 436.703125 659.070312 436.988281 659.15625 437.261719 659.269531 C 437.539062 659.382812 437.800781 659.523438 438.046875 659.691406 C 438.296875 659.855469 438.527344 660.042969 438.738281 660.253906 C 438.949219 660.464844 439.136719 660.695312 439.300781 660.945312 C 439.46875 661.191406 439.609375 661.453125 439.722656 661.730469 C 439.835938 662.003906 439.921875 662.289062 439.980469 662.582031 C 440.039062 662.875 440.066406 663.167969 440.066406 663.46875 L 440.066406 663.753906 C 440.066406 664.050781 440.039062 664.347656 439.980469 664.636719 C 439.921875 664.929688 439.835938 665.214844 439.722656 665.492188 C 439.609375 665.765625 439.46875 666.027344 439.300781 666.277344 C 439.136719 666.523438 438.949219 666.753906 438.738281 666.964844 C 438.527344 667.175781 438.296875 667.363281 438.046875 667.527344 C 437.800781 667.695312 437.539062 667.835938 437.261719 667.949219 C 436.988281 668.0625 436.703125 668.148438 436.410156 668.207031 C 436.117188 668.265625 435.824219 668.296875 435.523438 668.296875 L 374.113281 668.296875 C 373.816406 668.296875 373.523438 668.265625 373.230469 668.207031 C 372.9375 668.148438 372.652344 668.0625 372.375 667.949219 C 372.101562 667.835938 371.839844 667.695312 371.589844 667.527344 C 371.34375 667.363281 371.113281 667.175781 370.902344 666.964844 C 370.691406 666.753906 370.503906 666.523438 370.339844 666.277344 C 370.171875 666.027344 370.03125 665.765625 369.917969 665.492188 C 369.804688 665.214844 369.71875 664.929688 369.660156 664.636719 C 369.601562 664.347656 369.574219 664.050781 369.574219 663.753906 L 369.574219 663.46875 C 369.574219 663.167969 369.601562 662.875 369.660156 662.582031 C 369.71875 662.289062 369.804688 662.003906 369.917969 661.730469 C 370.03125 661.453125 370.171875 661.191406 370.339844 660.945312 C 370.503906 660.695312 370.691406 660.464844 370.902344 660.253906 C 371.113281 660.042969 371.34375 659.855469 371.589844 659.691406 C 371.839844 659.523438 372.101562 659.382812 372.375 659.269531 C 372.652344 659.15625 372.9375 659.070312 373.230469 659.011719 C 373.523438 658.953125 373.816406 658.925781 374.113281 658.925781 Z M 374.113281 658.925781 " fill-opacity="1" fill-rule="nonzero"/><path fill="#c8c8c1" d="M 374.175781 676.167969 L 435.480469 676.167969 C 435.78125 676.167969 436.082031 676.195312 436.375 676.253906 C 436.671875 676.3125 436.960938 676.398438 437.238281 676.515625 C 437.515625 676.632812 437.78125 676.773438 438.03125 676.941406 C 438.285156 677.109375 438.515625 677.296875 438.730469 677.511719 C 438.941406 677.726562 439.132812 677.957031 439.300781 678.207031 C 439.46875 678.460938 439.609375 678.722656 439.726562 679.003906 C 439.839844 679.28125 439.929688 679.570312 439.988281 679.863281 C 440.046875 680.160156 440.074219 680.460938 440.074219 680.761719 L 440.074219 680.941406 C 440.074219 681.242188 440.046875 681.542969 439.988281 681.835938 C 439.929688 682.132812 439.839844 682.421875 439.726562 682.699219 C 439.609375 682.976562 439.46875 683.242188 439.300781 683.492188 C 439.132812 683.746094 438.941406 683.976562 438.730469 684.191406 C 438.515625 684.402344 438.285156 684.59375 438.03125 684.761719 C 437.78125 684.929688 437.515625 685.070312 437.238281 685.1875 C 436.960938 685.300781 436.671875 685.390625 436.375 685.449219 C 436.082031 685.507812 435.78125 685.535156 435.480469 685.535156 L 374.175781 685.535156 C 373.875 685.535156 373.574219 685.507812 373.277344 685.449219 C 372.984375 685.390625 372.695312 685.300781 372.417969 685.1875 C 372.136719 685.070312 371.875 684.929688 371.621094 684.761719 C 371.371094 684.59375 371.140625 684.402344 370.925781 684.191406 C 370.710938 683.976562 370.523438 683.746094 370.355469 683.492188 C 370.1875 683.242188 370.046875 682.976562 369.929688 682.699219 C 369.8125 682.421875 369.726562 682.132812 369.667969 681.835938 C 369.609375 681.542969 369.578125 681.242188 369.578125 680.941406 L 369.578125 680.761719 C 369.578125 680.460938 369.609375 680.160156 369.667969 679.863281 C 369.726562 679.570312 369.8125 679.28125 369.929688 679.003906 C 370.046875 678.722656 370.1875 678.460938 370.355469 678.207031 C 370.523438 677.957031 370.710938 677.726562 370.925781 677.511719 C 371.140625 677.296875 371.371094 677.109375 371.621094 676.941406 C 371.875 676.773438 372.136719 676.632812 372.417969 676.515625 C 372.695312 676.398438 372.984375 676.3125 373.277344 676.253906 C 373.574219 676.195312 373.875 676.167969 374.175781 676.167969 Z M 374.175781 676.167969 " fill-opacity="1" fill-rule="nonzero"/><path fill="#c8c8c1" d="M 374.136719 692.84375 L 435.53125 692.84375 C 435.832031 692.84375 436.125 692.875 436.417969 692.933594 C 436.710938 692.992188 436.996094 693.078125 437.269531 693.191406 C 437.546875 693.304688 437.808594 693.445312 438.054688 693.609375 C 438.304688 693.777344 438.535156 693.964844 438.746094 694.175781 C 438.957031 694.386719 439.144531 694.617188 439.308594 694.863281 C 439.476562 695.113281 439.613281 695.375 439.730469 695.648438 C 439.84375 695.925781 439.929688 696.210938 439.988281 696.5 C 440.046875 696.792969 440.074219 697.089844 440.074219 697.386719 L 440.074219 697.671875 C 440.074219 697.972656 440.046875 698.265625 439.988281 698.558594 C 439.929688 698.851562 439.84375 699.136719 439.730469 699.410156 C 439.613281 699.6875 439.476562 699.949219 439.308594 700.195312 C 439.144531 700.445312 438.957031 700.675781 438.746094 700.886719 C 438.535156 701.097656 438.304688 701.285156 438.054688 701.449219 C 437.808594 701.617188 437.546875 701.753906 437.269531 701.871094 C 436.996094 701.984375 436.710938 702.070312 436.417969 702.128906 C 436.125 702.1875 435.832031 702.214844 435.53125 702.214844 L 374.136719 702.214844 C 373.839844 702.214844 373.542969 702.1875 373.25 702.128906 C 372.957031 702.070312 372.675781 701.984375 372.398438 701.871094 C 372.125 701.753906 371.863281 701.617188 371.613281 701.449219 C 371.367188 701.285156 371.136719 701.097656 370.925781 700.886719 C 370.714844 700.675781 370.527344 700.445312 370.359375 700.195312 C 370.195312 699.949219 370.054688 699.6875 369.941406 699.410156 C 369.828125 699.136719 369.742188 698.851562 369.683594 698.558594 C 369.625 698.265625 369.59375 697.972656 369.59375 697.671875 L 369.59375 697.386719 C 369.59375 697.089844 369.625 696.792969 369.683594 696.5 C 369.742188 696.210938 369.828125 695.925781 369.941406 695.648438 C 370.054688 695.375 370.195312 695.113281 370.359375 694.863281 C 370.527344 694.617188 370.714844 694.386719 370.925781 694.175781 C 371.136719 693.964844 371.367188 693.777344 371.613281 693.609375 C 371.863281 693.445312 372.125 693.304688 372.398438 693.191406 C 372.675781 693.078125 372.957031 692.992188 373.25 692.933594 C 373.542969 692.875 373.839844 692.84375 374.136719 692.84375 Z M 374.136719 692.84375 " fill-opacity="1" fill-rule="nonzero"/></svg>