<svg xmlns="http://www.w3.org/2000/svg" xmlns:xlink="http://www.w3.org/1999/xlink" width="747" zoomAndPan="magnify" viewBox="0 0 560.25 126.749998" height="169" preserveAspectRatio="xMidYMid meet" version="1.0"><defs><g/><clipPath id="004b7c5e90"><path d="M 132 1 L 548 1 L 548 126.5 L 132 126.5 Z M 132 1 " clip-rule="nonzero"/></clipPath><clipPath id="86aa10e93f"><rect x="0" width="416" y="0" height="126"/></clipPath><clipPath id="6e3ad3ee4e"><path d="M 15 8 L 119 8 L 119 52 L 15 52 Z M 15 8 " clip-rule="nonzero"/></clipPath><clipPath id="709e0e7839"><path d="M 58.09375 -34.792969 L 128.851562 24.113281 L 36.421875 135.140625 L -34.335938 76.234375 Z M 58.09375 -34.792969 " clip-rule="nonzero"/></clipPath><clipPath id="1842cb9115"><path d="M 58.09375 -34.792969 L 128.851562 24.113281 L 36.421875 135.140625 L -34.335938 76.234375 Z M 58.09375 -34.792969 " clip-rule="nonzero"/></clipPath><clipPath id="d1a1232e4b"><path d="M 14 88 L 50 88 L 50 124 L 14 124 Z M 14 88 " clip-rule="nonzero"/></clipPath><clipPath id="79a2ae322f"><path d="M 58.09375 -34.792969 L 128.851562 24.113281 L 36.421875 135.140625 L -34.335938 76.234375 Z M 58.09375 -34.792969 " clip-rule="nonzero"/></clipPath><clipPath id="31bce5dda7"><path d="M 58.09375 -34.792969 L 128.851562 24.113281 L 36.421875 135.140625 L -34.335938 76.234375 Z M 58.09375 -34.792969 " clip-rule="nonzero"/></clipPath><clipPath id="24bf079f71"><path d="M 14 48 L 86 48 L 86 93 L 14 93 Z M 14 48 " clip-rule="nonzero"/></clipPath><clipPath id="14d88a2344"><path d="M 58.09375 -34.792969 L 128.851562 24.113281 L 36.421875 135.140625 L -34.335938 76.234375 Z M 58.09375 -34.792969 " clip-rule="nonzero"/></clipPath><clipPath id="36ee968f2d"><path d="M 58.09375 -34.792969 L 128.851562 24.113281 L 36.421875 135.140625 L -34.335938 76.234375 Z M 58.09375 -34.792969 " clip-rule="nonzero"/></clipPath></defs><g clip-path="url(#004b7c5e90)"><g transform="matrix(1, 0, 0, 1, 132, 1)"><g clip-path="url(#86aa10e93f)"><g fill="#000000" fill-opacity="1"><g transform="translate(0.905068, 97.893775)"><g><path d="M 13.921875 0.78125 C 11.910156 0.78125 10.335938 0.210938 9.203125 -0.921875 C 8.066406 -2.054688 7.5 -3.695312 7.5 -5.84375 L 7.5 -62.015625 C 7.5 -64.148438 8.066406 -65.785156 9.203125 -66.921875 C 10.335938 -68.054688 11.972656 -68.625 14.109375 -68.625 L 48.09375 -68.625 C 49.78125 -68.625 51.046875 -68.203125 51.890625 -67.359375 C 52.734375 -66.515625 53.15625 -65.316406 53.15625 -63.765625 C 53.15625 -62.140625 52.734375 -60.890625 51.890625 -60.015625 C 51.046875 -59.140625 49.78125 -58.703125 48.09375 -58.703125 L 19.953125 -58.703125 L 19.953125 -39.328125 L 46.046875 -39.328125 C 47.671875 -39.328125 48.921875 -38.90625 49.796875 -38.0625 C 50.671875 -37.21875 51.109375 -36.015625 51.109375 -34.453125 C 51.109375 -32.835938 50.671875 -31.585938 49.796875 -30.703125 C 48.921875 -29.828125 47.671875 -29.390625 46.046875 -29.390625 L 19.953125 -29.390625 L 19.953125 -5.84375 C 19.953125 -1.425781 17.941406 0.78125 13.921875 0.78125 Z M 13.921875 0.78125 "/></g></g></g><g fill="#000000" fill-opacity="1"><g transform="translate(55.610007, 97.893775)"><g><path d="M 22 0.96875 C 18.5625 0.96875 15.492188 0.304688 12.796875 -1.015625 C 10.109375 -2.347656 8 -4.148438 6.46875 -6.421875 C 4.945312 -8.691406 4.1875 -11.253906 4.1875 -14.109375 C 4.1875 -17.617188 5.09375 -20.394531 6.90625 -22.4375 C 8.726562 -24.476562 11.679688 -25.953125 15.765625 -26.859375 C 19.859375 -27.773438 25.34375 -28.234375 32.21875 -28.234375 L 37.09375 -28.234375 L 37.09375 -21.21875 L 32.3125 -21.21875 C 28.289062 -21.21875 25.078125 -21.019531 22.671875 -20.625 C 20.273438 -20.238281 18.570312 -19.578125 17.5625 -18.640625 C 16.5625 -17.703125 16.0625 -16.390625 16.0625 -14.703125 C 16.0625 -12.554688 16.804688 -10.800781 18.296875 -9.4375 C 19.796875 -8.070312 21.875 -7.390625 24.53125 -7.390625 C 26.675781 -7.390625 28.570312 -7.894531 30.21875 -8.90625 C 31.875 -9.914062 33.1875 -11.296875 34.15625 -13.046875 C 35.132812 -14.796875 35.625 -16.804688 35.625 -19.078125 L 35.625 -30.28125 C 35.625 -33.519531 34.910156 -35.851562 33.484375 -37.28125 C 32.054688 -38.707031 29.65625 -39.421875 26.28125 -39.421875 C 24.394531 -39.421875 22.363281 -39.191406 20.1875 -38.734375 C 18.019531 -38.285156 15.738281 -37.507812 13.34375 -36.40625 C 12.101562 -35.820312 11.007812 -35.660156 10.0625 -35.921875 C 9.125 -36.179688 8.394531 -36.71875 7.875 -37.53125 C 7.363281 -38.34375 7.109375 -39.234375 7.109375 -40.203125 C 7.109375 -41.171875 7.363281 -42.125 7.875 -43.0625 C 8.394531 -44.007812 9.273438 -44.710938 10.515625 -45.171875 C 13.492188 -46.398438 16.363281 -47.273438 19.125 -47.796875 C 21.882812 -48.316406 24.398438 -48.578125 26.671875 -48.578125 C 31.347656 -48.578125 35.191406 -47.863281 38.203125 -46.4375 C 41.222656 -45.007812 43.476562 -42.847656 44.96875 -39.953125 C 46.46875 -37.066406 47.21875 -33.351562 47.21875 -28.8125 L 47.21875 -5.453125 C 47.21875 -3.441406 46.726562 -1.898438 45.75 -0.828125 C 44.78125 0.242188 43.382812 0.78125 41.5625 0.78125 C 39.75 0.78125 38.335938 0.242188 37.328125 -0.828125 C 36.328125 -1.898438 35.828125 -3.441406 35.828125 -5.453125 L 35.828125 -10.125 L 36.59375 -10.125 C 36.144531 -7.851562 35.253906 -5.890625 33.921875 -4.234375 C 32.585938 -2.578125 30.914062 -1.296875 28.90625 -0.390625 C 26.894531 0.515625 24.59375 0.96875 22 0.96875 Z M 22 0.96875 "/></g></g></g><g fill="#000000" fill-opacity="1"><g transform="translate(108.854851, 97.893775)"><g><path d="M 23.75 0.96875 C 20.957031 0.96875 18.003906 0.675781 14.890625 0.09375 C 11.773438 -0.488281 8.984375 -1.492188 6.515625 -2.921875 C 5.484375 -3.566406 4.753906 -4.328125 4.328125 -5.203125 C 3.910156 -6.078125 3.75 -6.953125 3.84375 -7.828125 C 3.9375 -8.710938 4.257812 -9.476562 4.8125 -10.125 C 5.363281 -10.769531 6.078125 -11.191406 6.953125 -11.390625 C 7.835938 -11.585938 8.796875 -11.425781 9.828125 -10.90625 C 12.421875 -9.664062 14.851562 -8.800781 17.125 -8.3125 C 19.40625 -7.832031 21.644531 -7.59375 23.84375 -7.59375 C 26.957031 -7.59375 29.273438 -8.128906 30.796875 -9.203125 C 32.328125 -10.273438 33.09375 -11.6875 33.09375 -13.4375 C 33.09375 -14.925781 32.585938 -16.078125 31.578125 -16.890625 C 30.578125 -17.703125 29.070312 -18.300781 27.0625 -18.6875 L 17.328125 -20.546875 C 13.304688 -21.316406 10.238281 -22.789062 8.125 -24.96875 C 6.019531 -27.144531 4.96875 -29.953125 4.96875 -33.390625 C 4.96875 -36.503906 5.828125 -39.195312 7.546875 -41.46875 C 9.265625 -43.738281 11.648438 -45.488281 14.703125 -46.71875 C 17.753906 -47.957031 21.257812 -48.578125 25.21875 -48.578125 C 28.070312 -48.578125 30.742188 -48.265625 33.234375 -47.640625 C 35.734375 -47.023438 38.15625 -46.070312 40.5 -44.78125 C 41.46875 -44.257812 42.128906 -43.578125 42.484375 -42.734375 C 42.847656 -41.890625 42.929688 -41.03125 42.734375 -40.15625 C 42.535156 -39.28125 42.144531 -38.5 41.5625 -37.8125 C 40.976562 -37.132812 40.25 -36.710938 39.375 -36.546875 C 38.5 -36.390625 37.507812 -36.570312 36.40625 -37.09375 C 34.394531 -38.125 32.460938 -38.867188 30.609375 -39.328125 C 28.765625 -39.785156 27 -40.015625 25.3125 -40.015625 C 22.132812 -40.015625 19.78125 -39.460938 18.25 -38.359375 C 16.726562 -37.253906 15.96875 -35.789062 15.96875 -33.96875 C 15.96875 -32.601562 16.421875 -31.46875 17.328125 -30.5625 C 18.234375 -29.65625 19.628906 -29.039062 21.515625 -28.71875 L 31.25 -26.859375 C 35.46875 -26.085938 38.660156 -24.660156 40.828125 -22.578125 C 43.003906 -20.503906 44.09375 -17.71875 44.09375 -14.21875 C 44.09375 -9.476562 42.242188 -5.757812 38.546875 -3.0625 C 34.847656 -0.375 29.914062 0.96875 23.75 0.96875 Z M 23.75 0.96875 "/></g></g></g><g fill="#000000" fill-opacity="1"><g transform="translate(156.356655, 97.893775)"><g><path d="M 28.125 0.96875 C 23.914062 0.96875 20.398438 0.253906 17.578125 -1.171875 C 14.753906 -2.597656 12.660156 -4.6875 11.296875 -7.4375 C 9.929688 -10.195312 9.25 -13.625 9.25 -17.71875 L 9.25 -38.453125 L 4.1875 -38.453125 C 2.625 -38.453125 1.421875 -38.859375 0.578125 -39.671875 C -0.265625 -40.484375 -0.6875 -41.601562 -0.6875 -43.03125 C -0.6875 -44.519531 -0.265625 -45.648438 0.578125 -46.421875 C 1.421875 -47.203125 2.625 -47.59375 4.1875 -47.59375 L 9.25 -47.59375 L 9.25 -56.453125 C 9.25 -58.472656 9.78125 -60 10.84375 -61.03125 C 11.914062 -62.070312 13.425781 -62.59375 15.375 -62.59375 C 17.320312 -62.59375 18.816406 -62.070312 19.859375 -61.03125 C 20.898438 -60 21.421875 -58.472656 21.421875 -56.453125 L 21.421875 -47.59375 L 31.734375 -47.59375 C 33.285156 -47.59375 34.484375 -47.203125 35.328125 -46.421875 C 36.171875 -45.648438 36.59375 -44.519531 36.59375 -43.03125 C 36.59375 -41.601562 36.171875 -40.484375 35.328125 -39.671875 C 34.484375 -38.859375 33.285156 -38.453125 31.734375 -38.453125 L 21.421875 -38.453125 L 21.421875 -18.390625 C 21.421875 -15.273438 22.097656 -12.9375 23.453125 -11.375 C 24.816406 -9.820312 27.023438 -9.046875 30.078125 -9.046875 C 31.179688 -9.046875 32.15625 -9.144531 33 -9.34375 C 33.84375 -9.539062 34.585938 -9.671875 35.234375 -9.734375 C 36.015625 -9.796875 36.664062 -9.550781 37.1875 -9 C 37.707031 -8.445312 37.96875 -7.328125 37.96875 -5.640625 C 37.96875 -4.347656 37.753906 -3.195312 37.328125 -2.1875 C 36.910156 -1.1875 36.148438 -0.488281 35.046875 -0.09375 C 34.203125 0.164062 33.097656 0.40625 31.734375 0.625 C 30.367188 0.851562 29.164062 0.96875 28.125 0.96875 Z M 28.125 0.96875 "/></g></g></g><g fill="#000000" fill-opacity="1"><g transform="translate(193.735119, 97.893775)"><g><path d="M 14.109375 0 C 11.972656 0 10.335938 -0.566406 9.203125 -1.703125 C 8.066406 -2.835938 7.5 -4.476562 7.5 -6.625 L 7.5 -62.015625 C 7.5 -64.148438 8.066406 -65.785156 9.203125 -66.921875 C 10.335938 -68.054688 11.972656 -68.625 14.109375 -68.625 L 37.484375 -68.625 C 42.285156 -68.625 46.367188 -67.910156 49.734375 -66.484375 C 53.109375 -65.054688 55.6875 -63.007812 57.46875 -60.34375 C 59.257812 -57.6875 60.15625 -54.507812 60.15625 -50.8125 C 60.15625 -46.65625 58.953125 -43.148438 56.546875 -40.296875 C 54.148438 -37.441406 50.875 -35.53125 46.71875 -34.5625 L 46.71875 -36.015625 C 51.519531 -35.304688 55.25 -33.488281 57.90625 -30.5625 C 60.570312 -27.644531 61.90625 -23.847656 61.90625 -19.171875 C 61.90625 -13.078125 59.84375 -8.359375 55.71875 -5.015625 C 51.601562 -1.671875 45.878906 0 38.546875 0 Z M 19.46875 -9.4375 L 36.984375 -9.4375 C 41.398438 -9.4375 44.644531 -10.296875 46.71875 -12.015625 C 48.800781 -13.734375 49.84375 -16.316406 49.84375 -19.765625 C 49.84375 -23.265625 48.800781 -25.859375 46.71875 -27.546875 C 44.644531 -29.234375 41.398438 -30.078125 36.984375 -30.078125 L 19.46875 -30.078125 Z M 19.46875 -39.515625 L 35.328125 -39.515625 C 39.617188 -39.515625 42.816406 -40.34375 44.921875 -42 C 47.035156 -43.65625 48.09375 -46.109375 48.09375 -49.359375 C 48.09375 -52.597656 47.035156 -55.046875 44.921875 -56.703125 C 42.816406 -58.359375 39.617188 -59.1875 35.328125 -59.1875 L 19.46875 -59.1875 Z M 19.46875 -39.515625 "/></g></g></g><g fill="#000000" fill-opacity="1"><g transform="translate(260.704871, 97.893775)"><g><path d="M 12.5625 0.78125 C 10.550781 0.78125 9.007812 0.242188 7.9375 -0.828125 C 6.863281 -1.898438 6.328125 -3.441406 6.328125 -5.453125 L 6.328125 -42.25 C 6.328125 -44.257812 6.84375 -45.78125 7.875 -46.8125 C 8.914062 -47.851562 10.378906 -48.375 12.265625 -48.375 C 14.148438 -48.375 15.609375 -47.851562 16.640625 -46.8125 C 17.679688 -45.78125 18.203125 -44.257812 18.203125 -42.25 L 18.203125 -36.109375 L 17.234375 -36.109375 C 18.140625 -40.003906 19.921875 -42.957031 22.578125 -44.96875 C 25.242188 -46.976562 28.78125 -48.179688 33.1875 -48.578125 C 34.550781 -48.703125 35.640625 -48.359375 36.453125 -47.546875 C 37.265625 -46.734375 37.734375 -45.484375 37.859375 -43.796875 C 37.992188 -42.179688 37.625 -40.867188 36.75 -39.859375 C 35.875 -38.859375 34.5625 -38.257812 32.8125 -38.0625 L 30.65625 -37.859375 C 26.695312 -37.472656 23.710938 -36.257812 21.703125 -34.21875 C 19.691406 -32.175781 18.6875 -29.300781 18.6875 -25.59375 L 18.6875 -5.453125 C 18.6875 -3.441406 18.164062 -1.898438 17.125 -0.828125 C 16.09375 0.242188 14.570312 0.78125 12.5625 0.78125 Z M 12.5625 0.78125 "/></g></g></g><g fill="#000000" fill-opacity="1"><g transform="translate(298.862051, 97.893775)"><g><path d="M 12.359375 0.6875 C 10.410156 0.6875 8.914062 0.101562 7.875 -1.0625 C 6.84375 -2.238281 6.328125 -3.863281 6.328125 -5.9375 L 6.328125 -41.65625 C 6.328125 -43.800781 6.84375 -45.441406 7.875 -46.578125 C 8.914062 -47.710938 10.410156 -48.28125 12.359375 -48.28125 C 14.304688 -48.28125 15.816406 -47.710938 16.890625 -46.578125 C 17.960938 -45.441406 18.5 -43.800781 18.5 -41.65625 L 18.5 -5.9375 C 18.5 -3.863281 17.976562 -2.238281 16.9375 -1.0625 C 15.894531 0.101562 14.367188 0.6875 12.359375 0.6875 Z M 12.359375 -57.328125 C 10.085938 -57.328125 8.316406 -57.894531 7.046875 -59.03125 C 5.785156 -60.175781 5.15625 -61.753906 5.15625 -63.765625 C 5.15625 -65.835938 5.785156 -67.425781 7.046875 -68.53125 C 8.316406 -69.632812 10.085938 -70.1875 12.359375 -70.1875 C 14.691406 -70.1875 16.472656 -69.632812 17.703125 -68.53125 C 18.941406 -67.425781 19.5625 -65.835938 19.5625 -63.765625 C 19.5625 -61.753906 18.941406 -60.175781 17.703125 -59.03125 C 16.472656 -57.894531 14.691406 -57.328125 12.359375 -57.328125 Z M 12.359375 -57.328125 "/></g></g></g><g fill="#000000" fill-opacity="1"><g transform="translate(323.683705, 97.893775)"><g><path d="M 29.78125 0.96875 C 24.394531 0.96875 19.753906 -0.0351562 15.859375 -2.046875 C 11.972656 -4.054688 8.972656 -6.910156 6.859375 -10.609375 C 4.753906 -14.304688 3.703125 -18.6875 3.703125 -23.75 C 3.703125 -28.6875 4.722656 -33.003906 6.765625 -36.703125 C 8.804688 -40.398438 11.628906 -43.300781 15.234375 -45.40625 C 18.835938 -47.519531 22.941406 -48.578125 27.546875 -48.578125 C 30.921875 -48.578125 33.953125 -48.023438 36.640625 -46.921875 C 39.335938 -45.816406 41.644531 -44.222656 43.5625 -42.140625 C 45.476562 -40.066406 46.9375 -37.550781 47.9375 -34.59375 C 48.945312 -31.644531 49.453125 -28.320312 49.453125 -24.625 C 49.453125 -23.457031 49.046875 -22.566406 48.234375 -21.953125 C 47.421875 -21.335938 46.269531 -21.03125 44.78125 -21.03125 L 13.53125 -21.03125 L 13.53125 -28.03125 L 40.890625 -28.03125 L 39.328125 -26.578125 C 39.328125 -29.554688 38.890625 -32.050781 38.015625 -34.0625 C 37.140625 -36.082031 35.875 -37.625 34.21875 -38.6875 C 32.5625 -39.757812 30.5 -40.296875 28.03125 -40.296875 C 25.3125 -40.296875 22.992188 -39.660156 21.078125 -38.390625 C 19.160156 -37.128906 17.695312 -35.347656 16.6875 -33.046875 C 15.6875 -30.742188 15.1875 -28.003906 15.1875 -24.828125 L 15.1875 -24.140625 C 15.1875 -18.816406 16.4375 -14.84375 18.9375 -12.21875 C 21.4375 -9.59375 25.117188 -8.28125 29.984375 -8.28125 C 31.671875 -8.28125 33.566406 -8.488281 35.671875 -8.90625 C 37.785156 -9.332031 39.78125 -10.0625 41.65625 -11.09375 C 43.019531 -11.875 44.222656 -12.210938 45.265625 -12.109375 C 46.304688 -12.015625 47.132812 -11.644531 47.75 -11 C 48.363281 -10.351562 48.734375 -9.554688 48.859375 -8.609375 C 48.992188 -7.671875 48.816406 -6.710938 48.328125 -5.734375 C 47.835938 -4.765625 47.007812 -3.925781 45.84375 -3.21875 C 43.570312 -1.789062 40.957031 -0.734375 38 -0.046875 C 35.050781 0.628906 32.3125 0.96875 29.78125 0.96875 Z M 29.78125 0.96875 "/></g></g></g><g fill="#000000" fill-opacity="1"><g transform="translate(376.441814, 97.893775)"><g><path d="M 15.671875 0.78125 C 13.722656 0.78125 12.210938 0.242188 11.140625 -0.828125 C 10.078125 -1.898438 9.546875 -3.441406 9.546875 -5.453125 L 9.546875 -38.453125 L 5.0625 -38.453125 C 3.5 -38.453125 2.296875 -38.859375 1.453125 -39.671875 C 0.609375 -40.484375 0.1875 -41.601562 0.1875 -43.03125 C 0.1875 -44.519531 0.609375 -45.648438 1.453125 -46.421875 C 2.296875 -47.203125 3.5 -47.59375 5.0625 -47.59375 L 13.046875 -47.59375 L 9.546875 -44.390625 L 9.546875 -47.703125 C 9.546875 -54.378906 11.226562 -59.390625 14.59375 -62.734375 C 17.96875 -66.078125 22.835938 -68.039062 29.203125 -68.625 L 32.515625 -68.921875 C 33.804688 -69.046875 34.84375 -68.832031 35.625 -68.28125 C 36.40625 -67.726562 36.925781 -67.015625 37.1875 -66.140625 C 37.445312 -65.265625 37.476562 -64.375 37.28125 -63.46875 C 37.082031 -62.5625 36.675781 -61.765625 36.0625 -61.078125 C 35.445312 -60.398438 34.65625 -60.03125 33.6875 -59.96875 L 32.3125 -59.859375 C 28.613281 -59.609375 25.921875 -58.671875 24.234375 -57.046875 C 22.546875 -55.421875 21.703125 -52.953125 21.703125 -49.640625 L 21.703125 -46.046875 L 20.15625 -47.59375 L 29.984375 -47.59375 C 31.535156 -47.59375 32.734375 -47.203125 33.578125 -46.421875 C 34.421875 -45.648438 34.84375 -44.519531 34.84375 -43.03125 C 34.84375 -41.601562 34.421875 -40.484375 33.578125 -39.671875 C 32.734375 -38.859375 31.535156 -38.453125 29.984375 -38.453125 L 21.703125 -38.453125 L 21.703125 -5.453125 C 21.703125 -1.296875 19.691406 0.78125 15.671875 0.78125 Z M 15.671875 0.78125 "/></g></g></g></g></g></g><g clip-path="url(#6e3ad3ee4e)"><g clip-path="url(#709e0e7839)"><g clip-path="url(#1842cb9115)"><path fill="#0372ff" d="M 33.492188 8.417969 L 101.582031 9.316406 C 111.265625 9.476562 119.042969 17.386719 118.882812 27.070312 C 118.722656 36.753906 110.742188 44.476562 101.058594 44.316406 L 33.027344 43.351562 C 26.027344 43.269531 19.644531 46.335938 15.382812 51.167969 L 15.738281 25.722656 L 15.722656 25.59375 C 15.824219 15.980469 23.808594 8.261719 33.492188 8.417969 Z M 33.492188 8.417969 " fill-opacity="1" fill-rule="evenodd"/></g></g></g><g clip-path="url(#d1a1232e4b)"><g clip-path="url(#79a2ae322f)"><g clip-path="url(#31bce5dda7)"><path fill="#0372ff" d="M 32.398438 88.679688 C 42.011719 88.78125 49.730469 96.765625 49.570312 106.445312 C 49.46875 116.058594 41.558594 123.839844 31.875 123.679688 C 22.191406 123.519531 14.410156 115.605469 14.570312 105.921875 C 14.730469 96.238281 22.714844 88.519531 32.398438 88.679688 Z M 32.398438 88.679688 " fill-opacity="1" fill-rule="evenodd"/></g></g></g><g clip-path="url(#24bf079f71)"><g clip-path="url(#14d88a2344)"><g clip-path="url(#36ee968f2d)"><path fill="#0372ff" d="M 68.203125 49.410156 C 77.945312 49.5 85.59375 57.421875 85.4375 67.105469 C 85.40625 76.777344 77.421875 84.5 67.738281 84.339844 L 32.421875 83.910156 C 25.351562 83.773438 18.980469 86.96875 14.8125 92.117188 L 15.191406 66.210938 L 15.117188 66.152344 C 15.28125 56.46875 23.261719 48.75 32.875 48.851562 L 32.945312 48.910156 Z M 68.203125 49.410156 " fill-opacity="1" fill-rule="evenodd"/></g></g></g></svg>