<?xml version="1.0" encoding="UTF-8" standalone="no"?>
<!DOCTYPE svg PUBLIC "-//W3C//DTD SVG 1.1//EN" "http://www.w3.org/Graphics/SVG/1.1/DTD/svg11.dtd">
<svg xmlns="http://www.w3.org/2000/svg" version="1.1" viewBox="0.00 0.00 1891.00 458.00">
<g stroke-width="2.00" fill="none" stroke-linecap="butt">
<path stroke="#ffbfa7" vector-effect="non-scaling-stroke" d="
  M 1169.02 135.05
  L 1152.61 135.16"
/>
<path stroke="#ffbfa7" vector-effect="non-scaling-stroke" d="
  M 229.22 91.83
  A 3.76 3.76 0.0 0 0 225.46 88.07
  L 225.30 88.07
  A 3.76 3.76 0.0 0 0 221.54 91.83
  L 221.54 123.15
  A 3.76 3.76 0.0 0 0 225.30 126.91
  L 225.46 126.91
  A 3.76 3.76 0.0 0 0 229.22 123.15
  L 229.22 91.83"
/>
<path stroke="#ffbfa7" vector-effect="non-scaling-stroke" d="
  M 128.0049 124.3951
  A 3.73 3.73 0.0 0 0 122.7299 124.3951
  L 122.6451 124.4799
  A 3.73 3.73 0.0 0 0 122.6451 129.7549
  L 144.7351 151.8449
  A 3.73 3.73 0.0 0 0 150.0101 151.8449
  L 150.0949 151.7601
  A 3.73 3.73 0.0 0 0 150.0949 146.4851
  L 128.0049 124.3951"
/>
<path stroke="#ffbfa7" vector-effect="non-scaling-stroke" d="
  M 328.1063 129.7976
  A 3.75 3.75 0.0 0 0 328.0970 124.4943
  L 327.9979 124.3955
  A 3.75 3.75 0.0 0 0 322.6946 124.4047
  L 300.7137 146.4624
  A 3.75 3.75 0.0 0 0 300.7230 151.7657
  L 300.8221 151.8645
  A 3.75 3.75 0.0 0 0 306.1254 151.8553
  L 328.1063 129.7976"
/>
<path stroke="#ffbfa7" vector-effect="non-scaling-stroke" d="
  M 271.02 173.75
  C 245.53 152.44 208.24 153.72 182.71 172.25
  C 160.36 188.49 150.26 216.46 157.25 243.25
  C 163.15 265.85 175.54 281.80 188.20 300.04
  Q 195.92 311.17 198.91 324.15
  C 200.76 332.19 199.97 342.06 199.99 350.82
  Q 200.01 358.10 200.80 361.12
  C 202.87 369.02 209.54 375.32 217.08 378.00
  C 234.20 384.09 251.44 371.13 250.95 352.95
  C 250.45 334.60 250.88 318.08 259.79 304.05
  C 267.53 291.86 281.37 275.46 288.80 258.81
  C 302.30 228.56 296.67 195.19 271.02 173.75"
/>
<path stroke="#ffbfa7" vector-effect="non-scaling-stroke" d="
  M 127.91 200.80
  A 3.77 3.77 0.0 0 0 124.14 197.03
  L 92.86 197.03
  A 3.77 3.77 0.0 0 0 89.09 200.80
  L 89.09 200.96
  A 3.77 3.77 0.0 0 0 92.86 204.73
  L 124.14 204.73
  A 3.77 3.77 0.0 0 0 127.91 200.96
  L 127.91 200.80"
/>
<path stroke="#ffbfa7" vector-effect="non-scaling-stroke" d="
  M 361.69 200.80
  A 3.77 3.77 0.0 0 0 357.92 197.03
  L 326.62 197.03
  A 3.77 3.77 0.0 0 0 322.85 200.80
  L 322.85 200.96
  A 3.77 3.77 0.0 0 0 326.62 204.73
  L 357.92 204.73
  A 3.77 3.77 0.0 0 0 361.69 200.96
  L 361.69 200.80"
/>
<path stroke="#ffbfa7" vector-effect="non-scaling-stroke" d="
  M 127.3382 261.5407
  A 3.73 3.73 0.0 0 0 122.2429 260.1754
  L 95.0671 275.8654
  A 3.73 3.73 0.0 0 0 93.7018 280.9607
  L 93.7818 281.0993
  A 3.73 3.73 0.0 0 0 98.8771 282.4646
  L 126.0529 266.7746
  A 3.73 3.73 0.0 0 0 127.4182 261.6793
  L 127.3382 261.5407"
/>
<path stroke="#ffbfa7" vector-effect="non-scaling-stroke" d="
  M 357.0600 280.9851
  A 3.73 3.73 0.0 0 0 355.7036 275.8875
  L 328.5379 260.1401
  A 3.73 3.73 0.0 0 0 323.4402 261.4964
  L 323.3600 261.6349
  A 3.73 3.73 0.0 0 0 324.7164 266.7325
  L 351.8821 282.4799
  A 3.73 3.73 0.0 0 0 356.9798 281.1236
  L 357.0600 280.9851"
/>
<path stroke="#e4e4e0" vector-effect="non-scaling-stroke" d="
  M 1165.66 137.45
  Q 1160.35 137.55 1155.05 137.50
  Q 1154.35 137.49 1154.04 137.78
  Q 1153.60 138.20 1153.76 138.92
  Q 1153.87 139.45 1154.41 139.45
  L 1167.33 139.60
  Q 1167.85 139.61 1167.95 139.10
  Q 1168.28 137.56 1166.80 136.79
  Q 1166.63 136.70 1166.51 136.85
  L 1166.33 137.10
  Q 1166.08 137.44 1165.66 137.45"
/>
<path stroke="#e4e4e0" vector-effect="non-scaling-stroke" d="
  M 1167.9082 141.7313
  A 0.46 0.46 0.0 0 0 1167.4450 141.2745
  L 1154.4053 141.3655
  A 0.46 0.46 0.0 0 0 1153.9486 141.8287
  L 1153.9518 142.2887
  A 0.46 0.46 0.0 0 0 1154.4150 142.7455
  L 1167.4547 142.6545
  A 0.46 0.46 0.0 0 0 1167.9114 142.1913
  L 1167.9082 141.7313"
/>
<path stroke="#e4e4e0" vector-effect="non-scaling-stroke" d="
  M 1154.52 146.63
  L 1167.56 146.35
  A 0.45 0.45 0.0 0 0 1168.00 145.89
  L 1167.99 145.41
  A 1.27 1.20 88.8 0 0 1166.77 144.17
  L 1155.23 144.41
  A 1.27 1.20 88.8 0 0 1154.06 145.71
  L 1154.07 146.19
  A 0.45 0.45 0.0 0 0 1154.52 146.63"
/>
<path stroke="#e4e4e0" vector-effect="non-scaling-stroke" d="
  M 248.46 337.32
  A 3.05 3.05 0.0 0 0 245.41 334.27
  L 205.37 334.27
  A 3.05 3.05 0.0 0 0 202.32 337.32
  L 202.32 337.44
  A 3.05 3.05 0.0 0 0 205.37 340.49
  L 245.41 340.49
  A 3.05 3.05 0.0 0 0 248.46 337.44
  L 248.46 337.32"
/>
<path stroke="#e4e4e0" vector-effect="non-scaling-stroke" d="
  M 248.42 348.31
  A 2.80 2.80 0.0 0 0 245.62 345.51
  L 205.26 345.51
  A 2.80 2.80 0.0 0 0 202.46 348.31
  L 202.46 348.95
  A 2.80 2.80 0.0 0 0 205.26 351.75
  L 245.62 351.75
  A 2.80 2.80 0.0 0 0 248.42 348.95
  L 248.42 348.31"
/>
<path stroke="#e4e4e0" vector-effect="non-scaling-stroke" d="
  M 248.46 359.55
  A 3.05 3.05 0.0 0 0 245.41 356.50
  L 205.53 356.50
  A 3.05 3.05 0.0 0 0 202.48 359.55
  L 202.48 359.69
  A 3.05 3.05 0.0 0 0 205.53 362.74
  L 245.41 362.74
  A 3.05 3.05 0.0 0 0 248.46 359.69
  L 248.46 359.55"
/>
</g>
<path fill="#ff7f4f" d="
  M 14.81 106.91
  C 23.23 61.22 62.94 25.00 110.50 25.00
  Q 225.11 25.00 339.71 24.99
  C 388.52 24.99 429.29 61.56 436.65 109.13
  Q 437.74 116.20 437.74 129.06
  Q 437.75 233.28 437.76 337.51
  Q 437.76 350.83 436.85 357.47
  C 430.35 404.94 389.18 443.03 340.56 443.01
  Q 225.71 442.98 110.84 443.01
  C 63.58 443.02 23.21 407.23 15.05 361.41
  Q 13.74 354.08 13.74 341.50
  Q 13.76 230.12 13.73 118.75
  Q 13.73 112.77 14.81 106.91
  Z
  M 229.22 91.83
  A 3.76 3.76 0.0 0 0 225.46 88.07
  L 225.30 88.07
  A 3.76 3.76 0.0 0 0 221.54 91.83
  L 221.54 123.15
  A 3.76 3.76 0.0 0 0 225.30 126.91
  L 225.46 126.91
  A 3.76 3.76 0.0 0 0 229.22 123.15
  L 229.22 91.83
  Z
  M 128.0049 124.3951
  A 3.73 3.73 0.0 0 0 122.7299 124.3951
  L 122.6451 124.4799
  A 3.73 3.73 0.0 0 0 122.6451 129.7549
  L 144.7351 151.8449
  A 3.73 3.73 0.0 0 0 150.0101 151.8449
  L 150.0949 151.7601
  A 3.73 3.73 0.0 0 0 150.0949 146.4851
  L 128.0049 124.3951
  Z
  M 328.1063 129.7976
  A 3.75 3.75 0.0 0 0 328.0970 124.4943
  L 327.9979 124.3955
  A 3.75 3.75 0.0 0 0 322.6946 124.4047
  L 300.7137 146.4624
  A 3.75 3.75 0.0 0 0 300.7230 151.7657
  L 300.8221 151.8645
  A 3.75 3.75 0.0 0 0 306.1254 151.8553
  L 328.1063 129.7976
  Z
  M 271.02 173.75
  C 245.53 152.44 208.24 153.72 182.71 172.25
  C 160.36 188.49 150.26 216.46 157.25 243.25
  C 163.15 265.85 175.54 281.80 188.20 300.04
  Q 195.92 311.17 198.91 324.15
  C 200.76 332.19 199.97 342.06 199.99 350.82
  Q 200.01 358.10 200.80 361.12
  C 202.87 369.02 209.54 375.32 217.08 378.00
  C 234.20 384.09 251.44 371.13 250.95 352.95
  C 250.45 334.60 250.88 318.08 259.79 304.05
  C 267.53 291.86 281.37 275.46 288.80 258.81
  C 302.30 228.56 296.67 195.19 271.02 173.75
  Z
  M 127.91 200.80
  A 3.77 3.77 0.0 0 0 124.14 197.03
  L 92.86 197.03
  A 3.77 3.77 0.0 0 0 89.09 200.80
  L 89.09 200.96
  A 3.77 3.77 0.0 0 0 92.86 204.73
  L 124.14 204.73
  A 3.77 3.77 0.0 0 0 127.91 200.96
  L 127.91 200.80
  Z
  M 361.69 200.80
  A 3.77 3.77 0.0 0 0 357.92 197.03
  L 326.62 197.03
  A 3.77 3.77 0.0 0 0 322.85 200.80
  L 322.85 200.96
  A 3.77 3.77 0.0 0 0 326.62 204.73
  L 357.92 204.73
  A 3.77 3.77 0.0 0 0 361.69 200.96
  L 361.69 200.80
  Z
  M 127.3382 261.5407
  A 3.73 3.73 0.0 0 0 122.2429 260.1754
  L 95.0671 275.8654
  A 3.73 3.73 0.0 0 0 93.7018 280.9607
  L 93.7818 281.0993
  A 3.73 3.73 0.0 0 0 98.8771 282.4646
  L 126.0529 266.7746
  A 3.73 3.73 0.0 0 0 127.4182 261.6793
  L 127.3382 261.5407
  Z
  M 357.0600 280.9851
  A 3.73 3.73 0.0 0 0 355.7036 275.8875
  L 328.5379 260.1401
  A 3.73 3.73 0.0 0 0 323.4402 261.4964
  L 323.3600 261.6349
  A 3.73 3.73 0.0 0 0 324.7164 266.7325
  L 351.8821 282.4799
  A 3.73 3.73 0.0 0 0 356.9798 281.1236
  L 357.0600 280.9851
  Z"
/>
<rect fill="#ff7f4f" x="-1.24" y="-6.12" transform="translate(1160.77,66.12) rotate(0.1)" width="2.48" height="12.24" rx="1.19"/>
<rect fill="#ff7f4f" x="-1.24" y="-6.10" transform="translate(1132.79,75.67) rotate(-44.9)" width="2.48" height="12.20" rx="1.19"/>
<rect fill="#ff7f4f" x="-1.17" y="-6.07" transform="translate(1188.85,75.62) rotate(44.8)" width="2.34" height="12.14" rx="0.99"/>
<path fill="#ff7f4f" d="
  M 1169.02 135.05
  L 1152.61 135.16
  C 1149.43 123.05 1136.62 114.71 1139.06 100.11
  C 1141.70 84.29 1161.64 76.69 1174.25 86.17
  C 1185.43 94.58 1185.17 108.35 1177.86 119.14
  C 1174.28 124.42 1170.85 128.88 1169.02 135.05
  Z"
/>
<rect fill="#ffffff" x="221.54" y="88.07" width="7.68" height="38.84" rx="3.76"/>
<rect fill="#ff7f4f" x="-6.00" y="-1.25" transform="translate(1124.00,95.49) rotate(0.2)" width="12.00" height="2.50" rx="1.20"/>
<rect fill="#ff7f4f" x="-5.98" y="-1.25" transform="translate(1197.53,95.50) rotate(0.1)" width="11.96" height="2.50" rx="1.21"/>
<rect fill="#ff7f4f" x="-6.07" y="-1.21" transform="translate(1124.63,117.69) rotate(-29.8)" width="12.14" height="2.42" rx="1.17"/>
<rect fill="#ff7f4f" x="-6.04" y="-1.22" transform="translate(1196.92,117.65) rotate(29.8)" width="12.08" height="2.44" rx="1.07"/>
<rect fill="#ffffff" x="-3.79" y="-19.35" transform="translate(136.37,138.12) rotate(-45.0)" width="7.58" height="38.70" rx="3.73"/>
<rect fill="#ffffff" x="-3.82" y="-19.32" transform="translate(314.41,138.13) rotate(44.9)" width="7.64" height="38.64" rx="3.75"/>
<path fill="#ffffff" d="
  M 1169.02 135.05
  C 1169.02 139.14 1169.73 144.91 1167.70 148.22
  C 1165.04 152.58 1157.76 153.16 1154.66 149.11
  C 1152.07 145.73 1152.60 139.58 1152.61 135.16
  L 1169.02 135.05
  Z
  M 1165.66 137.45
  Q 1160.35 137.55 1155.05 137.50
  Q 1154.35 137.49 1154.04 137.78
  Q 1153.60 138.20 1153.76 138.92
  Q 1153.87 139.45 1154.41 139.45
  L 1167.33 139.60
  Q 1167.85 139.61 1167.95 139.10
  Q 1168.28 137.56 1166.80 136.79
  Q 1166.63 136.70 1166.51 136.85
  L 1166.33 137.10
  Q 1166.08 137.44 1165.66 137.45
  Z
  M 1167.9082 141.7313
  A 0.46 0.46 0.0 0 0 1167.4450 141.2745
  L 1154.4053 141.3655
  A 0.46 0.46 0.0 0 0 1153.9486 141.8287
  L 1153.9518 142.2887
  A 0.46 0.46 0.0 0 0 1154.4150 142.7455
  L 1167.4547 142.6545
  A 0.46 0.46 0.0 0 0 1167.9114 142.1913
  L 1167.9082 141.7313
  Z
  M 1154.52 146.63
  L 1167.56 146.35
  A 0.45 0.45 0.0 0 0 1168.00 145.89
  L 1167.99 145.41
  A 1.27 1.20 88.8 0 0 1166.77 144.17
  L 1155.23 144.41
  A 1.27 1.20 88.8 0 0 1154.06 145.71
  L 1154.07 146.19
  A 0.45 0.45 0.0 0 0 1154.52 146.63
  Z"
/>
<path fill="#c8c8c1" d="
  M 1166.33 137.10
  L 1166.51 136.85
  Q 1166.63 136.70 1166.80 136.79
  Q 1168.28 137.56 1167.95 139.10
  Q 1167.85 139.61 1167.33 139.60
  L 1154.41 139.45
  Q 1153.87 139.45 1153.76 138.92
  Q 1153.60 138.20 1154.04 137.78
  Q 1154.35 137.49 1155.05 137.50
  Q 1160.35 137.55 1165.66 137.45
  Q 1166.08 137.44 1166.33 137.10
  Z"
/>
<rect fill="#c8c8c1" x="-6.98" y="-0.69" transform="translate(1160.93,142.01) rotate(-0.4)" width="13.96" height="1.38" rx="0.46"/>
<path fill="#c8c8c1" d="
  M 1154.52 146.63
  A 0.45 0.45 0.0 0 1 1154.07 146.19
  L 1154.06 145.71
  A 1.27 1.20 88.8 0 1 1155.23 144.41
  L 1166.77 144.17
  A 1.27 1.20 88.8 0 1 1167.99 145.41
  L 1168.00 145.89
  A 0.45 0.45 0.0 0 1 1167.56 146.35
  L 1154.52 146.63
  Z"
/>
<path fill="#ffffff" d="
  M 1660.88 281.66
  C 1650.26 298.44 1632.31 305.62 1613.00 303.78
  C 1577.84 300.43 1559.02 269.23 1565.14 235.78
  C 1570.66 205.58 1597.45 188.55 1627.24 192.83
  Q 1648.28 195.85 1660.07 213.14
  A 0.24 0.24 0.0 0 0 1660.51 213.01
  L 1660.50 148.25
  A 0.50 0.50 0.0 0 1 1661.00 147.75
  L 1675.00 147.75
  Q 1675.50 147.75 1675.50 148.25
  L 1675.50 302.50
  A 0.50 0.50 0.0 0 1 1675.00 303.00
  L 1662.00 303.00
  A 0.75 0.75 0.0 0 1 1661.25 302.25
  L 1661.25 281.76
  Q 1661.25 281.07 1660.88 281.66
  Z
  M 1580.11 237.34
  C 1574.11 265.73 1592.66 293.57 1623.34 290.78
  C 1650.88 288.28 1665.30 263.23 1659.65 237.07
  C 1650.38 194.14 1589.19 194.43 1580.11 237.34
  Z"
/>
<ellipse fill="#ffffff" cx="0.00" cy="0.00" transform="translate(1724.27,158.23) rotate(-4.6)" rx="10.83" ry="10.54"/>
<path fill="#ffffff" d="
  M 1230.94 183.96
  C 1227.19 190.91 1227.02 200.67 1232.04 207.23
  C 1237.24 214.02 1245.85 217.24 1253.79 219.40
  Q 1276.37 225.52 1286.74 228.51
  C 1301.67 232.80 1315.47 241.50 1317.92 258.28
  C 1321.47 282.64 1304.02 298.56 1281.58 302.58
  C 1257.38 306.91 1228.78 302.74 1209.98 285.89
  A 1.17 1.16 -55.8 0 1 1209.72 284.51
  L 1215.10 273.81
  A 0.45 0.45 0.0 0 1 1215.80 273.68
  C 1234.02 289.97 1261.87 294.89 1284.80 288.10
  C 1296.30 284.70 1304.34 274.30 1302.93 262.28
  C 1301.59 250.80 1290.95 244.71 1280.75 241.74
  Q 1268.27 238.09 1255.68 234.82
  C 1234.22 229.24 1211.44 220.81 1212.98 193.74
  C 1214.19 172.54 1230.38 160.20 1249.98 156.69
  C 1271.14 152.89 1293.63 156.41 1311.91 167.93
  A 0.60 0.60 0.0 0 1 1312.14 168.66
  L 1307.30 180.05
  A 0.48 0.48 0.0 0 1 1306.60 180.27
  Q 1280.79 164.19 1251.25 169.98
  C 1243.15 171.57 1234.87 176.69 1230.94 183.96
  Z"
/>
<path fill="#ffffff" d="
  M 182.71 172.25
  C 208.24 153.72 245.53 152.44 271.02 173.75
  C 296.67 195.19 302.30 228.56 288.80 258.81
  C 281.37 275.46 267.53 291.86 259.79 304.05
  C 250.88 318.08 250.45 334.60 250.95 352.95
  C 251.44 371.13 234.20 384.09 217.08 378.00
  C 209.54 375.32 202.87 369.02 200.80 361.12
  Q 200.01 358.10 199.99 350.82
  C 199.97 342.06 200.76 332.19 198.91 324.15
  Q 195.92 311.17 188.20 300.04
  C 175.54 281.80 163.15 265.85 157.25 243.25
  C 150.26 216.46 160.36 188.49 182.71 172.25
  Z
  M 248.46 337.32
  A 3.05 3.05 0.0 0 0 245.41 334.27
  L 205.37 334.27
  A 3.05 3.05 0.0 0 0 202.32 337.32
  L 202.32 337.44
  A 3.05 3.05 0.0 0 0 205.37 340.49
  L 245.41 340.49
  A 3.05 3.05 0.0 0 0 248.46 337.44
  L 248.46 337.32
  Z
  M 248.42 348.31
  A 2.80 2.80 0.0 0 0 245.62 345.51
  L 205.26 345.51
  A 2.80 2.80 0.0 0 0 202.46 348.31
  L 202.46 348.95
  A 2.80 2.80 0.0 0 0 205.26 351.75
  L 245.62 351.75
  A 2.80 2.80 0.0 0 0 248.42 348.95
  L 248.42 348.31
  Z
  M 248.46 359.55
  A 3.05 3.05 0.0 0 0 245.41 356.50
  L 205.53 356.50
  A 3.05 3.05 0.0 0 0 202.48 359.55
  L 202.48 359.69
  A 3.05 3.05 0.0 0 0 205.53 362.74
  L 245.41 362.74
  A 3.05 3.05 0.0 0 0 248.46 359.69
  L 248.46 359.55
  Z"
/>
<path fill="#ffffff" d="
  M 567.49 196.14
  L 567.50 302.61
  A 0.39 0.39 0.0 0 1 567.11 303.00
  L 521.63 303.00
  A 0.39 0.39 0.0 0 1 521.24 302.61
  L 521.25 196.14
  A 0.39 0.39 0.0 0 0 520.86 195.75
  L 474.14 195.75
  A 0.39 0.39 0.0 0 1 473.75 195.36
  L 473.75 159.39
  A 0.39 0.39 0.0 0 1 474.14 159.00
  L 614.11 159.00
  A 0.39 0.39 0.0 0 1 614.50 159.39
  L 614.50 195.36
  A 0.39 0.39 0.0 0 1 614.11 195.75
  L 567.88 195.75
  A 0.39 0.39 0.0 0 0 567.49 196.14
  Z"
/>
<path fill="#ffffff" d="
  M 682.17 213.50
  L 748.33 213.50
  A 0.42 0.42 0.0 0 1 748.75 213.92
  L 748.75 246.08
  A 0.42 0.42 0.0 0 1 748.33 246.50
  L 682.17 246.50
  A 0.42 0.42 0.0 0 0 681.75 246.92
  L 681.75 268.08
  A 0.42 0.42 0.0 0 0 682.17 268.50
  L 761.08 268.50
  A 0.42 0.42 0.0 0 1 761.50 268.92
  L 761.50 302.58
  A 0.42 0.42 0.0 0 1 761.08 303.00
  L 635.92 303.00
  A 0.42 0.42 0.0 0 1 635.50 302.58
  L 635.50 159.42
  A 0.42 0.42 0.0 0 1 635.92 159.00
  L 759.58 159.00
  A 0.42 0.42 0.0 0 1 760.00 159.42
  L 760.00 193.08
  A 0.42 0.42 0.0 0 1 759.58 193.50
  L 682.17 193.50
  A 0.42 0.42 0.0 0 0 681.75 193.92
  L 681.75 213.08
  A 0.42 0.42 0.0 0 0 682.17 213.50
  Z"
/>
<path fill="#ffffff" d="
  M 890.10 218.44
  L 942.39 302.45
  A 0.36 0.36 0.0 0 1 942.08 303.00
  L 888.28 303.00
  A 0.36 0.36 0.0 0 1 887.97 302.82
  L 858.36 250.60
  A 0.36 0.36 0.0 0 0 857.82 250.50
  L 833.13 270.66
  A 0.36 0.36 0.0 0 0 833.00 270.94
  L 833.00 302.64
  A 0.36 0.36 0.0 0 1 832.64 303.00
  L 787.11 303.00
  A 0.36 0.36 0.0 0 1 786.75 302.64
  L 786.75 159.36
  A 0.36 0.36 0.0 0 1 787.11 159.00
  L 832.64 159.00
  A 0.36 0.36 0.0 0 1 833.00 159.36
  L 833.00 219.54
  A 0.36 0.36 0.0 0 0 833.64 219.77
  L 884.18 159.13
  A 0.36 0.36 0.0 0 1 884.46 159.00
  L 940.86 159.00
  A 0.36 0.36 0.0 0 1 941.13 159.60
  L 890.14 218.01
  A 0.36 0.36 0.0 0 0 890.10 218.44
  Z"
/>
<path fill="#ffffff" d="
  M 1007.85 219.82
  L 1058.43 159.12
  A 0.34 0.34 0.0 0 1 1058.69 159.00
  L 1115.14 159.00
  A 0.34 0.34 0.0 0 1 1115.40 159.56
  L 1064.38 218.02
  A 0.34 0.34 0.0 0 0 1064.34 218.42
  L 1116.67 302.48
  A 0.34 0.34 0.0 0 1 1116.38 303.00
  L 1062.53 303.00
  A 0.34 0.34 0.0 0 1 1062.23 302.83
  L 1032.59 250.58
  A 0.34 0.34 0.0 0 0 1032.08 250.48
  L 1007.37 270.66
  A 0.34 0.34 0.0 0 0 1007.25 270.92
  L 1007.25 302.66
  A 0.34 0.34 0.0 0 1 1006.91 303.00
  L 961.34 303.00
  A 0.34 0.34 0.0 0 1 961.00 302.66
  L 961.00 159.34
  A 0.34 0.34 0.0 0 1 961.34 159.00
  L 1006.91 159.00
  A 0.34 0.34 0.0 0 1 1007.25 159.34
  L 1007.25 219.60
  A 0.34 0.34 0.0 0 0 1007.85 219.82
  Z"
/>
<rect fill="#ffffff" x="1137.50" y="159.00" width="46.26" height="144.00" rx="0.26"/>
<path fill="#ffffff" d="
  M 1350.98 205.50
  L 1332.25 205.50
  Q 1331.75 205.50 1331.75 205.00
  L 1331.75 193.60
  Q 1331.75 192.96 1332.39 192.96
  L 1350.87 193.02
  Q 1351.50 193.02 1351.50 192.38
  L 1351.50 169.50
  Q 1351.50 168.75 1352.25 168.75
  L 1365.62 168.75
  Q 1366.25 168.75 1366.25 169.37
  L 1366.25 192.25
  A 0.75 0.75 0.0 0 0 1367.00 193.00
  L 1399.25 193.00
  Q 1399.75 193.00 1399.75 193.50
  L 1399.75 205.00
  Q 1399.75 205.50 1399.25 205.50
  L 1366.78 205.50
  Q 1366.31 205.50 1366.31 205.97
  Q 1366.10 236.74 1366.36 267.48
  Q 1366.45 277.52 1367.99 281.26
  C 1373.34 294.23 1391.37 293.10 1401.19 286.03
  Q 1401.72 285.64 1402.01 286.23
  L 1406.71 295.75
  Q 1406.95 296.25 1406.53 296.60
  C 1398.42 303.44 1386.02 305.16 1375.99 303.37
  C 1358.55 300.25 1351.50 287.90 1351.51 271.10
  Q 1351.53 238.56 1351.48 206.00
  Q 1351.48 205.50 1350.98 205.50
  Z"
/>
<path fill="#ffffff" d="
  M 1806.77 302.92
  C 1753.70 293.30 1745.92 218.33 1794.12 197.06
  Q 1813.39 188.55 1834.51 194.20
  C 1865.86 202.60 1880.31 235.12 1871.67 265.09
  C 1863.38 293.80 1835.57 308.15 1806.77 302.92
  Z
  M 1781.01 228.75
  C 1770.08 254.53 1782.82 288.23 1813.91 290.56
  Q 1837.35 292.31 1850.01 275.98
  C 1862.99 259.22 1862.16 231.35 1846.86 216.21
  C 1827.34 196.89 1791.80 203.30 1781.01 228.75
  Z"
/>
<path fill="#ffffff" d="
  M 1518.39 283.64
  C 1506.44 302.58 1484.24 307.39 1463.50 302.01
  C 1442.74 296.63 1433.09 278.96 1433.03 257.97
  Q 1432.94 225.69 1433.03 193.40
  Q 1433.03 192.95 1433.48 192.95
  L 1447.26 193.02
  Q 1447.75 193.03 1447.75 193.51
  Q 1447.74 224.15 1447.78 254.75
  C 1447.81 278.09 1460.08 292.03 1484.00 290.66
  C 1508.04 289.27 1518.18 271.46 1518.23 249.45
  Q 1518.28 221.47 1518.24 193.52
  A 0.50 0.50 0.0 0 1 1518.74 193.02
  L 1532.74 192.97
  Q 1533.25 192.97 1533.25 193.48
  L 1533.25 302.25
  Q 1533.25 303.00 1532.50 303.00
  L 1519.75 303.00
  Q 1519.00 303.00 1519.00 302.25
  L 1519.00 283.82
  A 0.33 0.33 0.0 0 0 1518.39 283.64
  Z"
/>
<rect fill="#ffffff" x="1716.75" y="192.97" width="14.76" height="110.02" rx="0.44"/>
<rect fill="#ffffff" x="89.09" y="197.03" width="38.82" height="7.70" rx="3.77"/>
<rect fill="#ffffff" x="322.85" y="197.03" width="38.84" height="7.70" rx="3.77"/>
<rect fill="#ffffff" x="-19.42" y="-3.81" transform="translate(110.56,271.32) rotate(-30.0)" width="38.84" height="7.62" rx="3.73"/>
<rect fill="#ffffff" x="-19.43" y="-3.81" transform="translate(340.21,271.31) rotate(30.1)" width="38.86" height="7.62" rx="3.73"/>
<rect fill="#c8c8c1" x="202.32" y="334.27" width="46.14" height="6.22" rx="3.05"/>
<rect fill="#c8c8c1" x="202.46" y="345.51" width="45.96" height="6.24" rx="2.80"/>
<rect fill="#c8c8c1" x="202.48" y="356.50" width="45.98" height="6.24" rx="3.05"/>
</svg>
