<svg xmlns="http://www.w3.org/2000/svg" xmlns:xlink="http://www.w3.org/1999/xlink" width="1885" zoomAndPan="magnify" viewBox="0 0 1413.75 348.749987" height="465" preserveAspectRatio="xMidYMid meet" version="1.0"><path stroke-linecap="butt" transform="matrix(0.749463, 0, 0, 0.749463, 0.381474, -0.868695)" fill="none" stroke-linejoin="miter" d="M 1166.921115 134.989344 L 1150.680313 135.119645 " stroke="#ffbfa7" stroke-width="2" stroke-opacity="1" stroke-miterlimit="4"/><path stroke-linecap="butt" transform="matrix(0.749463, 0, 0, 0.749463, 0.381474, -0.868695)" fill="none" stroke-linejoin="miter" d="M 227.232285 91.828214 C 227.232285 91.333068 227.133256 90.853557 226.945621 90.389683 C 226.752775 89.931022 226.481747 89.52448 226.127327 89.17006 C 225.778118 88.820851 225.371577 88.544612 224.907703 88.356977 C 224.449041 88.164131 223.969531 88.070313 223.469172 88.070313 L 223.291962 88.070313 C 222.791603 88.070313 222.312093 88.164131 221.853431 88.356977 C 221.389557 88.544612 220.983016 88.820851 220.633808 89.17006 C 220.279387 89.52448 220.00836 89.931022 219.815513 90.389683 C 219.627879 90.853557 219.528849 91.333068 219.528849 91.828214 L 219.528849 123.147527 C 219.528849 123.647885 219.627879 124.127395 219.815513 124.591269 C 220.00836 125.049931 220.279387 125.456472 220.633808 125.810893 C 220.983016 126.160101 221.389557 126.431129 221.853431 126.623975 C 222.312093 126.816822 222.791603 126.910639 223.291962 126.910639 L 223.469172 126.910639 C 223.969531 126.910639 224.449041 126.816822 224.907703 126.623975 C 225.371577 126.431129 225.778118 126.160101 226.127327 125.810893 C 226.481747 125.456472 226.752775 125.049931 226.945621 124.591269 C 227.133256 124.127395 227.232285 123.647885 227.232285 123.147527 L 227.232285 91.828214 " stroke="#ffbfa7" stroke-width="2" stroke-opacity="1" stroke-miterlimit="4"/><path stroke-linecap="butt" transform="matrix(0.749463, 0, 0, 0.749463, 0.381474, -0.868695)" fill="none" stroke-linejoin="miter" d="M 126.013937 124.403635 C 125.664729 124.054426 125.258188 123.783399 124.799526 123.595764 C 124.346076 123.402918 123.866566 123.309101 123.376631 123.309101 C 122.881485 123.309101 122.401975 123.402918 121.948525 123.595764 C 121.489863 123.783399 121.088534 124.054426 120.739325 124.403635 L 120.65072 124.487028 C 120.301512 124.836236 120.030484 125.237566 119.84285 125.696227 C 119.655215 126.154889 119.561398 126.629188 119.561398 127.124334 C 119.561398 127.61948 119.655215 128.093778 119.84285 128.55244 C 120.030484 129.011102 120.301512 129.412431 120.65072 129.76164 L 142.729037 151.839957 C 143.078246 152.189166 143.479575 152.454981 143.938237 152.647828 C 144.396899 152.835462 144.871197 152.929279 145.366343 152.929279 C 145.86149 152.929279 146.335788 152.835462 146.79445 152.647828 C 147.2479 152.454981 147.654441 152.189166 148.003649 151.839957 L 148.087043 151.751352 C 148.436251 151.402144 148.707279 151.000814 148.894913 150.542152 C 149.087759 150.083491 149.181577 149.609192 149.181577 149.114046 C 149.181577 148.6189 149.087759 148.144601 148.894913 147.68594 C 148.707279 147.23249 148.436251 146.825948 148.087043 146.47674 L 126.013937 124.403635 " stroke="#ffbfa7" stroke-width="2" stroke-opacity="1" stroke-miterlimit="4"/><path stroke-linecap="butt" transform="matrix(0.749463, 0, 0, 0.749463, 0.381474, -0.868695)" fill="none" stroke-linejoin="miter" d="M 326.110414 129.808549 C 326.459623 129.454128 326.73065 129.052799 326.923497 128.594137 C 327.111131 128.135475 327.204948 127.661177 327.204948 127.160818 C 327.204948 126.665672 327.111131 126.191374 326.923497 125.732712 C 326.73065 125.27405 326.459623 124.867509 326.110414 124.5183 L 326.011385 124.419271 C 325.662176 124.070062 325.255635 123.799035 324.796973 123.606189 C 324.338311 123.418554 323.864013 123.324737 323.368867 123.324737 C 322.87372 123.324737 322.39421 123.418554 321.935548 123.606189 C 321.476886 123.799035 321.075557 124.070062 320.721136 124.419271 L 298.689728 146.45068 C 298.340519 146.8051 298.069492 147.206429 297.876645 147.665091 C 297.689011 148.123753 297.595194 148.603263 297.595194 149.09841 C 297.595194 149.593556 297.689011 150.067854 297.876645 150.526516 C 298.069492 150.985178 298.340519 151.391719 298.689728 151.740928 L 298.788757 151.839957 C 299.137966 152.189166 299.544507 152.460193 300.003169 152.65304 C 300.461831 152.840674 300.936129 152.934491 301.431275 152.934491 C 301.926422 152.934491 302.405932 152.840674 302.864594 152.65304 C 303.323256 152.460193 303.724585 152.189166 304.079005 151.839957 L 326.110414 129.808549 " stroke="#ffbfa7" stroke-width="2" stroke-opacity="1" stroke-miterlimit="4"/><path stroke-linecap="butt" transform="matrix(0.749463, 0, 0, 0.749463, 0.381474, -0.868695)" fill="none" stroke-linejoin="miter" d="M 292.51864 240.231407 C 301.67103 191.978088 261.522476 151.261418 213.258732 159.001338 C 173.537567 165.380908 144.610594 201.771562 154.961759 242.258901 C 160.960849 265.760113 173.808595 282.058247 186.718886 301.019748 C 191.524412 308.082099 194.912255 315.702142 196.882417 323.8903 C 198.779609 331.760521 197.971739 341.272544 197.997799 349.742153 C 198.029072 356.132148 198.565915 360.703131 199.608328 363.449891 C 208.130058 385.752327 241.419532 384.251251 248.007585 360.989795 C 248.716426 358.488002 249.018726 354.787435 248.909273 349.877667 C 248.49752 331.468645 249.618114 315.451963 259.672192 301.170898 C 273.291324 281.797644 287.989354 264.170432 292.51864 240.231407 " stroke="#ffbfa7" stroke-width="2" stroke-opacity="1" stroke-miterlimit="4"/><path stroke-linecap="butt" transform="matrix(0.749463, 0, 0, 0.749463, 0.381474, -0.868695)" fill="none" stroke-linejoin="miter" d="M 125.909696 200.802118 C 125.909696 200.301759 125.815879 199.817037 125.623032 199.358375 C 125.430186 198.894501 125.159158 198.48796 124.804738 198.133539 C 124.450317 197.779119 124.043776 197.508091 123.585114 197.315245 C 123.12124 197.12761 122.64173 197.028581 122.141371 197.028581 L 90.858543 197.028581 C 90.358185 197.028581 89.878675 197.12761 89.414801 197.315245 C 88.956139 197.508091 88.549598 197.779119 88.195177 198.133539 C 87.840756 198.48796 87.569729 198.894501 87.376882 199.358375 C 87.184036 199.817037 87.090219 200.301759 87.090219 200.802118 L 87.090219 200.95848 C 87.090219 201.458838 87.184036 201.938348 87.376882 202.402222 C 87.569729 202.866096 87.840756 203.272638 88.195177 203.627058 C 88.549598 203.981479 88.956139 204.252506 89.414801 204.445353 C 89.878675 204.632987 90.358185 204.732016 90.858543 204.732016 L 122.141371 204.732016 C 122.64173 204.732016 123.12124 204.632987 123.585114 204.445353 C 124.043776 204.252506 124.450317 203.981479 124.804738 203.627058 C 125.159158 203.272638 125.430186 202.866096 125.623032 202.402222 C 125.815879 201.938348 125.909696 201.458838 125.909696 200.95848 L 125.909696 200.802118 " stroke="#ffbfa7" stroke-width="2" stroke-opacity="1" stroke-miterlimit="4"/><path stroke-linecap="butt" transform="matrix(0.749463, 0, 0, 0.749463, 0.381474, -0.868695)" fill="none" stroke-linejoin="miter" d="M 359.691764 200.802118 C 359.691764 200.301759 359.592735 199.817037 359.4051 199.358375 C 359.212254 198.894501 358.941226 198.48796 358.586806 198.133539 C 358.232385 197.779119 357.825844 197.508091 357.36197 197.315245 C 356.903308 197.12761 356.418586 197.028581 355.918227 197.028581 L 324.619763 197.028581 C 324.119404 197.028581 323.639894 197.12761 323.17602 197.315245 C 322.717358 197.508091 322.305605 197.779119 321.956396 198.133539 C 321.601976 198.48796 321.325736 198.894501 321.138102 199.358375 C 320.945255 199.817037 320.851438 200.301759 320.851438 200.802118 L 320.851438 200.95848 C 320.851438 201.458838 320.945255 201.938348 321.138102 202.402222 C 321.325736 202.866096 321.601976 203.272638 321.956396 203.627058 C 322.305605 203.981479 322.717358 204.252506 323.17602 204.445353 C 323.639894 204.632987 324.119404 204.732016 324.619763 204.732016 L 355.918227 204.732016 C 356.418586 204.732016 356.903308 204.632987 357.36197 204.445353 C 357.825844 204.252506 358.232385 203.981479 358.586806 203.627058 C 358.941226 203.272638 359.212254 202.866096 359.4051 202.402222 C 359.592735 201.938348 359.691764 201.458838 359.691764 200.95848 L 359.691764 200.802118 " stroke="#ffbfa7" stroke-width="2" stroke-opacity="1" stroke-miterlimit="4"/><path stroke-linecap="butt" transform="matrix(0.749463, 0, 0, 0.749463, 0.381474, -0.868695)" fill="none" stroke-linejoin="miter" d="M 125.325945 261.559186 C 125.075765 261.131797 124.757829 260.772164 124.366924 260.469864 C 123.976019 260.167564 123.543418 259.95387 123.063907 259.82878 C 122.589609 259.698478 122.104887 259.667206 121.614953 259.734963 C 121.125018 259.797508 120.671568 259.95387 120.244179 260.198837 L 93.120581 275.861099 C 92.693191 276.106066 92.328346 276.424002 92.026046 276.814907 C 91.728959 277.205813 91.510052 277.643626 91.384962 278.117924 C 91.25466 278.592222 91.223388 279.076945 91.291145 279.566879 C 91.35369 280.056813 91.510052 280.515475 91.755019 280.942865 L 91.838412 281.078379 C 92.083379 281.505768 92.401315 281.870613 92.79222 282.172913 C 93.183125 282.470001 93.620939 282.683695 94.095237 282.813997 C 94.569535 282.939087 95.054258 282.970359 95.544192 282.907814 C 96.034126 282.845269 96.492788 282.688907 96.920178 282.438728 L 124.043776 266.781678 C 124.471166 266.536711 124.830798 266.213563 125.133098 265.822657 C 125.435398 265.431752 125.649093 264.999151 125.774182 264.519641 C 125.904484 264.045343 125.935756 263.56062 125.868 263.075898 C 125.805455 262.585964 125.649093 262.127302 125.404126 261.699912 L 125.325945 261.559186 " stroke="#ffbfa7" stroke-width="2" stroke-opacity="1" stroke-miterlimit="4"/><path stroke-linecap="butt" transform="matrix(0.749463, 0, 0, 0.749463, 0.381474, -0.868695)" fill="none" stroke-linejoin="miter" d="M 355.06866 280.932441 C 355.313627 280.510263 355.464777 280.056813 355.532534 279.577303 C 355.595079 279.092581 355.563806 278.613071 355.438717 278.143985 C 355.308415 277.669687 355.099932 277.242297 354.802845 276.856604 C 354.505757 276.465699 354.146124 276.152975 353.723947 275.908008 L 326.527379 260.209261 C 326.105202 259.964294 325.651752 259.807932 325.16703 259.745387 C 324.68752 259.682842 324.208009 259.714115 323.733711 259.839204 C 323.264625 259.964294 322.837236 260.177989 322.446331 260.475076 C 322.060638 260.772164 321.747914 261.131797 321.502947 261.553974 L 321.393493 261.746821 C 321.148526 262.168998 320.992164 262.622448 320.929619 263.10717 C 320.867074 263.586681 320.898347 264.066191 321.023436 264.535277 C 321.148526 265.009575 321.362221 265.436964 321.659309 265.82787 C 321.956396 266.213563 322.316029 266.526287 322.738206 266.771254 L 349.929562 282.470001 C 350.351739 282.714968 350.805189 282.87133 351.289911 282.933874 C 351.774634 282.996419 352.254144 282.965147 352.72323 282.840057 C 353.197528 282.714968 353.624917 282.501273 354.01061 282.204185 C 354.401515 281.907097 354.71424 281.547465 354.959207 281.125287 L 355.06866 280.932441 " stroke="#ffbfa7" stroke-width="2" stroke-opacity="1" stroke-miterlimit="4"/><path stroke-linecap="butt" transform="matrix(0.749463, 0, 0, 0.749463, 0.381474, -0.868695)" fill="none" stroke-linejoin="miter" d="M 1165.899549 139.24239 L 1165.878701 137.657922 C 1165.878701 137.548469 1165.842217 137.449439 1165.758824 137.371258 C 1165.680643 137.287865 1165.581613 137.251381 1165.47216 137.251381 L 1165.341858 137.251381 C 1164.440171 137.256593 1163.554119 137.267017 1162.67328 137.277441 C 1161.79244 137.293077 1160.937661 137.308713 1160.108943 137.329562 C 1159.280224 137.35041 1158.493202 137.37647 1157.747876 137.402531 C 1157.00255 137.428591 1156.314558 137.454651 1155.683897 137.485924 C 1155.053237 137.517196 1154.490334 137.548469 1153.995188 137.584953 C 1153.500041 137.621438 1153.083076 137.657922 1152.749504 137.694406 C 1152.410719 137.730891 1152.155328 137.767375 1151.988542 137.80386 C 1151.821756 137.845556 1151.743575 137.882041 1151.748787 137.918525 L 1151.748787 139.179846 C 1151.759211 139.21633 1151.853028 139.252815 1152.030238 139.289299 C 1152.212661 139.325784 1152.473264 139.357056 1152.822472 139.388328 C 1153.166469 139.419601 1153.588646 139.450873 1154.089005 139.476933 C 1154.584151 139.502994 1155.147055 139.529054 1155.777715 139.549902 C 1156.413587 139.575963 1157.096368 139.591599 1157.836481 139.607235 C 1158.576595 139.622871 1159.358405 139.633296 1160.181912 139.64372 C 1161.000206 139.654144 1161.849773 139.654144 1162.720188 139.659356 C 1163.590604 139.659356 1164.471443 139.654144 1165.357494 139.648932 L 1165.487796 139.648932 C 1165.602462 139.648932 1165.701491 139.612447 1165.779672 139.529054 C 1165.857853 139.450873 1165.899549 139.351844 1165.899549 139.24239 " stroke="#e4e4e0" stroke-width="2" stroke-opacity="1" stroke-miterlimit="4"/><path stroke-linecap="butt" transform="matrix(0.749463, 0, 0, 0.749463, 0.381474, -0.868695)" fill="none" stroke-linejoin="miter" d="M 1165.920398 141.895333 C 1165.920398 141.71291 1165.857853 141.551336 1165.727551 141.421035 C 1165.597249 141.290733 1165.440887 141.222976 1165.253253 141.222976 L 1152.514961 141.155219 C 1152.327326 141.155219 1152.170964 141.217764 1152.040662 141.348066 C 1151.910361 141.478367 1151.842604 141.639941 1151.842604 141.822364 L 1151.837392 142.145512 C 1151.837392 142.327934 1151.905149 142.484296 1152.03545 142.61981 C 1152.16054 142.750112 1152.322114 142.817869 1152.504536 142.817869 L 1165.248041 142.885626 C 1165.430463 142.885626 1165.586825 142.817869 1165.722339 142.687567 C 1165.852641 142.557265 1165.920398 142.400903 1165.920398 142.218481 L 1165.920398 141.895333 " stroke="#e4e4e0" stroke-width="2" stroke-opacity="1" stroke-miterlimit="4"/><path stroke-linecap="butt" transform="matrix(0.749463, 0, 0, 0.749463, 0.381474, -0.868695)" fill="none" stroke-linejoin="miter" d="M 1165.936034 145.21542 C 1165.936034 144.975665 1165.847429 144.772394 1165.67543 144.605608 C 1165.503432 144.43361 1165.29495 144.355429 1165.055194 144.355429 L 1152.937138 144.506578 C 1152.697383 144.506578 1152.494112 144.595184 1152.327326 144.767182 C 1152.16054 144.93918 1152.077147 145.142451 1152.077147 145.382206 L 1152.082359 145.705354 C 1152.087571 145.945109 1152.170964 146.14838 1152.342962 146.315166 C 1152.514961 146.481952 1152.723443 146.565345 1152.963198 146.565345 L 1165.081255 146.414195 C 1165.32101 146.414195 1165.524281 146.32559 1165.696279 146.153592 C 1165.863065 145.981594 1165.946458 145.773111 1165.941246 145.533356 L 1165.936034 145.21542 " stroke="#e4e4e0" stroke-width="2" stroke-opacity="1" stroke-miterlimit="4"/><path stroke-linecap="butt" transform="matrix(0.749463, 0, 0, 0.749463, 0.381474, -0.868695)" fill="none" stroke-linejoin="miter" d="M 246.459601 337.321797 C 246.459601 336.915256 246.38142 336.524351 246.23027 336.154294 C 246.073908 335.779025 245.855001 335.450665 245.568338 335.164001 C 245.281674 334.877337 244.953314 334.658431 244.578045 334.502069 C 244.202776 334.345707 243.811871 334.267526 243.410542 334.267526 L 203.428773 334.267526 C 203.027444 334.267526 202.636539 334.345707 202.26127 334.502069 C 201.891214 334.658431 201.557641 334.877337 201.270978 335.164001 C 200.989526 335.450665 200.765407 335.779025 200.614257 336.154294 C 200.457895 336.524351 200.379714 336.915256 200.379714 337.321797 L 200.379714 337.441675 C 200.379714 337.843004 200.457895 338.233909 200.614257 338.609178 C 200.765407 338.979234 200.989526 339.312807 201.270978 339.594258 C 201.557641 339.880922 201.891214 340.105041 202.26127 340.256191 C 202.636539 340.412553 203.027444 340.490734 203.428773 340.490734 L 243.410542 340.490734 C 243.811871 340.490734 244.202776 340.412553 244.578045 340.256191 C 244.953314 340.105041 245.281674 339.880922 245.568338 339.594258 C 245.855001 339.312807 246.073908 338.979234 246.23027 338.609178 C 246.38142 338.233909 246.459601 337.843004 246.459601 337.441675 L 246.459601 337.321797 " stroke="#e4e4e0" stroke-width="2" stroke-opacity="1" stroke-miterlimit="4"/><path stroke-linecap="butt" transform="matrix(0.749463, 0, 0, 0.749463, 0.381474, -0.868695)" fill="none" stroke-linejoin="miter" d="M 246.459601 348.439137 C 246.459601 348.053444 246.386632 347.678175 246.235482 347.318542 C 246.089544 346.958909 245.87585 346.640973 245.59961 346.369946 C 245.328583 346.093706 245.010646 345.880012 244.651014 345.734074 C 244.291381 345.582924 243.916112 345.509955 243.530419 345.509955 L 203.371441 345.509955 C 202.980536 345.509955 202.605267 345.582924 202.250846 345.734074 C 201.891214 345.880012 201.573277 346.093706 201.297038 346.369946 C 201.02601 346.640973 200.812316 346.958909 200.661166 347.318542 C 200.515228 347.678175 200.442259 348.053444 200.442259 348.439137 L 200.442259 348.819618 C 200.442259 349.210523 200.515228 349.580579 200.661166 349.940212 C 200.812316 350.299845 201.02601 350.617781 201.297038 350.89402 C 201.573277 351.165048 201.891214 351.378743 202.250846 351.52468 C 202.605267 351.67583 202.980536 351.748799 203.371441 351.748799 L 243.530419 351.748799 C 243.916112 351.748799 244.291381 351.67583 244.651014 351.52468 C 245.010646 351.378743 245.328583 351.165048 245.59961 350.89402 C 245.87585 350.617781 246.089544 350.299845 246.235482 349.940212 C 246.386632 349.580579 246.459601 349.210523 246.459601 348.819618 L 246.459601 348.439137 " stroke="#e4e4e0" stroke-width="2" stroke-opacity="1" stroke-miterlimit="4"/><path stroke-linecap="butt" transform="matrix(0.749463, 0, 0, 0.749463, 0.381474, -0.868695)" fill="none" stroke-linejoin="miter" d="M 246.438753 359.561688 C 246.438753 359.155147 246.360572 358.764242 246.209422 358.394185 C 246.05306 358.018916 245.834153 357.690556 245.547489 357.403892 C 245.260826 357.117229 244.932465 356.898322 244.557197 356.74196 C 244.181928 356.585598 243.796235 356.507417 243.389694 356.507417 L 203.527803 356.507417 C 203.126473 356.507417 202.735568 356.585598 202.3603 356.74196 C 201.990243 356.898322 201.661883 357.117229 201.375219 357.403892 C 201.088555 357.690556 200.864436 358.018916 200.713286 358.394185 C 200.556924 358.764242 200.478743 359.155147 200.478743 359.561688 L 200.478743 359.681566 C 200.478743 360.082895 200.556924 360.4738 200.713286 360.849069 C 200.864436 361.219126 201.088555 361.552698 201.375219 361.83415 C 201.661883 362.120813 201.990243 362.344932 202.3603 362.496082 C 202.735568 362.652444 203.126473 362.730625 203.527803 362.730625 L 243.389694 362.730625 C 243.796235 362.730625 244.181928 362.652444 244.557197 362.496082 C 244.932465 362.344932 245.260826 362.120813 245.547489 361.83415 C 245.834153 361.552698 246.05306 361.219126 246.209422 360.849069 C 246.360572 360.4738 246.438753 360.082895 246.438753 359.681566 L 246.438753 359.561688 " stroke="#e4e4e0" stroke-width="2" stroke-opacity="1" stroke-miterlimit="4"/><path fill="#fe6118" d="M 9.953125 79.632812 C 16.246094 44.910156 46.03125 17.84375 82.164062 17.851562 C 139.265625 17.871094 196.375 17.875 253.484375 17.859375 C 290.019531 17.851562 320.558594 45.3125 326.121094 80.921875 C 326.671875 84.453125 326.945312 89.429688 326.945312 95.855469 C 326.960938 147.996094 326.964844 200.132812 326.960938 252.269531 C 326.960938 258.859375 326.722656 263.839844 326.246094 267.214844 C 321.242188 302.738281 290.601562 331.128906 254.113281 331.136719 C 196.9375 331.144531 139.765625 331.148438 82.589844 331.144531 C 77.507812 331.136719 73.3125 330.828125 70 330.214844 C 39.324219 324.472656 15.527344 300.265625 10.132812 269.636719 C 9.488281 265.984375 9.167969 261.128906 9.171875 255.074219 C 9.191406 199.296875 9.207031 143.523438 9.21875 87.753906 C 9.21875 85.015625 9.460938 82.308594 9.953125 79.632812 Z M 170.683594 67.953125 C 170.683594 67.582031 170.609375 67.222656 170.46875 66.875 C 170.324219 66.53125 170.121094 66.226562 169.855469 65.960938 C 169.59375 65.699219 169.289062 65.492188 168.941406 65.351562 C 168.597656 65.207031 168.238281 65.136719 167.863281 65.136719 L 167.730469 65.136719 C 167.355469 65.136719 166.996094 65.207031 166.652344 65.351562 C 166.304688 65.492188 166 65.699219 165.738281 65.960938 C 165.472656 66.226562 165.269531 66.53125 165.125 66.875 C 164.984375 67.222656 164.910156 67.582031 164.910156 67.953125 L 164.910156 91.425781 C 164.910156 91.800781 164.984375 92.160156 165.125 92.507812 C 165.269531 92.851562 165.472656 93.15625 165.738281 93.421875 C 166 93.683594 166.304688 93.886719 166.652344 94.03125 C 166.996094 94.175781 167.355469 94.246094 167.730469 94.246094 L 167.863281 94.246094 C 168.238281 94.246094 168.597656 94.175781 168.941406 94.03125 C 169.289062 93.886719 169.59375 93.683594 169.855469 93.421875 C 170.121094 93.15625 170.324219 92.851562 170.46875 92.507812 C 170.609375 92.160156 170.683594 91.800781 170.683594 91.425781 Z M 94.824219 92.367188 C 94.5625 92.105469 94.257812 91.902344 93.914062 91.761719 C 93.574219 91.617188 93.214844 91.546875 92.847656 91.546875 C 92.476562 91.546875 92.117188 91.617188 91.777344 91.761719 C 91.433594 91.902344 91.132812 92.105469 90.871094 92.367188 L 90.804688 92.429688 C 90.542969 92.691406 90.339844 92.992188 90.199219 93.335938 C 90.058594 93.679688 89.988281 94.035156 89.988281 94.40625 C 89.988281 94.777344 90.058594 95.132812 90.199219 95.476562 C 90.339844 95.820312 90.542969 96.121094 90.804688 96.382812 L 107.351562 112.929688 C 107.613281 113.191406 107.914062 113.390625 108.257812 113.535156 C 108.601562 113.675781 108.957031 113.746094 109.328125 113.746094 C 109.699219 113.746094 110.054688 113.675781 110.398438 113.535156 C 110.738281 113.390625 111.042969 113.191406 111.304688 112.929688 L 111.367188 112.863281 C 111.628906 112.601562 111.832031 112.300781 111.972656 111.957031 C 112.117188 111.613281 112.1875 111.257812 112.1875 110.886719 C 112.1875 110.515625 112.117188 110.160156 111.972656 109.816406 C 111.832031 109.476562 111.628906 109.171875 111.367188 108.910156 Z M 244.789062 96.417969 C 245.050781 96.152344 245.253906 95.851562 245.398438 95.507812 C 245.539062 95.164062 245.609375 94.808594 245.609375 94.433594 C 245.609375 94.0625 245.539062 93.707031 245.398438 93.363281 C 245.253906 93.019531 245.050781 92.714844 244.789062 92.453125 L 244.714844 92.378906 C 244.453125 92.117188 244.148438 91.914062 243.804688 91.769531 C 243.460938 91.628906 243.105469 91.558594 242.734375 91.558594 C 242.363281 91.558594 242.003906 91.628906 241.660156 91.769531 C 241.316406 91.914062 241.015625 92.117188 240.75 92.378906 L 224.238281 108.890625 C 223.976562 109.15625 223.773438 109.457031 223.628906 109.800781 C 223.488281 110.144531 223.417969 110.503906 223.417969 110.875 C 223.417969 111.246094 223.488281 111.601562 223.628906 111.945312 C 223.773438 112.289062 223.976562 112.59375 224.238281 112.855469 L 224.3125 112.929688 C 224.574219 113.191406 224.878906 113.394531 225.222656 113.539062 C 225.566406 113.679688 225.921875 113.75 226.292969 113.75 C 226.664062 113.75 227.023438 113.679688 227.367188 113.539062 C 227.710938 113.394531 228.011719 113.191406 228.277344 112.929688 Z M 219.613281 179.175781 C 226.472656 143.011719 196.382812 112.496094 160.210938 118.296875 C 130.441406 123.078125 108.761719 150.351562 116.519531 180.695312 C 121.015625 198.308594 130.644531 210.523438 140.320312 224.734375 C 143.921875 230.027344 146.460938 235.738281 147.9375 241.875 C 149.359375 247.773438 148.753906 254.902344 148.773438 261.25 C 148.796875 266.039062 149.199219 269.464844 149.980469 271.523438 C 156.367188 288.238281 181.316406 287.113281 186.253906 269.679688 C 186.785156 267.804688 187.011719 265.03125 186.929688 261.351562 C 186.621094 247.554688 187.460938 235.550781 194.996094 224.847656 C 205.203125 210.328125 216.21875 197.117188 219.613281 179.175781 Z M 94.746094 149.625 C 94.746094 149.25 94.675781 148.886719 94.53125 148.542969 C 94.386719 148.195312 94.183594 147.890625 93.917969 147.625 C 93.652344 147.359375 93.347656 147.15625 93.003906 147.011719 C 92.65625 146.871094 92.296875 146.796875 91.921875 146.796875 L 68.476562 146.796875 C 68.101562 146.796875 67.742188 146.871094 67.394531 147.011719 C 67.050781 147.15625 66.746094 147.359375 66.480469 147.625 C 66.214844 147.890625 66.011719 148.195312 65.867188 148.542969 C 65.722656 148.886719 65.652344 149.25 65.652344 149.625 L 65.652344 149.742188 C 65.652344 150.117188 65.722656 150.476562 65.867188 150.824219 C 66.011719 151.171875 66.214844 151.476562 66.480469 151.742188 C 66.746094 152.007812 67.050781 152.210938 67.394531 152.355469 C 67.742188 152.496094 68.101562 152.570312 68.476562 152.570312 L 91.921875 152.570312 C 92.296875 152.570312 92.65625 152.496094 93.003906 152.355469 C 93.347656 152.210938 93.652344 152.007812 93.917969 151.742188 C 94.183594 151.476562 94.386719 151.171875 94.53125 150.824219 C 94.675781 150.476562 94.746094 150.117188 94.746094 149.742188 Z M 269.957031 149.625 C 269.957031 149.25 269.882812 148.886719 269.742188 148.542969 C 269.597656 148.195312 269.394531 147.890625 269.128906 147.625 C 268.863281 147.359375 268.558594 147.15625 268.210938 147.011719 C 267.867188 146.871094 267.503906 146.796875 267.128906 146.796875 L 243.671875 146.796875 C 243.296875 146.796875 242.9375 146.871094 242.589844 147.011719 C 242.246094 147.15625 241.9375 147.359375 241.675781 147.625 C 241.410156 147.890625 241.203125 148.195312 241.0625 148.542969 C 240.917969 148.886719 240.847656 149.25 240.847656 149.625 L 240.847656 149.742188 C 240.847656 150.117188 240.917969 150.476562 241.0625 150.824219 C 241.203125 151.171875 241.410156 151.476562 241.675781 151.742188 C 241.9375 152.007812 242.246094 152.210938 242.589844 152.355469 C 242.9375 152.496094 243.296875 152.570312 243.671875 152.570312 L 267.128906 152.570312 C 267.503906 152.570312 267.867188 152.496094 268.210938 152.355469 C 268.558594 152.210938 268.863281 152.007812 269.128906 151.742188 C 269.394531 151.476562 269.597656 151.171875 269.742188 150.824219 C 269.882812 150.476562 269.957031 150.117188 269.957031 149.742188 Z M 94.308594 195.160156 C 94.121094 194.839844 93.882812 194.570312 93.589844 194.34375 C 93.296875 194.117188 92.972656 193.957031 92.613281 193.863281 C 92.257812 193.765625 91.894531 193.742188 91.527344 193.792969 C 91.160156 193.839844 90.820312 193.957031 90.5 194.140625 L 70.171875 205.878906 C 69.851562 206.0625 69.578125 206.300781 69.351562 206.59375 C 69.128906 206.886719 68.964844 207.214844 68.871094 207.570312 C 68.773438 207.925781 68.75 208.289062 68.800781 208.65625 C 68.847656 209.023438 68.964844 209.367188 69.148438 209.6875 L 69.210938 209.789062 C 69.394531 210.109375 69.632812 210.382812 69.925781 210.609375 C 70.21875 210.832031 70.546875 210.992188 70.902344 211.089844 C 71.257812 211.183594 71.621094 211.207031 71.988281 211.160156 C 72.355469 211.113281 72.699219 210.996094 73.019531 210.808594 L 93.347656 199.074219 C 93.667969 198.890625 93.9375 198.648438 94.164062 198.355469 C 94.390625 198.0625 94.550781 197.738281 94.644531 197.378906 C 94.742188 197.023438 94.765625 196.660156 94.714844 196.296875 C 94.667969 195.929688 94.550781 195.585938 94.367188 195.265625 Z M 266.492188 209.679688 C 266.675781 209.363281 266.789062 209.023438 266.839844 208.664062 C 266.886719 208.300781 266.863281 207.941406 266.769531 207.589844 C 266.671875 207.234375 266.515625 206.914062 266.292969 206.625 C 266.070312 206.332031 265.800781 206.097656 265.484375 205.914062 L 245.101562 194.148438 C 244.785156 193.964844 244.445312 193.847656 244.082031 193.800781 C 243.722656 193.753906 243.363281 193.777344 243.007812 193.871094 C 242.65625 193.964844 242.335938 194.125 242.042969 194.347656 C 241.753906 194.570312 241.519531 194.839844 241.335938 195.15625 L 241.253906 195.300781 C 241.070312 195.617188 240.953125 195.957031 240.90625 196.320312 C 240.859375 196.679688 240.882812 197.039062 240.976562 197.390625 C 241.070312 197.746094 241.230469 198.066406 241.453125 198.359375 C 241.675781 198.648438 241.945312 198.882812 242.261719 199.066406 L 262.640625 210.832031 C 262.957031 211.015625 263.296875 211.132812 263.660156 211.179688 C 264.023438 211.226562 264.382812 211.203125 264.734375 211.109375 C 265.089844 211.015625 265.410156 210.855469 265.699219 210.632812 C 265.992188 210.410156 266.226562 210.140625 266.410156 209.824219 Z M 266.492188 209.679688 " fill-opacity="1" fill-rule="nonzero"/><path fill="#fe6118" d="M 868.804688 44.121094 L 868.867188 44.121094 C 869.113281 44.121094 869.324219 44.207031 869.496094 44.382812 C 869.671875 44.558594 869.757812 44.765625 869.757812 45.011719 L 869.757812 52.386719 C 869.757812 52.632812 869.671875 52.84375 869.496094 53.019531 C 869.324219 53.191406 869.113281 53.28125 868.867188 53.28125 L 868.804688 53.28125 C 868.558594 53.28125 868.351562 53.191406 868.175781 53.019531 C 868 52.84375 867.914062 52.632812 867.914062 52.386719 L 867.914062 45.011719 C 867.914062 44.765625 868 44.558594 868.175781 44.382812 C 868.351562 44.207031 868.558594 44.121094 868.804688 44.121094 Z M 868.804688 44.121094 " fill-opacity="1" fill-rule="nonzero"/><path fill="#fe6118" d="M 844.582031 52.675781 L 844.710938 52.546875 C 844.875 52.386719 845.074219 52.304688 845.304688 52.304688 C 845.535156 52.304688 845.734375 52.386719 845.898438 52.550781 L 851.167969 57.839844 C 851.332031 58.003906 851.410156 58.199219 851.410156 58.433594 C 851.410156 58.664062 851.328125 58.863281 851.164062 59.027344 L 851.039062 59.152344 C 850.875 59.316406 850.675781 59.398438 850.441406 59.398438 C 850.210938 59.398438 850.015625 59.316406 849.851562 59.148438 L 844.582031 53.863281 C 844.417969 53.699219 844.335938 53.5 844.335938 53.269531 C 844.335938 53.039062 844.417969 52.839844 844.582031 52.675781 Z M 844.582031 52.675781 " fill-opacity="1" fill-rule="nonzero"/><path fill="#fe6118" d="M 886.578125 57.917969 L 891.972656 52.523438 C 892.109375 52.382812 892.277344 52.316406 892.476562 52.316406 C 892.671875 52.316406 892.839844 52.382812 892.976562 52.523438 L 893.199219 52.746094 C 893.339844 52.886719 893.410156 53.054688 893.410156 53.25 C 893.410156 53.445312 893.339844 53.613281 893.199219 53.753906 L 887.804688 59.148438 C 887.667969 59.285156 887.5 59.355469 887.300781 59.355469 C 887.105469 59.355469 886.9375 59.285156 886.800781 59.148438 L 886.578125 58.925781 C 886.4375 58.785156 886.367188 58.617188 886.367188 58.421875 C 886.367188 58.226562 886.4375 58.058594 886.578125 57.917969 Z M 886.578125 57.917969 " fill-opacity="1" fill-rule="nonzero"/><path fill="#fe6118" d="M 874.945312 100.300781 L 862.773438 100.398438 C 860.789062 94.003906 856.304688 89.679688 853.695312 83.542969 C 846.921875 67.59375 866.144531 53.796875 879.320312 64.035156 C 886.34375 69.492188 887.003906 78.148438 883.285156 85.753906 C 881.066406 90.3125 876.953125 94.507812 874.945312 100.300781 Z M 874.945312 100.300781 " fill-opacity="1" fill-rule="nonzero"/><path fill="#ffffff" d="M 167.730469 65.136719 L 167.863281 65.136719 C 168.238281 65.136719 168.597656 65.207031 168.941406 65.351562 C 169.289062 65.492188 169.59375 65.699219 169.855469 65.960938 C 170.121094 66.226562 170.324219 66.53125 170.46875 66.875 C 170.609375 67.222656 170.683594 67.582031 170.683594 67.953125 L 170.683594 91.425781 C 170.683594 91.800781 170.609375 92.160156 170.46875 92.507812 C 170.324219 92.851562 170.121094 93.15625 169.855469 93.421875 C 169.59375 93.683594 169.289062 93.886719 168.941406 94.03125 C 168.597656 94.175781 168.238281 94.246094 167.863281 94.246094 L 167.730469 94.246094 C 167.355469 94.246094 166.996094 94.175781 166.652344 94.03125 C 166.304688 93.886719 166 93.683594 165.738281 93.421875 C 165.472656 93.15625 165.269531 92.851562 165.125 92.507812 C 164.984375 92.160156 164.910156 91.800781 164.910156 91.425781 L 164.910156 67.953125 C 164.910156 67.582031 164.984375 67.222656 165.125 66.875 C 165.269531 66.53125 165.472656 66.226562 165.738281 65.960938 C 166 65.699219 166.304688 65.492188 166.652344 65.351562 C 166.996094 65.207031 167.355469 65.136719 167.730469 65.136719 Z M 167.730469 65.136719 " fill-opacity="1" fill-rule="nonzero"/><path fill="#fe6118" d="M 837.683594 69.753906 L 844.863281 69.765625 C 845.113281 69.765625 845.328125 69.855469 845.503906 70.035156 C 845.679688 70.210938 845.769531 70.425781 845.769531 70.675781 L 845.769531 70.734375 C 845.765625 70.984375 845.679688 71.199219 845.5 71.375 C 845.324219 71.554688 845.109375 71.640625 844.859375 71.640625 L 837.679688 71.628906 C 837.429688 71.628906 837.214844 71.539062 837.039062 71.363281 C 836.863281 71.183594 836.773438 70.96875 836.773438 70.71875 L 836.773438 70.660156 C 836.773438 70.410156 836.863281 70.195312 837.042969 70.019531 C 837.21875 69.84375 837.433594 69.753906 837.683594 69.753906 Z M 837.683594 69.753906 " fill-opacity="1" fill-rule="nonzero"/><path fill="#fe6118" d="M 892.8125 69.761719 L 899.964844 69.773438 C 900.214844 69.773438 900.425781 69.863281 900.605469 70.042969 C 900.78125 70.21875 900.867188 70.433594 900.867188 70.683594 L 900.867188 70.742188 C 900.867188 70.992188 900.777344 71.207031 900.601562 71.382812 C 900.425781 71.558594 900.210938 71.648438 899.960938 71.648438 L 892.808594 71.636719 C 892.558594 71.636719 892.347656 71.546875 892.167969 71.367188 C 891.992188 71.191406 891.90625 70.976562 891.90625 70.726562 L 891.90625 70.667969 C 891.90625 70.417969 891.996094 70.203125 892.171875 70.027344 C 892.347656 69.851562 892.5625 69.761719 892.8125 69.761719 Z M 892.8125 69.761719 " fill-opacity="1" fill-rule="nonzero"/><path fill="#fe6118" d="M 838.128906 88.363281 L 844.488281 84.71875 C 844.699219 84.597656 844.917969 84.570312 845.152344 84.632812 C 845.386719 84.699219 845.5625 84.835938 845.683594 85.046875 L 845.714844 85.097656 C 845.835938 85.308594 845.863281 85.527344 845.800781 85.761719 C 845.734375 85.996094 845.597656 86.171875 845.390625 86.292969 L 839.027344 89.9375 C 838.820312 90.058594 838.597656 90.085938 838.363281 90.023438 C 838.128906 89.957031 837.953125 89.820312 837.832031 89.609375 L 837.800781 89.558594 C 837.683594 89.347656 837.652344 89.128906 837.71875 88.894531 C 837.78125 88.660156 837.917969 88.484375 838.128906 88.363281 Z M 838.128906 88.363281 " fill-opacity="1" fill-rule="nonzero"/><path fill="#fe6118" d="M 893.175781 84.667969 L 899.621094 88.375 C 899.820312 88.488281 899.953125 88.65625 900.011719 88.878906 C 900.070312 89.101562 900.042969 89.308594 899.929688 89.507812 L 899.847656 89.652344 C 899.734375 89.851562 899.5625 89.980469 899.34375 90.039062 C 899.121094 90.101562 898.910156 90.074219 898.710938 89.957031 L 892.265625 86.253906 C 892.066406 86.136719 891.9375 85.96875 891.878906 85.75 C 891.816406 85.527344 891.84375 85.316406 891.960938 85.117188 L 892.042969 84.972656 C 892.15625 84.773438 892.324219 84.644531 892.546875 84.585938 C 892.769531 84.527344 892.976562 84.554688 893.175781 84.667969 Z M 893.175781 84.667969 " fill-opacity="1" fill-rule="nonzero"/><path fill="#ffffff" d="M 90.804688 92.429688 L 90.871094 92.367188 C 91.132812 92.105469 91.433594 91.902344 91.777344 91.761719 C 92.117188 91.617188 92.476562 91.546875 92.847656 91.546875 C 93.214844 91.546875 93.574219 91.617188 93.914062 91.761719 C 94.257812 91.902344 94.5625 92.105469 94.824219 92.367188 L 111.367188 108.910156 C 111.628906 109.171875 111.832031 109.476562 111.972656 109.816406 C 112.117188 110.160156 112.1875 110.515625 112.1875 110.886719 C 112.1875 111.257812 112.117188 111.613281 111.972656 111.957031 C 111.832031 112.300781 111.628906 112.601562 111.367188 112.863281 L 111.304688 112.929688 C 111.042969 113.191406 110.738281 113.390625 110.398438 113.535156 C 110.054688 113.675781 109.699219 113.746094 109.328125 113.746094 C 108.957031 113.746094 108.601562 113.675781 108.257812 113.535156 C 107.914062 113.390625 107.613281 113.191406 107.351562 112.929688 L 90.804688 96.382812 C 90.542969 96.121094 90.339844 95.820312 90.199219 95.476562 C 90.058594 95.132812 89.988281 94.777344 89.988281 94.40625 C 89.988281 94.035156 90.058594 93.679688 90.199219 93.335938 C 90.339844 92.992188 90.542969 92.691406 90.804688 92.429688 Z M 90.804688 92.429688 " fill-opacity="1" fill-rule="nonzero"/><path fill="#ffffff" d="M 244.714844 92.378906 L 244.789062 92.453125 C 245.050781 92.714844 245.253906 93.019531 245.398438 93.363281 C 245.539062 93.707031 245.609375 94.0625 245.609375 94.433594 C 245.609375 94.808594 245.539062 95.164062 245.398438 95.507812 C 245.253906 95.851562 245.050781 96.152344 244.789062 96.417969 L 228.277344 112.929688 C 228.011719 113.191406 227.710938 113.394531 227.367188 113.539062 C 227.023438 113.679688 226.664062 113.75 226.292969 113.75 C 225.921875 113.75 225.566406 113.679688 225.222656 113.539062 C 224.878906 113.394531 224.574219 113.191406 224.3125 112.929688 L 224.238281 112.855469 C 223.976562 112.59375 223.773438 112.289062 223.628906 111.945312 C 223.488281 111.601562 223.417969 111.246094 223.417969 110.875 C 223.417969 110.503906 223.488281 110.144531 223.628906 109.800781 C 223.773438 109.457031 223.976562 109.15625 224.238281 108.890625 L 240.75 92.378906 C 241.015625 92.117188 241.316406 91.914062 241.660156 91.769531 C 242.003906 91.628906 242.363281 91.558594 242.734375 91.558594 C 243.105469 91.558594 243.460938 91.628906 243.804688 91.769531 C 244.148438 91.914062 244.453125 92.117188 244.714844 92.378906 Z M 244.714844 92.378906 " fill-opacity="1" fill-rule="nonzero"/><path fill="#ffffff" d="M 874.945312 100.300781 C 875.050781 103.464844 875.574219 107.789062 873.949219 110.34375 C 871.886719 113.589844 866.28125 113.875 864.0625 110.613281 C 862.359375 108.117188 862.691406 103.5625 862.773438 100.398438 Z M 874.179688 103.488281 L 874.164062 102.300781 C 874.164062 102.21875 874.136719 102.144531 874.074219 102.085938 C 874.015625 102.023438 873.941406 101.996094 873.859375 101.996094 L 873.761719 101.996094 C 873.085938 102 872.421875 102.007812 871.761719 102.015625 C 871.101562 102.027344 870.460938 102.039062 869.839844 102.054688 C 869.21875 102.070312 868.628906 102.089844 868.070312 102.109375 C 867.511719 102.128906 866.996094 102.148438 866.523438 102.171875 C 866.050781 102.195312 865.628906 102.21875 865.257812 102.246094 C 864.886719 102.273438 864.574219 102.300781 864.324219 102.328125 C 864.070312 102.355469 863.878906 102.382812 863.753906 102.410156 C 863.628906 102.441406 863.570312 102.46875 863.574219 102.496094 L 863.574219 103.441406 C 863.582031 103.46875 863.652344 103.496094 863.785156 103.523438 C 863.921875 103.550781 864.117188 103.574219 864.378906 103.597656 C 864.636719 103.621094 864.953125 103.644531 865.328125 103.664062 C 865.699219 103.683594 866.121094 103.703125 866.59375 103.71875 C 867.070312 103.738281 867.582031 103.75 868.136719 103.761719 C 868.691406 103.773438 869.277344 103.78125 869.894531 103.789062 C 870.507812 103.796875 871.144531 103.796875 871.796875 103.800781 C 872.449219 103.800781 873.109375 103.796875 873.773438 103.792969 L 873.871094 103.792969 C 873.957031 103.792969 874.03125 103.765625 874.089844 103.703125 C 874.148438 103.644531 874.179688 103.570312 874.179688 103.488281 Z M 874.195312 105.476562 C 874.195312 105.339844 874.148438 105.21875 874.050781 105.121094 C 873.953125 105.023438 873.835938 104.972656 873.695312 104.972656 L 864.148438 104.921875 C 864.007812 104.921875 863.890625 104.96875 863.792969 105.066406 C 863.695312 105.164062 863.644531 105.285156 863.644531 105.421875 L 863.640625 105.664062 C 863.640625 105.800781 863.691406 105.917969 863.789062 106.019531 C 863.882812 106.117188 864.003906 106.167969 864.140625 106.167969 L 873.691406 106.21875 C 873.828125 106.21875 873.945312 106.167969 874.046875 106.070312 C 874.144531 105.972656 874.195312 105.855469 874.195312 105.71875 Z M 874.207031 107.964844 C 874.207031 107.785156 874.140625 107.632812 874.011719 107.507812 C 873.882812 107.378906 873.726562 107.320312 873.546875 107.320312 L 864.464844 107.433594 C 864.285156 107.433594 864.132812 107.5 864.007812 107.628906 C 863.882812 107.757812 863.820312 107.910156 863.820312 108.089844 L 863.824219 108.332031 C 863.828125 108.511719 863.890625 108.664062 864.019531 108.789062 C 864.148438 108.914062 864.304688 108.976562 864.484375 108.976562 L 873.566406 108.863281 C 873.746094 108.863281 873.898438 108.796875 874.027344 108.667969 C 874.152344 108.539062 874.214844 108.382812 874.210938 108.203125 Z M 874.207031 107.964844 " fill-opacity="1" fill-rule="nonzero"/><path fill="#c8c8c1" d="M 874.179688 103.488281 C 874.179688 103.570312 874.148438 103.644531 874.089844 103.703125 C 874.03125 103.765625 873.957031 103.792969 873.871094 103.792969 L 873.773438 103.792969 C 873.109375 103.796875 872.449219 103.800781 871.796875 103.800781 C 871.144531 103.796875 870.507812 103.796875 869.894531 103.789062 C 869.277344 103.78125 868.691406 103.773438 868.136719 103.761719 C 867.582031 103.75 867.070312 103.738281 866.59375 103.71875 C 866.121094 103.703125 865.699219 103.683594 865.328125 103.664062 C 864.953125 103.644531 864.636719 103.621094 864.378906 103.597656 C 864.117188 103.574219 863.921875 103.550781 863.785156 103.523438 C 863.652344 103.496094 863.582031 103.46875 863.574219 103.441406 L 863.574219 102.496094 C 863.570312 102.46875 863.628906 102.441406 863.753906 102.410156 C 863.878906 102.382812 864.070312 102.355469 864.324219 102.328125 C 864.574219 102.300781 864.886719 102.273438 865.257812 102.246094 C 865.628906 102.21875 866.050781 102.195312 866.523438 102.171875 C 866.996094 102.148438 867.511719 102.128906 868.070312 102.109375 C 868.628906 102.089844 869.21875 102.070312 869.839844 102.054688 C 870.460938 102.039062 871.101562 102.027344 871.761719 102.015625 C 872.421875 102.007812 873.085938 102 873.761719 101.996094 L 873.859375 101.996094 C 873.941406 101.996094 874.015625 102.023438 874.074219 102.085938 C 874.136719 102.144531 874.164062 102.21875 874.164062 102.300781 Z M 874.179688 103.488281 " fill-opacity="1" fill-rule="nonzero"/><path fill="#c8c8c1" d="M 864.148438 104.921875 L 873.695312 104.972656 C 873.835938 104.972656 873.953125 105.023438 874.050781 105.121094 C 874.148438 105.21875 874.195312 105.339844 874.195312 105.476562 L 874.195312 105.71875 C 874.195312 105.855469 874.144531 105.972656 874.046875 106.070312 C 873.945312 106.167969 873.828125 106.21875 873.691406 106.21875 L 864.140625 106.167969 C 864.003906 106.167969 863.886719 106.117188 863.789062 106.019531 C 863.691406 105.917969 863.640625 105.800781 863.640625 105.664062 L 863.644531 105.421875 C 863.644531 105.285156 863.695312 105.164062 863.792969 105.066406 C 863.890625 104.96875 864.007812 104.921875 864.148438 104.921875 Z M 864.148438 104.921875 " fill-opacity="1" fill-rule="nonzero"/><path fill="#c8c8c1" d="M 864.464844 107.433594 L 873.546875 107.320312 C 873.726562 107.320312 873.882812 107.378906 874.011719 107.507812 C 874.140625 107.632812 874.207031 107.785156 874.207031 107.964844 L 874.210938 108.203125 C 874.214844 108.382812 874.152344 108.539062 874.027344 108.667969 C 873.898438 108.796875 873.746094 108.863281 873.566406 108.863281 L 864.484375 108.976562 C 864.304688 108.976562 864.148438 108.914062 864.019531 108.789062 C 863.890625 108.664062 863.828125 108.511719 863.824219 108.332031 L 863.820312 108.089844 C 863.820312 107.910156 863.882812 107.757812 864.007812 107.628906 C 864.132812 107.5 864.285156 107.433594 864.464844 107.433594 Z M 864.464844 107.433594 " fill-opacity="1" fill-rule="nonzero"/><path fill="#ffffff" d="M 1242.886719 158.78125 C 1242.964844 158.902344 1243.070312 158.941406 1243.207031 158.902344 C 1243.34375 158.859375 1243.414062 158.769531 1243.410156 158.625 L 1243.34375 110.402344 C 1243.34375 110.25 1243.398438 110.117188 1243.507812 110.007812 C 1243.617188 109.898438 1243.75 109.84375 1243.90625 109.84375 L 1254.238281 109.871094 C 1254.484375 109.875 1254.605469 110 1254.605469 110.246094 L 1254.605469 225.84375 C 1254.605469 225.945312 1254.570312 226.035156 1254.496094 226.109375 C 1254.425781 226.183594 1254.335938 226.21875 1254.234375 226.21875 L 1244.308594 226.21875 C 1244.199219 226.21875 1244.101562 226.179688 1244.023438 226.097656 C 1243.945312 226.015625 1243.90625 225.921875 1243.90625 225.804688 L 1243.941406 210.847656 C 1243.9375 210.695312 1243.863281 210.59375 1243.714844 210.554688 C 1243.566406 210.511719 1243.449219 210.554688 1243.367188 210.683594 C 1235.089844 223.503906 1220.378906 228.773438 1205.53125 226.546875 C 1178.117188 222.433594 1165.015625 195.070312 1173.367188 169.910156 C 1179.910156 150.199219 1199.535156 140.375 1219.726562 143.824219 C 1229.695312 145.527344 1237.414062 150.511719 1242.886719 158.78125 Z M 1205.480469 153.722656 C 1169.894531 161.78125 1176.722656 220.304688 1215.253906 217.089844 C 1230.40625 215.824219 1241.042969 205.585938 1243.199219 190.230469 C 1246.445312 167.078125 1228.9375 148.410156 1205.480469 153.722656 Z M 1205.480469 153.722656 " fill-opacity="1" fill-rule="nonzero"/><path fill="#ffffff" d="M 1299.25 117.210938 C 1299.285156 117.726562 1299.265625 118.242188 1299.191406 118.757812 C 1299.121094 119.269531 1299 119.773438 1298.824219 120.265625 C 1298.652344 120.757812 1298.429688 121.226562 1298.160156 121.675781 C 1297.894531 122.125 1297.582031 122.542969 1297.230469 122.933594 C 1296.875 123.324219 1296.488281 123.675781 1296.0625 123.992188 C 1295.640625 124.304688 1295.1875 124.578125 1294.710938 124.808594 C 1294.230469 125.035156 1293.734375 125.21875 1293.21875 125.351562 C 1292.703125 125.484375 1292.179688 125.570312 1291.648438 125.601562 C 1291.113281 125.636719 1290.585938 125.617188 1290.058594 125.550781 C 1289.527344 125.480469 1289.011719 125.363281 1288.507812 125.199219 C 1288.003906 125.03125 1287.523438 124.816406 1287.0625 124.558594 C 1286.601562 124.296875 1286.171875 123.996094 1285.773438 123.652344 C 1285.375 123.3125 1285.015625 122.933594 1284.691406 122.523438 C 1284.367188 122.109375 1284.089844 121.671875 1283.855469 121.207031 C 1283.625 120.742188 1283.4375 120.257812 1283.304688 119.757812 C 1283.167969 119.253906 1283.082031 118.746094 1283.050781 118.226562 C 1283.019531 117.710938 1283.039062 117.195312 1283.109375 116.679688 C 1283.179688 116.167969 1283.304688 115.664062 1283.476562 115.171875 C 1283.652344 114.679688 1283.871094 114.210938 1284.140625 113.761719 C 1284.410156 113.3125 1284.71875 112.894531 1285.074219 112.503906 C 1285.425781 112.113281 1285.8125 111.761719 1286.238281 111.445312 C 1286.664062 111.132812 1287.113281 110.859375 1287.59375 110.628906 C 1288.070312 110.402344 1288.570312 110.21875 1289.085938 110.085938 C 1289.597656 109.953125 1290.125 109.867188 1290.65625 109.835938 C 1291.1875 109.800781 1291.71875 109.820312 1292.246094 109.886719 C 1292.773438 109.957031 1293.289062 110.074219 1293.792969 110.238281 C 1294.296875 110.40625 1294.777344 110.621094 1295.238281 110.878906 C 1295.699219 111.140625 1296.128906 111.441406 1296.527344 111.785156 C 1296.925781 112.125 1297.289062 112.503906 1297.609375 112.914062 C 1297.933594 113.328125 1298.210938 113.765625 1298.445312 114.230469 C 1298.679688 114.695312 1298.863281 115.179688 1299 115.679688 C 1299.136719 116.183594 1299.21875 116.691406 1299.25 117.210938 Z M 1299.25 117.210938 " fill-opacity="1" fill-rule="nonzero"/><path fill="#ffffff" d="M 908.753906 139.09375 C 911.316406 127.167969 921.851562 119.5625 933.230469 117.097656 C 949.335938 113.597656 968.035156 115.710938 982.035156 124.980469 C 982.285156 125.144531 982.351562 125.363281 982.238281 125.632812 L 978.714844 133.945312 C 978.574219 134.28125 978.351562 134.351562 978.046875 134.160156 C 964.347656 125.664062 949.609375 123.347656 933.828125 127.214844 C 925.195312 129.328125 918.992188 137.601562 919.460938 146.402344 C 919.917969 154.890625 926.433594 159.441406 933.695312 162.117188 C 941.96875 165.160156 957.339844 167.859375 969.652344 172.828125 C 978.851562 176.542969 985.96875 183.589844 986.757812 193.855469 C 988.152344 212.054688 976.054688 222.875 959.378906 225.894531 C 941.773438 229.074219 918.953125 226.136719 905.53125 213.132812 C 905.359375 212.972656 905.328125 212.789062 905.433594 212.578125 L 909.539062 204.363281 C 909.679688 204.078125 909.867188 204.042969 910.101562 204.25 C 922.519531 215.328125 939.804688 218.980469 955.953125 216.484375 C 965.121094 215.066406 973.785156 210.121094 975.359375 200.21875 C 977.148438 189.023438 967.808594 182.847656 958.515625 180.195312 C 955.1875 179.246094 948.085938 177.289062 937.210938 174.324219 C 919.28125 169.445312 904.046875 160.925781 908.753906 139.09375 Z M 908.753906 139.09375 " fill-opacity="1" fill-rule="nonzero"/><path fill="#ffffff" d="M 160.210938 118.296875 C 196.382812 112.496094 226.472656 143.011719 219.613281 179.175781 C 216.21875 197.117188 205.203125 210.328125 194.996094 224.847656 C 187.460938 235.550781 186.621094 247.554688 186.929688 261.351562 C 187.011719 265.03125 186.785156 267.804688 186.253906 269.679688 C 181.316406 287.113281 156.367188 288.238281 149.980469 271.523438 C 149.199219 269.464844 148.796875 266.039062 148.773438 261.25 C 148.753906 254.902344 149.359375 247.773438 147.9375 241.875 C 146.460938 235.738281 143.921875 230.027344 140.320312 224.734375 C 130.644531 210.523438 121.015625 198.308594 116.519531 180.695312 C 108.761719 150.351562 130.441406 123.078125 160.210938 118.296875 Z M 185.09375 251.941406 C 185.09375 251.636719 185.035156 251.34375 184.921875 251.066406 C 184.804688 250.785156 184.640625 250.539062 184.425781 250.324219 C 184.210938 250.109375 183.964844 249.945312 183.683594 249.828125 C 183.402344 249.710938 183.109375 249.652344 182.808594 249.652344 L 152.84375 249.652344 C 152.542969 249.652344 152.25 249.710938 151.96875 249.828125 C 151.691406 249.945312 151.441406 250.109375 151.226562 250.324219 C 151.015625 250.539062 150.847656 250.785156 150.734375 251.066406 C 150.617188 251.34375 150.558594 251.636719 150.558594 251.941406 L 150.558594 252.03125 C 150.558594 252.332031 150.617188 252.625 150.734375 252.90625 C 150.847656 253.183594 151.015625 253.433594 151.226562 253.644531 C 151.441406 253.859375 151.691406 254.027344 151.96875 254.140625 C 152.25 254.257812 152.542969 254.316406 152.84375 254.316406 L 182.808594 254.316406 C 183.109375 254.316406 183.402344 254.257812 183.683594 254.140625 C 183.964844 254.027344 184.210938 253.859375 184.425781 253.644531 C 184.640625 253.433594 184.804688 253.183594 184.921875 252.90625 C 185.035156 252.625 185.09375 252.332031 185.09375 252.03125 Z M 185.09375 260.273438 C 185.09375 259.984375 185.039062 259.703125 184.925781 259.433594 C 184.816406 259.164062 184.65625 258.925781 184.449219 258.722656 C 184.246094 258.515625 184.007812 258.355469 183.738281 258.246094 C 183.46875 258.132812 183.1875 258.078125 182.898438 258.078125 L 152.800781 258.078125 C 152.507812 258.078125 152.226562 258.132812 151.960938 258.246094 C 151.691406 258.355469 151.453125 258.515625 151.246094 258.722656 C 151.042969 258.925781 150.882812 259.164062 150.769531 259.433594 C 150.660156 259.703125 150.605469 259.984375 150.605469 260.273438 L 150.605469 260.558594 C 150.605469 260.851562 150.660156 261.128906 150.769531 261.398438 C 150.882812 261.667969 151.042969 261.90625 151.246094 262.113281 C 151.453125 262.316406 151.691406 262.476562 151.960938 262.585938 C 152.226562 262.699219 152.507812 262.753906 152.800781 262.753906 L 182.898438 262.753906 C 183.1875 262.753906 183.46875 262.699219 183.738281 262.585938 C 184.007812 262.476562 184.246094 262.316406 184.449219 262.113281 C 184.65625 261.90625 184.816406 261.667969 184.925781 261.398438 C 185.039062 261.128906 185.09375 260.851562 185.09375 260.558594 Z M 185.078125 268.609375 C 185.078125 268.304688 185.019531 268.011719 184.90625 267.734375 C 184.789062 267.453125 184.625 267.207031 184.410156 266.992188 C 184.195312 266.777344 183.949219 266.613281 183.667969 266.496094 C 183.386719 266.378906 183.097656 266.320312 182.792969 266.320312 L 152.917969 266.320312 C 152.617188 266.320312 152.324219 266.378906 152.042969 266.496094 C 151.765625 266.613281 151.519531 266.777344 151.304688 266.992188 C 151.089844 267.207031 150.921875 267.453125 150.808594 267.734375 C 150.691406 268.011719 150.632812 268.304688 150.632812 268.609375 L 150.632812 268.699219 C 150.632812 269 150.691406 269.292969 150.808594 269.574219 C 150.921875 269.851562 151.089844 270.101562 151.304688 270.3125 C 151.519531 270.527344 151.765625 270.695312 152.042969 270.808594 C 152.324219 270.925781 152.617188 270.984375 152.917969 270.984375 L 182.792969 270.984375 C 183.097656 270.984375 183.386719 270.925781 183.667969 270.808594 C 183.949219 270.695312 184.195312 270.527344 184.410156 270.3125 C 184.625 270.101562 184.789062 269.851562 184.90625 269.574219 C 185.019531 269.292969 185.078125 269 185.078125 268.699219 Z M 185.078125 268.609375 " fill-opacity="1" fill-rule="nonzero"/><path fill="#ffffff" d="M 423.867188 226.21875 L 389.855469 226.21875 C 389.757812 226.21875 389.679688 226.183594 389.609375 226.117188 C 389.542969 226.050781 389.511719 225.96875 389.511719 225.875 L 389.554688 146.183594 C 389.554688 146.089844 389.519531 146.007812 389.453125 145.941406 C 389.386719 145.871094 389.304688 145.839844 389.210938 145.839844 L 354.285156 145.839844 C 354.191406 145.839844 354.109375 145.804688 354.042969 145.738281 C 353.972656 145.671875 353.941406 145.589844 353.941406 145.492188 L 353.941406 118.640625 C 353.941406 118.546875 353.972656 118.464844 354.042969 118.398438 C 354.109375 118.328125 354.191406 118.296875 354.285156 118.296875 L 459.082031 118.296875 C 459.179688 118.296875 459.257812 118.328125 459.328125 118.398438 C 459.394531 118.464844 459.425781 118.546875 459.425781 118.640625 L 459.425781 145.492188 C 459.425781 145.589844 459.394531 145.671875 459.328125 145.738281 C 459.257812 145.804688 459.179688 145.839844 459.082031 145.839844 L 424.539062 145.839844 C 424.445312 145.839844 424.363281 145.871094 424.296875 145.941406 C 424.230469 146.007812 424.195312 146.089844 424.195312 146.183594 L 424.210938 225.875 C 424.210938 225.96875 424.175781 226.050781 424.109375 226.117188 C 424.042969 226.183594 423.960938 226.21875 423.867188 226.21875 Z M 423.867188 226.21875 " fill-opacity="1" fill-rule="nonzero"/><path fill="#ffffff" d="M 510.089844 159.140625 L 559.78125 159.140625 C 559.851562 159.140625 559.914062 159.167969 559.964844 159.21875 C 560.015625 159.269531 560.042969 159.332031 560.042969 159.402344 L 560.042969 183.613281 C 560.042969 183.683594 560.015625 183.746094 559.964844 183.796875 C 559.914062 183.847656 559.851562 183.875 559.78125 183.875 L 510.089844 183.875 C 510.019531 183.875 509.957031 183.898438 509.90625 183.949219 C 509.855469 184 509.828125 184.0625 509.828125 184.136719 L 509.828125 200.101562 C 509.828125 200.171875 509.855469 200.234375 509.90625 200.285156 C 509.957031 200.335938 510.019531 200.363281 510.089844 200.363281 L 569.335938 200.363281 C 569.410156 200.363281 569.46875 200.386719 569.523438 200.4375 C 569.574219 200.488281 569.597656 200.550781 569.597656 200.625 L 569.597656 225.957031 C 569.597656 226.027344 569.574219 226.089844 569.523438 226.140625 C 569.46875 226.191406 569.410156 226.21875 569.335938 226.21875 L 475.429688 226.21875 C 475.355469 226.21875 475.292969 226.191406 475.242188 226.140625 C 475.191406 226.089844 475.167969 226.027344 475.167969 225.957031 L 475.167969 118.558594 C 475.167969 118.484375 475.191406 118.425781 475.242188 118.371094 C 475.292969 118.320312 475.355469 118.296875 475.429688 118.296875 L 568.210938 118.296875 C 568.285156 118.296875 568.347656 118.320312 568.398438 118.371094 C 568.449219 118.425781 568.472656 118.484375 568.472656 118.558594 L 568.472656 143.890625 C 568.472656 143.960938 568.449219 144.023438 568.398438 144.074219 C 568.347656 144.125 568.285156 144.152344 568.210938 144.152344 L 510.089844 144.152344 C 510.019531 144.152344 509.957031 144.179688 509.90625 144.230469 C 509.855469 144.28125 509.828125 144.34375 509.828125 144.414062 L 509.828125 158.878906 C 509.828125 158.953125 509.855469 159.011719 509.90625 159.066406 C 509.957031 159.117188 510.019531 159.140625 510.089844 159.140625 Z M 510.089844 159.140625 " fill-opacity="1" fill-rule="nonzero"/><path fill="#ffffff" d="M 623.648438 163.863281 L 661.535156 118.394531 C 661.585938 118.332031 661.648438 118.296875 661.730469 118.296875 L 704.035156 118.296875 C 704.148438 118.296875 704.226562 118.347656 704.273438 118.449219 C 704.320312 118.554688 704.304688 118.644531 704.230469 118.730469 L 666 162.523438 C 665.914062 162.621094 665.90625 162.726562 665.980469 162.835938 L 705.175781 225.820312 C 705.230469 225.910156 705.230469 225.996094 705.179688 226.085938 C 705.128906 226.175781 705.054688 226.21875 704.953125 226.21875 L 664.617188 226.21875 C 664.515625 226.214844 664.4375 226.171875 664.390625 226.082031 L 642.167969 186.925781 C 642.128906 186.855469 642.070312 186.8125 641.992188 186.796875 C 641.914062 186.78125 641.84375 186.800781 641.777344 186.847656 L 623.28125 201.972656 C 623.214844 202.027344 623.183594 202.097656 623.183594 202.183594 L 623.183594 225.957031 C 623.183594 226.027344 623.160156 226.089844 623.109375 226.140625 C 623.058594 226.191406 622.996094 226.21875 622.921875 226.21875 L 588.785156 226.21875 C 588.710938 226.21875 588.648438 226.191406 588.597656 226.140625 C 588.546875 226.089844 588.523438 226.027344 588.523438 225.957031 L 588.523438 118.558594 C 588.523438 118.484375 588.546875 118.425781 588.597656 118.371094 C 588.648438 118.320312 588.710938 118.296875 588.785156 118.296875 L 622.921875 118.296875 C 622.996094 118.296875 623.058594 118.320312 623.109375 118.371094 C 623.160156 118.425781 623.183594 118.484375 623.183594 118.558594 L 623.183594 163.691406 C 623.183594 163.816406 623.238281 163.898438 623.355469 163.941406 C 623.472656 163.984375 623.570312 163.960938 623.648438 163.863281 Z M 623.648438 163.863281 " fill-opacity="1" fill-rule="nonzero"/><path fill="#ffffff" d="M 754.214844 163.886719 L 792.136719 118.386719 C 792.183594 118.328125 792.246094 118.296875 792.324219 118.296875 L 834.652344 118.296875 C 834.761719 118.292969 834.835938 118.34375 834.882812 118.441406 C 834.925781 118.539062 834.914062 118.628906 834.839844 118.707031 L 796.589844 162.535156 C 796.507812 162.628906 796.5 162.726562 796.566406 162.828125 L 835.785156 225.84375 C 835.835938 225.925781 835.835938 226.007812 835.789062 226.09375 C 835.742188 226.175781 835.671875 226.21875 835.574219 226.21875 L 795.195312 226.21875 C 795.101562 226.214844 795.03125 226.171875 794.984375 226.089844 L 772.761719 186.917969 C 772.722656 186.851562 772.667969 186.8125 772.59375 186.800781 C 772.519531 186.785156 772.453125 186.800781 772.394531 186.847656 L 753.867188 201.988281 C 753.808594 202.039062 753.777344 202.105469 753.777344 202.183594 L 753.777344 225.972656 C 753.777344 226.039062 753.753906 226.097656 753.707031 226.144531 C 753.65625 226.195312 753.601562 226.21875 753.53125 226.21875 L 719.363281 226.21875 C 719.296875 226.21875 719.238281 226.195312 719.1875 226.144531 C 719.140625 226.097656 719.117188 226.039062 719.117188 225.972656 L 719.117188 118.542969 C 719.117188 118.476562 719.140625 118.417969 719.1875 118.367188 C 719.238281 118.320312 719.296875 118.296875 719.363281 118.296875 L 753.53125 118.296875 C 753.601562 118.296875 753.65625 118.320312 753.707031 118.367188 C 753.753906 118.417969 753.777344 118.476562 753.777344 118.542969 L 753.777344 163.726562 C 753.78125 163.84375 753.835938 163.917969 753.941406 163.957031 C 754.050781 163.996094 754.140625 163.972656 754.214844 163.886719 Z M 754.214844 163.886719 " fill-opacity="1" fill-rule="nonzero"/><path fill="#ffffff" d="M 851.621094 118.296875 L 885.839844 118.296875 C 885.992188 118.296875 886.066406 118.371094 886.066406 118.519531 L 886.066406 225.992188 C 886.066406 226.144531 885.992188 226.21875 885.839844 226.21875 L 851.621094 226.21875 C 851.472656 226.21875 851.394531 226.144531 851.394531 225.992188 L 851.394531 118.519531 C 851.394531 118.371094 851.472656 118.296875 851.621094 118.296875 Z M 851.621094 118.296875 " fill-opacity="1" fill-rule="nonzero"/><path fill="#ffffff" d="M 1011.390625 153.144531 L 997.542969 153.144531 C 997.167969 153.144531 996.980469 152.957031 996.980469 152.582031 L 996.980469 144.023438 C 996.980469 143.949219 997.007812 143.882812 997.058594 143.832031 C 997.113281 143.777344 997.175781 143.753906 997.25 143.753906 L 1011.308594 143.792969 C 1011.625 143.792969 1011.78125 143.632812 1011.78125 143.3125 L 1011.78125 126.066406 C 1011.78125 125.941406 1011.828125 125.828125 1011.917969 125.738281 C 1012.007812 125.648438 1012.117188 125.601562 1012.246094 125.601562 L 1022.460938 125.601562 C 1022.710938 125.601562 1022.835938 125.726562 1022.835938 125.976562 L 1022.835938 143.214844 C 1022.835938 143.371094 1022.890625 143.503906 1023 143.613281 C 1023.109375 143.722656 1023.242188 143.777344 1023.398438 143.777344 L 1047.566406 143.777344 C 1047.816406 143.777344 1047.941406 143.902344 1047.941406 144.152344 L 1047.941406 152.582031 C 1047.941406 152.957031 1047.753906 153.144531 1047.378906 153.144531 L 1023.21875 153.144531 C 1023.113281 153.144531 1023.023438 153.183594 1022.949219 153.257812 C 1022.875 153.332031 1022.835938 153.421875 1022.835938 153.527344 C 1022.835938 169.210938 1022.835938 184.949219 1022.835938 200.738281 C 1022.835938 202.253906 1022.980469 204.0625 1023.269531 206.15625 C 1025.121094 219.503906 1040.472656 219.683594 1049.113281 213.507812 C 1049.34375 213.34375 1049.519531 213.386719 1049.644531 213.636719 L 1053.105469 220.664062 C 1053.195312 220.847656 1053.214844 221.035156 1053.164062 221.230469 C 1053.117188 221.425781 1053.007812 221.582031 1052.84375 221.699219 C 1044.816406 227.351562 1033.34375 228.648438 1024.753906 225.058594 C 1014.871094 220.925781 1011.789062 212.113281 1011.789062 202.070312 C 1011.800781 185.886719 1011.792969 169.703125 1011.765625 153.519531 C 1011.765625 153.269531 1011.640625 153.144531 1011.390625 153.144531 Z M 1011.390625 153.144531 " fill-opacity="1" fill-rule="nonzero"/><path fill="#ffffff" d="M 1403.234375 189.53125 C 1398.136719 242.234375 1318.519531 238.089844 1319.5625 184.03125 C 1319.953125 163.847656 1332.910156 147.660156 1352.882812 143.914062 C 1381.917969 138.457031 1406.117188 159.695312 1403.234375 189.53125 Z M 1334.449219 169.125 C 1323.101562 192.628906 1338.960938 221.59375 1367.476562 216.582031 C 1402.664062 210.390625 1399.9375 154.164062 1362.492188 152.800781 C 1350.679688 152.375 1339.648438 158.347656 1334.449219 169.125 Z M 1334.449219 169.125 " fill-opacity="1" fill-rule="nonzero"/><path fill="#ffffff" d="M 1137.316406 211.792969 C 1137.3125 211.699219 1137.269531 211.640625 1137.179688 211.617188 C 1137.089844 211.589844 1137.023438 211.617188 1136.972656 211.695312 C 1128.054688 225.320312 1112.757812 229.253906 1097.421875 225.851562 C 1079.757812 221.9375 1072.914062 208.269531 1072.886719 191.316406 C 1072.851562 175.578125 1072.847656 159.835938 1072.878906 144.09375 C 1072.878906 143.867188 1072.988281 143.753906 1073.214844 143.753906 L 1083.542969 143.785156 C 1083.796875 143.789062 1083.925781 143.917969 1083.925781 144.167969 C 1083.914062 159.53125 1083.90625 174.890625 1083.902344 190.246094 C 1083.902344 204.238281 1090.0625 215.5 1105.246094 216.707031 C 1126.164062 218.363281 1136.714844 205.871094 1136.730469 186.09375 C 1136.746094 172.121094 1136.757812 158.152344 1136.761719 144.183594 C 1136.761719 143.925781 1136.890625 143.800781 1137.144531 143.800781 L 1147.621094 143.734375 C 1147.871094 143.734375 1147.996094 143.859375 1147.996094 144.105469 L 1147.996094 225.65625 C 1147.996094 225.8125 1147.941406 225.945312 1147.832031 226.054688 C 1147.722656 226.164062 1147.589844 226.21875 1147.433594 226.21875 L 1137.691406 226.21875 C 1137.441406 226.21875 1137.316406 226.09375 1137.316406 225.84375 Z M 1137.316406 211.792969 " fill-opacity="1" fill-rule="nonzero"/><path fill="#ffffff" d="M 1296.308594 226.21875 L 1285.800781 226.21875 C 1285.722656 226.21875 1285.65625 226.191406 1285.605469 226.136719 C 1285.550781 226.082031 1285.523438 226.019531 1285.523438 225.941406 L 1285.523438 144.054688 C 1285.523438 143.976562 1285.550781 143.914062 1285.605469 143.859375 C 1285.65625 143.804688 1285.722656 143.777344 1285.800781 143.777344 L 1296.300781 143.777344 C 1296.375 143.777344 1296.441406 143.804688 1296.496094 143.859375 C 1296.550781 143.914062 1296.578125 143.976562 1296.578125 144.054688 L 1296.585938 225.941406 C 1296.585938 226.019531 1296.558594 226.082031 1296.503906 226.136719 C 1296.449219 226.191406 1296.382812 226.21875 1296.308594 226.21875 Z M 1296.308594 226.21875 " fill-opacity="1" fill-rule="nonzero"/><path fill="#ffffff" d="M 68.476562 146.796875 L 91.921875 146.796875 C 92.296875 146.796875 92.65625 146.871094 93.003906 147.011719 C 93.347656 147.15625 93.652344 147.359375 93.917969 147.625 C 94.183594 147.890625 94.386719 148.195312 94.53125 148.542969 C 94.675781 148.886719 94.746094 149.25 94.746094 149.625 L 94.746094 149.742188 C 94.746094 150.117188 94.675781 150.476562 94.53125 150.824219 C 94.386719 151.171875 94.183594 151.476562 93.917969 151.742188 C 93.652344 152.007812 93.347656 152.210938 93.003906 152.355469 C 92.65625 152.496094 92.296875 152.570312 91.921875 152.570312 L 68.476562 152.570312 C 68.101562 152.570312 67.742188 152.496094 67.394531 152.355469 C 67.050781 152.210938 66.746094 152.007812 66.480469 151.742188 C 66.214844 151.476562 66.011719 151.171875 65.867188 150.824219 C 65.722656 150.476562 65.652344 150.117188 65.652344 149.742188 L 65.652344 149.625 C 65.652344 149.25 65.722656 148.886719 65.867188 148.542969 C 66.011719 148.195312 66.214844 147.890625 66.480469 147.625 C 66.746094 147.359375 67.050781 147.15625 67.394531 147.011719 C 67.742188 146.871094 68.101562 146.796875 68.476562 146.796875 Z M 68.476562 146.796875 " fill-opacity="1" fill-rule="nonzero"/><path fill="#ffffff" d="M 243.671875 146.796875 L 267.128906 146.796875 C 267.503906 146.796875 267.867188 146.871094 268.210938 147.011719 C 268.558594 147.15625 268.863281 147.359375 269.128906 147.625 C 269.394531 147.890625 269.597656 148.195312 269.742188 148.542969 C 269.882812 148.886719 269.957031 149.25 269.957031 149.625 L 269.957031 149.742188 C 269.957031 150.117188 269.882812 150.476562 269.742188 150.824219 C 269.597656 151.171875 269.394531 151.476562 269.128906 151.742188 C 268.863281 152.007812 268.558594 152.210938 268.210938 152.355469 C 267.867188 152.496094 267.503906 152.570312 267.128906 152.570312 L 243.671875 152.570312 C 243.296875 152.570312 242.9375 152.496094 242.589844 152.355469 C 242.246094 152.210938 241.9375 152.007812 241.675781 151.742188 C 241.410156 151.476562 241.203125 151.171875 241.0625 150.824219 C 240.917969 150.476562 240.847656 150.117188 240.847656 149.742188 L 240.847656 149.625 C 240.847656 149.25 240.917969 148.886719 241.0625 148.542969 C 241.203125 148.195312 241.410156 147.890625 241.675781 147.625 C 241.9375 147.359375 242.246094 147.15625 242.589844 147.011719 C 242.9375 146.871094 243.296875 146.796875 243.671875 146.796875 Z M 243.671875 146.796875 " fill-opacity="1" fill-rule="nonzero"/><path fill="#ffffff" d="M 70.171875 205.878906 L 90.5 194.140625 C 90.820312 193.957031 91.160156 193.839844 91.527344 193.792969 C 91.894531 193.742188 92.257812 193.765625 92.613281 193.863281 C 92.972656 193.957031 93.296875 194.117188 93.589844 194.34375 C 93.882812 194.570312 94.121094 194.839844 94.308594 195.160156 L 94.367188 195.265625 C 94.550781 195.585938 94.667969 195.929688 94.714844 196.296875 C 94.765625 196.660156 94.742188 197.023438 94.644531 197.378906 C 94.550781 197.738281 94.390625 198.0625 94.164062 198.355469 C 93.9375 198.648438 93.667969 198.890625 93.347656 199.074219 L 73.019531 210.808594 C 72.699219 210.996094 72.355469 211.113281 71.988281 211.160156 C 71.621094 211.207031 71.257812 211.183594 70.902344 211.089844 C 70.546875 210.992188 70.21875 210.832031 69.925781 210.609375 C 69.632812 210.382812 69.394531 210.109375 69.210938 209.789062 L 69.148438 209.6875 C 68.964844 209.367188 68.847656 209.023438 68.800781 208.65625 C 68.75 208.289062 68.773438 207.925781 68.871094 207.570312 C 68.964844 207.214844 69.128906 206.886719 69.351562 206.59375 C 69.578125 206.300781 69.851562 206.0625 70.171875 205.878906 Z M 70.171875 205.878906 " fill-opacity="1" fill-rule="nonzero"/><path fill="#ffffff" d="M 245.101562 194.148438 L 265.484375 205.914062 C 265.800781 206.097656 266.070312 206.332031 266.292969 206.625 C 266.515625 206.914062 266.671875 207.234375 266.769531 207.589844 C 266.863281 207.941406 266.886719 208.300781 266.839844 208.664062 C 266.789062 209.023438 266.675781 209.363281 266.492188 209.679688 L 266.410156 209.824219 C 266.226562 210.140625 265.992188 210.410156 265.699219 210.632812 C 265.410156 210.855469 265.089844 211.015625 264.734375 211.109375 C 264.382812 211.203125 264.023438 211.226562 263.660156 211.179688 C 263.296875 211.132812 262.957031 211.015625 262.640625 210.832031 L 242.261719 199.066406 C 241.945312 198.882812 241.675781 198.648438 241.453125 198.359375 C 241.230469 198.066406 241.070312 197.746094 240.976562 197.390625 C 240.882812 197.039062 240.859375 196.679688 240.90625 196.320312 C 240.953125 195.957031 241.070312 195.617188 241.253906 195.300781 L 241.335938 195.15625 C 241.519531 194.839844 241.753906 194.570312 242.042969 194.347656 C 242.335938 194.125 242.65625 193.964844 243.007812 193.871094 C 243.363281 193.777344 243.722656 193.753906 244.082031 193.800781 C 244.445312 193.847656 244.785156 193.964844 245.101562 194.148438 Z M 245.101562 194.148438 " fill-opacity="1" fill-rule="nonzero"/><path fill="#c8c8c1" d="M 152.84375 249.652344 L 182.808594 249.652344 C 183.109375 249.652344 183.402344 249.710938 183.683594 249.828125 C 183.964844 249.945312 184.210938 250.109375 184.425781 250.324219 C 184.640625 250.539062 184.804688 250.785156 184.921875 251.066406 C 185.035156 251.34375 185.09375 251.636719 185.09375 251.941406 L 185.09375 252.03125 C 185.09375 252.332031 185.035156 252.625 184.921875 252.90625 C 184.804688 253.183594 184.640625 253.433594 184.425781 253.644531 C 184.210938 253.859375 183.964844 254.027344 183.683594 254.140625 C 183.402344 254.257812 183.109375 254.316406 182.808594 254.316406 L 152.84375 254.316406 C 152.542969 254.316406 152.25 254.257812 151.96875 254.140625 C 151.691406 254.027344 151.441406 253.859375 151.226562 253.644531 C 151.015625 253.433594 150.847656 253.183594 150.734375 252.90625 C 150.617188 252.625 150.558594 252.332031 150.558594 252.03125 L 150.558594 251.941406 C 150.558594 251.636719 150.617188 251.34375 150.734375 251.066406 C 150.847656 250.785156 151.015625 250.539062 151.226562 250.324219 C 151.441406 250.109375 151.691406 249.945312 151.96875 249.828125 C 152.25 249.710938 152.542969 249.652344 152.84375 249.652344 Z M 152.84375 249.652344 " fill-opacity="1" fill-rule="nonzero"/><path fill="#c8c8c1" d="M 152.800781 258.078125 L 182.898438 258.078125 C 183.1875 258.078125 183.46875 258.132812 183.738281 258.246094 C 184.007812 258.355469 184.246094 258.515625 184.449219 258.722656 C 184.65625 258.925781 184.816406 259.164062 184.925781 259.433594 C 185.039062 259.703125 185.09375 259.984375 185.09375 260.273438 L 185.09375 260.558594 C 185.09375 260.851562 185.039062 261.128906 184.925781 261.398438 C 184.816406 261.667969 184.65625 261.90625 184.449219 262.113281 C 184.246094 262.316406 184.007812 262.476562 183.738281 262.585938 C 183.46875 262.699219 183.1875 262.753906 182.898438 262.753906 L 152.800781 262.753906 C 152.507812 262.753906 152.226562 262.699219 151.960938 262.585938 C 151.691406 262.476562 151.453125 262.316406 151.246094 262.113281 C 151.042969 261.90625 150.882812 261.667969 150.769531 261.398438 C 150.660156 261.128906 150.605469 260.851562 150.605469 260.558594 L 150.605469 260.273438 C 150.605469 259.984375 150.660156 259.703125 150.769531 259.433594 C 150.882812 259.164062 151.042969 258.925781 151.246094 258.722656 C 151.453125 258.515625 151.691406 258.355469 151.960938 258.246094 C 152.226562 258.132812 152.507812 258.078125 152.800781 258.078125 Z M 152.800781 258.078125 " fill-opacity="1" fill-rule="nonzero"/><path fill="#c8c8c1" d="M 152.917969 266.320312 L 182.792969 266.320312 C 183.097656 266.320312 183.386719 266.378906 183.667969 266.496094 C 183.949219 266.613281 184.195312 266.777344 184.410156 266.992188 C 184.625 267.207031 184.789062 267.453125 184.90625 267.734375 C 185.019531 268.011719 185.078125 268.304688 185.078125 268.609375 L 185.078125 268.699219 C 185.078125 269 185.019531 269.292969 184.90625 269.574219 C 184.789062 269.851562 184.625 270.101562 184.410156 270.3125 C 184.195312 270.527344 183.949219 270.695312 183.667969 270.808594 C 183.386719 270.925781 183.097656 270.984375 182.792969 270.984375 L 152.917969 270.984375 C 152.617188 270.984375 152.324219 270.925781 152.042969 270.808594 C 151.765625 270.695312 151.519531 270.527344 151.304688 270.3125 C 151.089844 270.101562 150.921875 269.851562 150.808594 269.574219 C 150.691406 269.292969 150.632812 269 150.632812 268.699219 L 150.632812 268.609375 C 150.632812 268.304688 150.691406 268.011719 150.808594 267.734375 C 150.921875 267.453125 151.089844 267.207031 151.304688 266.992188 C 151.519531 266.777344 151.765625 266.613281 152.042969 266.496094 C 152.324219 266.378906 152.617188 266.320312 152.917969 266.320312 Z M 152.917969 266.320312 " fill-opacity="1" fill-rule="nonzero"/></svg>