<?xml version="1.0" encoding="UTF-8" standalone="no"?>
<!DOCTYPE svg PUBLIC "-//W3C//DTD SVG 1.1//EN" "http://www.w3.org/Graphics/SVG/1.1/DTD/svg11.dtd">
<svg xmlns="http://www.w3.org/2000/svg" version="1.1" viewBox="0.00 0.00 1080.00 1350.00">
<g stroke-width="2.00" fill="none" stroke-linecap="butt">
<path stroke="#ffbfa7" vector-effect="non-scaling-stroke" d="
  M 547.47 385.57
  A 7.56 7.56 0.0 0 0 539.91 378.01
  L 539.59 378.01
  A 7.56 7.56 0.0 0 0 532.03 385.57
  L 532.03 449.79
  A 7.56 7.56 0.0 0 0 539.59 457.35
  L 539.91 457.35
  A 7.56 7.56 0.0 0 0 547.47 449.79
  L 547.47 385.57"
/>
<path stroke="#ffbfa7" vector-effect="non-scaling-stroke" d="
  M 386.5204 507.7707
  A 7.66 7.66 0.0 0 0 386.5204 496.9378
  L 341.3222 451.7396
  A 7.66 7.66 0.0 0 0 330.4893 451.7396
  L 330.3196 451.9093
  A 7.66 7.66 0.0 0 0 330.3196 462.7422
  L 375.5178 507.9404
  A 7.66 7.66 0.0 0 0 386.3507 507.9404
  L 386.5204 507.7707"
/>
<path stroke="#ffbfa7" vector-effect="non-scaling-stroke" d="
  M 749.1576 462.7002
  A 7.66 7.66 0.0 0 0 749.1387 451.8673
  L 748.9545 451.6838
  A 7.66 7.66 0.0 0 0 738.1217 451.7027
  L 693.0024 496.9798
  A 7.66 7.66 0.0 0 0 693.0213 507.8127
  L 693.2055 507.9962
  A 7.66 7.66 0.0 0 0 704.0383 507.9773
  L 749.1576 462.7002"
/>
<path stroke="#ffbfa7" vector-effect="non-scaling-stroke" d="
  M 489.40 932.07
  C 494.00 951.86 511.43 966.39 531.03 969.80
  C 563.89 975.52 590.87 951.35 591.98 918.76
  Q 592.31 909.06 591.46 897.67
  C 590.63 886.47 592.05 873.45 593.18 863.93
  C 595.62 843.23 605.23 822.34 617.56 805.31
  Q 626.29 793.26 647.48 763.50
  C 689.13 704.98 699.65 626.34 650.01 569.12
  C 575.36 483.09 428.23 516.01 400.23 627.24
  C 387.91 676.21 407.51 727.60 435.43 767.63
  Q 449.39 787.66 463.24 807.75
  C 475.13 824.99 488.08 850.82 488.01 872.12
  Q 487.95 892.16 488.03 912.18
  Q 488.09 926.39 489.40 932.07"
/>
<path stroke="#ffbfa7" vector-effect="non-scaling-stroke" d="
  M 341.41 607.46
  A 7.69 7.69 0.0 0 0 333.72 599.77
  L 269.74 599.77
  A 7.69 7.69 0.0 0 0 262.05 607.46
  L 262.05 607.80
  A 7.69 7.69 0.0 0 0 269.74 615.49
  L 333.72 615.49
  A 7.69 7.69 0.0 0 0 341.41 607.80
  L 341.41 607.46"
/>
<path stroke="#ffbfa7" vector-effect="non-scaling-stroke" d="
  M 817.30 607.32
  A 7.57 7.57 0.0 0 0 809.73 599.75
  L 745.83 599.75
  A 7.57 7.57 0.0 0 0 738.26 607.32
  L 738.26 607.94
  A 7.57 7.57 0.0 0 0 745.83 615.51
  L 809.73 615.51
  A 7.57 7.57 0.0 0 0 817.30 607.94
  L 817.30 607.32"
/>
<path stroke="#ffbfa7" vector-effect="non-scaling-stroke" d="
  M 340.1235 730.8227
  A 7.65 7.65 0.0 0 0 329.6685 728.0408
  L 274.3680 760.0974
  A 7.65 7.65 0.0 0 0 271.5862 770.5524
  L 271.7165 770.7773
  A 7.65 7.65 0.0 0 0 282.1715 773.5592
  L 337.4720 741.5026
  A 7.65 7.65 0.0 0 0 340.2538 731.0476
  L 340.1235 730.8227"
/>
<path stroke="#ffbfa7" vector-effect="non-scaling-stroke" d="
  M 807.9238 770.5424
  A 7.67 7.67 0.0 0 0 805.1347 760.0601
  L 749.8688 728.0236
  A 7.67 7.67 0.0 0 0 739.3865 730.8127
  L 739.2562 731.0376
  A 7.67 7.67 0.0 0 0 742.0453 741.5199
  L 797.3112 773.5564
  A 7.67 7.67 0.0 0 0 807.7935 770.7673
  L 807.9238 770.5424"
/>
<path stroke="#e4e4e0" vector-effect="non-scaling-stroke" d="
  M 586.78 885.06
  A 6.06 6.06 0.0 0 0 580.72 879.00
  L 498.80 879.00
  A 6.06 6.06 0.0 0 0 492.74 885.06
  L 492.74 885.44
  A 6.06 6.06 0.0 0 0 498.80 891.50
  L 580.72 891.50
  A 6.06 6.06 0.0 0 0 586.78 885.44
  L 586.78 885.06"
/>
<path stroke="#e4e4e0" vector-effect="non-scaling-stroke" d="
  M 586.79 908.13
  A 6.13 6.13 0.0 0 0 580.66 902.00
  L 498.88 902.00
  A 6.13 6.13 0.0 0 0 492.75 908.13
  L 492.75 908.37
  A 6.13 6.13 0.0 0 0 498.88 914.50
  L 580.66 914.50
  A 6.13 6.13 0.0 0 0 586.79 908.37
  L 586.79 908.13"
/>
<path stroke="#e4e4e0" vector-effect="non-scaling-stroke" d="
  M 586.79 930.31
  A 6.06 6.06 0.0 0 0 580.73 924.25
  L 498.83 924.25
  A 6.06 6.06 0.0 0 0 492.77 930.31
  L 492.77 930.69
  A 6.06 6.06 0.0 0 0 498.83 936.75
  L 580.73 936.75
  A 6.06 6.06 0.0 0 0 586.79 930.69
  L 586.79 930.31"
/>
</g>
<path fill="#ff7f4f" d="
  M 971.99 1001.30
  A 99.71 99.71 0.0 0 1 872.28 1101.01
  L 207.72 1101.01
  A 99.71 99.71 0.0 0 1 108.01 1001.30
  L 108.01 348.70
  A 99.71 99.71 0.0 0 1 207.72 248.99
  L 872.28 248.99
  A 99.71 99.71 0.0 0 1 971.99 348.70
  L 971.99 1001.30
  Z
  M 547.47 385.57
  A 7.56 7.56 0.0 0 0 539.91 378.01
  L 539.59 378.01
  A 7.56 7.56 0.0 0 0 532.03 385.57
  L 532.03 449.79
  A 7.56 7.56 0.0 0 0 539.59 457.35
  L 539.91 457.35
  A 7.56 7.56 0.0 0 0 547.47 449.79
  L 547.47 385.57
  Z
  M 386.5204 507.7707
  A 7.66 7.66 0.0 0 0 386.5204 496.9378
  L 341.3222 451.7396
  A 7.66 7.66 0.0 0 0 330.4893 451.7396
  L 330.3196 451.9093
  A 7.66 7.66 0.0 0 0 330.3196 462.7422
  L 375.5178 507.9404
  A 7.66 7.66 0.0 0 0 386.3507 507.9404
  L 386.5204 507.7707
  Z
  M 749.1576 462.7002
  A 7.66 7.66 0.0 0 0 749.1387 451.8673
  L 748.9545 451.6838
  A 7.66 7.66 0.0 0 0 738.1217 451.7027
  L 693.0024 496.9798
  A 7.66 7.66 0.0 0 0 693.0213 507.8127
  L 693.2055 507.9962
  A 7.66 7.66 0.0 0 0 704.0383 507.9773
  L 749.1576 462.7002
  Z
  M 489.40 932.07
  C 494.00 951.86 511.43 966.39 531.03 969.80
  C 563.89 975.52 590.87 951.35 591.98 918.76
  Q 592.31 909.06 591.46 897.67
  C 590.63 886.47 592.05 873.45 593.18 863.93
  C 595.62 843.23 605.23 822.34 617.56 805.31
  Q 626.29 793.26 647.48 763.50
  C 689.13 704.98 699.65 626.34 650.01 569.12
  C 575.36 483.09 428.23 516.01 400.23 627.24
  C 387.91 676.21 407.51 727.60 435.43 767.63
  Q 449.39 787.66 463.24 807.75
  C 475.13 824.99 488.08 850.82 488.01 872.12
  Q 487.95 892.16 488.03 912.18
  Q 488.09 926.39 489.40 932.07
  Z
  M 341.41 607.46
  A 7.69 7.69 0.0 0 0 333.72 599.77
  L 269.74 599.77
  A 7.69 7.69 0.0 0 0 262.05 607.46
  L 262.05 607.80
  A 7.69 7.69 0.0 0 0 269.74 615.49
  L 333.72 615.49
  A 7.69 7.69 0.0 0 0 341.41 607.80
  L 341.41 607.46
  Z
  M 817.30 607.32
  A 7.57 7.57 0.0 0 0 809.73 599.75
  L 745.83 599.75
  A 7.57 7.57 0.0 0 0 738.26 607.32
  L 738.26 607.94
  A 7.57 7.57 0.0 0 0 745.83 615.51
  L 809.73 615.51
  A 7.57 7.57 0.0 0 0 817.30 607.94
  L 817.30 607.32
  Z
  M 340.1235 730.8227
  A 7.65 7.65 0.0 0 0 329.6685 728.0408
  L 274.3680 760.0974
  A 7.65 7.65 0.0 0 0 271.5862 770.5524
  L 271.7165 770.7773
  A 7.65 7.65 0.0 0 0 282.1715 773.5592
  L 337.4720 741.5026
  A 7.65 7.65 0.0 0 0 340.2538 731.0476
  L 340.1235 730.8227
  Z
  M 807.9238 770.5424
  A 7.67 7.67 0.0 0 0 805.1347 760.0601
  L 749.8688 728.0236
  A 7.67 7.67 0.0 0 0 739.3865 730.8127
  L 739.2562 731.0376
  A 7.67 7.67 0.0 0 0 742.0453 741.5199
  L 797.3112 773.5564
  A 7.67 7.67 0.0 0 0 807.7935 770.7673
  L 807.9238 770.5424
  Z"
/>
<rect fill="#ffffff" x="532.03" y="378.01" width="15.44" height="79.34" rx="7.56"/>
<rect fill="#ffffff" x="-39.62" y="-7.78" transform="translate(358.42,479.84) rotate(45.0)" width="79.24" height="15.56" rx="7.66"/>
<rect fill="#ffffff" x="-7.79" y="-39.62" transform="translate(721.08,479.84) rotate(44.9)" width="15.58" height="79.24" rx="7.66"/>
<path fill="#ffffff" d="
  M 531.03 969.80
  C 511.43 966.39 494.00 951.86 489.40 932.07
  Q 488.09 926.39 488.03 912.18
  Q 487.95 892.16 488.01 872.12
  C 488.08 850.82 475.13 824.99 463.24 807.75
  Q 449.39 787.66 435.43 767.63
  C 407.51 727.60 387.91 676.21 400.23 627.24
  C 428.23 516.01 575.36 483.09 650.01 569.12
  C 699.65 626.34 689.13 704.98 647.48 763.50
  Q 626.29 793.26 617.56 805.31
  C 605.23 822.34 595.62 843.23 593.18 863.93
  C 592.05 873.45 590.63 886.47 591.46 897.67
  Q 592.31 909.06 591.98 918.76
  C 590.87 951.35 563.89 975.52 531.03 969.80
  Z
  M 586.78 885.06
  A 6.06 6.06 0.0 0 0 580.72 879.00
  L 498.80 879.00
  A 6.06 6.06 0.0 0 0 492.74 885.06
  L 492.74 885.44
  A 6.06 6.06 0.0 0 0 498.80 891.50
  L 580.72 891.50
  A 6.06 6.06 0.0 0 0 586.78 885.44
  L 586.78 885.06
  Z
  M 586.79 908.13
  A 6.13 6.13 0.0 0 0 580.66 902.00
  L 498.88 902.00
  A 6.13 6.13 0.0 0 0 492.75 908.13
  L 492.75 908.37
  A 6.13 6.13 0.0 0 0 498.88 914.50
  L 580.66 914.50
  A 6.13 6.13 0.0 0 0 586.79 908.37
  L 586.79 908.13
  Z
  M 586.79 930.31
  A 6.06 6.06 0.0 0 0 580.73 924.25
  L 498.83 924.25
  A 6.06 6.06 0.0 0 0 492.77 930.31
  L 492.77 930.69
  A 6.06 6.06 0.0 0 0 498.83 936.75
  L 580.73 936.75
  A 6.06 6.06 0.0 0 0 586.79 930.69
  L 586.79 930.31
  Z"
/>
<rect fill="#ffffff" x="262.05" y="599.77" width="79.36" height="15.72" rx="7.69"/>
<rect fill="#ffffff" x="738.26" y="599.75" width="79.04" height="15.76" rx="7.57"/>
<rect fill="#ffffff" x="-39.61" y="-7.78" transform="translate(305.92,750.80) rotate(-30.1)" width="79.22" height="15.56" rx="7.65"/>
<rect fill="#ffffff" x="-39.61" y="-7.80" transform="translate(773.59,750.79) rotate(30.1)" width="79.22" height="15.60" rx="7.67"/>
<rect fill="#c8c8c1" x="492.74" y="879.00" width="94.04" height="12.50" rx="6.06"/>
<rect fill="#c8c8c1" x="492.75" y="902.00" width="94.04" height="12.50" rx="6.13"/>
<rect fill="#c8c8c1" x="492.77" y="924.25" width="94.02" height="12.50" rx="6.06"/>
</svg>
