<svg xmlns="http://www.w3.org/2000/svg" xmlns:xlink="http://www.w3.org/1999/xlink" width="1414" zoomAndPan="magnify" viewBox="0 0 1060.5 261.749984" height="349" preserveAspectRatio="xMidYMid meet" version="1.0"><path stroke-linecap="butt" transform="matrix(0.56166, 0, 0, 0.56166, 0.542118, -1.302506)" fill="none" stroke-linejoin="miter" d="M 1166.924346 134.989335 L 1150.677866 135.121477 " stroke="#ffbfa7" stroke-width="2" stroke-opacity="1" stroke-miterlimit="4"/><path stroke-linecap="butt" transform="matrix(0.56166, 0, 0, 0.56166, 0.542118, -1.302506)" fill="none" stroke-linejoin="miter" d="M 227.229667 91.82767 C 227.229667 91.333877 227.1323 90.853994 226.944519 90.388021 C 226.749784 89.929002 226.478546 89.525622 226.130804 89.170926 C 225.776108 88.823184 225.372728 88.544991 224.906755 88.357211 C 224.447736 88.162476 223.967853 88.072063 223.467105 88.072063 L 223.293234 88.072063 C 222.792487 88.072063 222.312604 88.162476 221.853585 88.357211 C 221.387611 88.544991 220.984231 88.823184 220.63649 89.170926 C 220.281794 89.525622 220.010555 89.929002 219.81582 90.388021 C 219.62804 90.853994 219.530672 91.333877 219.530672 91.82767 L 219.530672 123.145262 C 219.530672 123.64601 219.62804 124.125893 219.81582 124.591866 C 220.010555 125.050885 220.281794 125.454265 220.63649 125.808961 C 220.984231 126.156703 221.387611 126.427941 221.853585 126.622676 C 222.312604 126.817412 222.792487 126.907824 223.293234 126.907824 L 223.467105 126.907824 C 223.967853 126.907824 224.447736 126.817412 224.906755 126.622676 C 225.372728 126.427941 225.776108 126.156703 226.130804 125.808961 C 226.478546 125.454265 226.749784 125.050885 226.944519 124.591866 C 227.1323 124.125893 227.229667 123.64601 227.229667 123.145262 L 227.229667 91.82767 " stroke="#ffbfa7" stroke-width="2" stroke-opacity="1" stroke-miterlimit="4"/><path stroke-linecap="butt" transform="matrix(0.56166, 0, 0, 0.56166, 0.542118, -1.302506)" fill="none" stroke-linejoin="miter" d="M 126.01605 124.404086 C 125.661354 124.056345 125.257974 123.785106 124.798955 123.597326 C 124.346891 123.402591 123.867008 123.312178 123.373215 123.312178 C 122.879423 123.312178 122.399539 123.402591 121.947476 123.597326 C 121.488457 123.785106 121.085077 124.056345 120.737335 124.404086 L 120.653878 124.487544 C 120.299181 124.835285 120.027943 125.238665 119.840163 125.697684 C 119.652382 126.156703 119.561969 126.629631 119.561969 127.123424 C 119.561969 127.617217 119.652382 128.0971 119.840163 128.549164 C 120.027943 129.008182 120.299181 129.411563 120.653878 129.759304 L 142.728503 151.840884 C 143.076244 152.188625 143.479624 152.452909 143.938643 152.647644 C 144.397662 152.835424 144.87059 152.925837 145.364383 152.925837 C 145.858175 152.925837 146.338059 152.835424 146.797077 152.647644 C 147.249141 152.452909 147.652521 152.188625 148.000263 151.840884 L 148.083721 151.750471 C 148.438417 151.40273 148.709655 150.99935 148.897435 150.540331 C 149.085216 150.081312 149.182583 149.608384 149.182583 149.114591 C 149.182583 148.620798 149.085216 148.14787 148.897435 147.688851 C 148.709655 147.229833 148.438417 146.826453 148.083721 146.478711 L 126.01605 124.404086 " stroke="#ffbfa7" stroke-width="2" stroke-opacity="1" stroke-miterlimit="4"/><path stroke-linecap="butt" transform="matrix(0.56166, 0, 0, 0.56166, 0.542118, -1.302506)" fill="none" stroke-linejoin="miter" d="M 326.113417 129.807988 C 326.461158 129.453291 326.732396 129.049911 326.920177 128.590893 C 327.107957 128.138829 327.205325 127.658946 327.205325 127.158198 C 327.205325 126.664405 327.107957 126.191477 326.920177 125.732458 C 326.732396 125.27344 326.461158 124.87006 326.113417 124.515363 L 326.009094 124.417996 C 325.661353 124.070254 325.257973 123.799016 324.798954 123.604281 C 324.339936 123.4165 323.867007 123.326088 323.36626 123.326088 C 322.872467 123.326088 322.392584 123.4165 321.933565 123.604281 C 321.474546 123.799016 321.078121 124.070254 320.723425 124.417996 L 298.690529 146.450892 C 298.342787 146.805588 298.071549 147.208968 297.876814 147.667987 C 297.689033 148.127006 297.598621 148.599934 297.598621 149.100682 C 297.598621 149.594474 297.689033 150.067403 297.876814 150.526421 C 298.071549 150.98544 298.342787 151.38882 298.690529 151.743516 L 298.787896 151.840884 C 299.135638 152.188625 299.545972 152.459864 300.004991 152.654599 C 300.46401 152.842379 300.936938 152.932792 301.430731 152.932792 C 301.924524 152.932792 302.404407 152.842379 302.863426 152.654599 C 303.322444 152.459864 303.725824 152.188625 304.080521 151.840884 L 326.113417 129.807988 " stroke="#ffbfa7" stroke-width="2" stroke-opacity="1" stroke-miterlimit="4"/><path stroke-linecap="butt" transform="matrix(0.56166, 0, 0, 0.56166, 0.542118, -1.302506)" fill="none" stroke-linejoin="miter" d="M 292.521596 240.229798 C 301.67415 191.977198 261.523926 151.263633 213.257417 159.004357 C 173.538392 165.381935 144.613261 201.769597 154.962046 242.260607 C 160.964063 265.760972 173.809631 282.056135 186.717792 301.021952 C 191.523578 308.081103 194.91058 315.703595 196.885751 323.889428 C 198.777464 331.762293 197.970704 341.269544 197.998524 349.740525 C 198.026343 356.132012 198.56882 360.701334 199.605089 363.448491 C 208.131709 385.752626 241.417517 384.250383 248.010694 360.986482 C 248.713132 358.489699 249.019144 354.78973 248.907867 349.879621 C 248.497532 331.470191 249.61726 315.453221 259.673941 301.168004 C 273.291495 281.798807 287.987048 264.168317 292.521596 240.229798 " stroke="#ffbfa7" stroke-width="2" stroke-opacity="1" stroke-miterlimit="4"/><path stroke-linecap="butt" transform="matrix(0.56166, 0, 0, 0.56166, 0.542118, -1.302506)" fill="none" stroke-linejoin="miter" d="M 125.911728 200.802876 C 125.911728 200.302128 125.81436 199.81529 125.619625 199.356271 C 125.431845 198.897253 125.160606 198.486918 124.80591 198.132221 C 124.451214 197.777525 124.040879 197.506287 123.58186 197.318507 C 123.122842 197.130726 122.642958 197.026404 122.142211 197.026404 L 90.859393 197.026404 C 90.358645 197.026404 89.878762 197.130726 89.412789 197.318507 C 88.95377 197.506287 88.55039 197.777525 88.195694 198.132221 C 87.840997 198.486918 87.569759 198.897253 87.375024 199.356271 C 87.187243 199.81529 87.089876 200.302128 87.089876 200.802876 L 87.089876 200.955882 C 87.089876 201.456629 87.187243 201.936513 87.375024 202.402486 C 87.569759 202.86846 87.840997 203.27184 88.195694 203.626536 C 88.55039 203.981232 88.95377 204.25247 89.412789 204.447206 C 89.878762 204.634986 90.358645 204.732354 90.859393 204.732354 L 122.142211 204.732354 C 122.642958 204.732354 123.122842 204.634986 123.58186 204.447206 C 124.040879 204.25247 124.451214 203.981232 124.80591 203.626536 C 125.160606 203.27184 125.431845 202.86846 125.619625 202.402486 C 125.81436 201.936513 125.911728 201.456629 125.911728 200.955882 L 125.911728 200.802876 " stroke="#ffbfa7" stroke-width="2" stroke-opacity="1" stroke-miterlimit="4"/><path stroke-linecap="butt" transform="matrix(0.56166, 0, 0, 0.56166, 0.542118, -1.302506)" fill="none" stroke-linejoin="miter" d="M 359.691328 200.802876 C 359.691328 200.302128 359.59396 199.81529 359.40618 199.356271 C 359.211445 198.897253 358.940207 198.486918 358.58551 198.132221 C 358.230814 197.777525 357.827434 197.506287 357.361461 197.318507 C 356.902442 197.130726 356.415604 197.026404 355.914856 197.026404 L 324.618129 197.026404 C 324.117381 197.026404 323.637498 197.130726 323.178479 197.318507 C 322.719461 197.506287 322.302171 197.777525 321.954429 198.132221 C 321.599733 198.486918 321.328495 198.897253 321.140714 199.356271 C 320.945979 199.81529 320.848612 200.302128 320.848612 200.802876 L 320.848612 200.955882 C 320.848612 201.456629 320.945979 201.936513 321.140714 202.402486 C 321.328495 202.86846 321.599733 203.27184 321.954429 203.626536 C 322.302171 203.981232 322.719461 204.25247 323.178479 204.447206 C 323.637498 204.634986 324.117381 204.732354 324.618129 204.732354 L 355.914856 204.732354 C 356.415604 204.732354 356.902442 204.634986 357.361461 204.447206 C 357.827434 204.25247 358.230814 203.981232 358.58551 203.626536 C 358.940207 203.27184 359.211445 202.86846 359.40618 202.402486 C 359.59396 201.936513 359.691328 201.456629 359.691328 200.955882 L 359.691328 200.802876 " stroke="#ffbfa7" stroke-width="2" stroke-opacity="1" stroke-miterlimit="4"/><path stroke-linecap="butt" transform="matrix(0.56166, 0, 0, 0.56166, 0.542118, -1.302506)" fill="none" stroke-linejoin="miter" d="M 125.327522 261.560256 C 125.077148 261.129057 124.757226 260.77436 124.367756 260.468348 C 123.978285 260.16929 123.540131 259.953691 123.067203 259.828504 C 122.58732 259.696362 122.107437 259.668543 121.613644 259.738091 C 121.126806 259.800685 120.674742 259.953691 120.243543 260.19711 L 93.119712 275.859383 C 92.695468 276.102802 92.326862 276.422724 92.027804 276.812195 C 91.728746 277.20862 91.513147 277.646774 91.38796 278.119702 C 91.255818 278.592631 91.221044 279.079469 91.290592 279.566307 C 91.353186 280.0601 91.513147 280.512163 91.756566 280.943363 L 91.840024 281.075504 C 92.083443 281.506704 92.403365 281.868355 92.792835 282.174367 C 93.182306 282.473425 93.62046 282.68207 94.093388 282.814212 C 94.566316 282.939398 95.053154 282.967218 95.546947 282.904624 C 96.033785 282.842031 96.492804 282.689025 96.917048 282.438651 L 124.040879 266.783332 C 124.472078 266.539913 124.833729 266.213036 125.132787 265.823566 C 125.438799 265.434095 125.647444 264.995941 125.772631 264.523013 C 125.904773 264.04313 125.932592 263.563247 125.869999 263.076409 C 125.807405 262.582616 125.647444 262.130552 125.404025 261.699353 L 125.327522 261.560256 " stroke="#ffbfa7" stroke-width="2" stroke-opacity="1" stroke-miterlimit="4"/><path stroke-linecap="butt" transform="matrix(0.56166, 0, 0, 0.56166, 0.542118, -1.302506)" fill="none" stroke-linejoin="miter" d="M 355.066367 280.929453 C 355.316741 280.512163 355.462792 280.0601 355.532341 279.580216 C 355.594934 279.093378 355.567115 278.613495 355.441928 278.140567 C 355.309786 277.667639 355.101141 277.243394 354.802084 276.853924 C 354.503026 276.464453 354.14833 276.151486 353.724085 275.908067 L 326.530706 260.211019 C 326.106462 259.9676 325.654398 259.807639 325.16756 259.745046 C 324.687677 259.682452 324.207794 259.717227 323.734865 259.842413 C 323.261937 259.9676 322.837693 260.176245 322.448222 260.475303 C 322.058752 260.77436 321.745785 261.129057 321.502366 261.553301 L 321.391088 261.748036 C 321.147669 262.172281 320.994663 262.624345 320.93207 263.104228 C 320.869476 263.584111 320.897295 264.063994 321.022482 264.536923 C 321.147669 265.009851 321.363269 265.434095 321.662327 265.830521 C 321.954429 266.213036 322.31608 266.526004 322.740325 266.769423 L 349.926749 282.473425 C 350.350994 282.716844 350.803057 282.86985 351.289895 282.932444 C 351.776733 282.995037 352.256617 282.967218 352.72259 282.842031 C 353.195518 282.716844 353.626718 282.501244 354.009233 282.202187 C 354.398704 281.910084 354.711671 281.548433 354.962045 281.124188 L 355.066367 280.929453 " stroke="#ffbfa7" stroke-width="2" stroke-opacity="1" stroke-miterlimit="4"/><path stroke-linecap="butt" transform="matrix(0.56166, 0, 0, 0.56166, 0.542118, -1.302506)" fill="none" stroke-linejoin="miter" d="M 1165.901986 139.24569 L 1165.881121 137.659989 C 1165.881121 137.548712 1165.839392 137.451344 1165.755934 137.367886 C 1165.679431 137.284428 1165.582064 137.249654 1165.470786 137.249654 L 1165.338645 137.249654 C 1164.441472 137.256609 1163.551254 137.263564 1162.674945 137.277473 C 1161.791682 137.291383 1160.936238 137.305293 1160.108614 137.326157 C 1159.280989 137.347022 1158.495094 137.374841 1157.750927 137.40266 C 1156.999805 137.43048 1156.311277 137.451344 1155.685343 137.486118 C 1155.052454 137.513938 1154.489112 137.548712 1153.99532 137.583486 C 1153.501527 137.61826 1153.084237 137.659989 1152.750405 137.694763 C 1152.409619 137.729537 1152.15229 137.764311 1151.985374 137.80604 C 1151.818458 137.847769 1151.741955 137.882543 1151.74891 137.917318 L 1151.74891 139.183096 C 1151.755865 139.21787 1151.853232 139.252645 1152.027103 139.287419 C 1152.214884 139.329148 1152.472212 139.356967 1152.819954 139.391741 C 1153.167695 139.419561 1153.59194 139.454335 1154.085732 139.475199 C 1154.58648 139.503018 1155.149821 139.530838 1155.775756 139.551702 C 1156.4156 139.572567 1157.097173 139.593431 1157.834385 139.607341 C 1158.578552 139.621251 1159.357492 139.63516 1160.185117 139.642115 C 1160.998832 139.656025 1161.847321 139.656025 1162.723629 139.656025 C 1163.592983 139.656025 1164.469291 139.656025 1165.359509 139.64907 L 1165.484696 139.64907 C 1165.602928 139.64907 1165.700296 139.614296 1165.776799 139.530838 C 1165.860257 139.454335 1165.901986 139.350012 1165.901986 139.24569 " stroke="#e4e4e0" stroke-width="2" stroke-opacity="1" stroke-miterlimit="4"/><path stroke-linecap="butt" transform="matrix(0.56166, 0, 0, 0.56166, 0.542118, -1.302506)" fill="none" stroke-linejoin="miter" d="M 1165.92285 141.895479 C 1165.92285 141.714654 1165.860257 141.554693 1165.728115 141.422551 C 1165.595973 141.290409 1165.442967 141.220861 1165.255187 141.220861 L 1152.513941 141.158268 C 1152.326161 141.158268 1152.173155 141.220861 1152.041013 141.346048 C 1151.908871 141.47819 1151.839323 141.638151 1151.839323 141.818976 L 1151.839323 142.145853 C 1151.839323 142.326679 1151.901916 142.48664 1152.034058 142.618782 C 1152.159245 142.750923 1152.319206 142.820472 1152.506986 142.820472 L 1165.248232 142.883065 C 1165.429057 142.883065 1165.589018 142.820472 1165.72116 142.68833 C 1165.853302 142.556188 1165.92285 142.403182 1165.92285 142.215402 L 1165.92285 141.895479 " stroke="#e4e4e0" stroke-width="2" stroke-opacity="1" stroke-miterlimit="4"/><path stroke-linecap="butt" transform="matrix(0.56166, 0, 0, 0.56166, 0.542118, -1.302506)" fill="none" stroke-linejoin="miter" d="M 1165.93676 145.212933 C 1165.93676 144.976468 1165.846347 144.774778 1165.672476 144.607862 C 1165.505561 144.433992 1165.296916 144.357489 1165.053497 144.357489 L 1152.938186 144.50354 C 1152.694767 144.50354 1152.493077 144.593953 1152.326161 144.767824 C 1152.159245 144.941694 1152.075787 145.143384 1152.075787 145.379848 L 1152.082742 145.706725 C 1152.089697 145.94319 1152.173155 146.151834 1152.34007 146.311795 C 1152.513941 146.478711 1152.722586 146.562169 1152.966005 146.562169 L 1165.081316 146.416118 C 1165.31778 146.416118 1165.526425 146.325705 1165.693341 146.151834 C 1165.860257 145.984918 1165.943715 145.776274 1165.943715 145.532855 L 1165.93676 145.212933 " stroke="#e4e4e0" stroke-width="2" stroke-opacity="1" stroke-miterlimit="4"/><path stroke-linecap="butt" transform="matrix(0.56166, 0, 0, 0.56166, 0.542118, -1.302506)" fill="none" stroke-linejoin="miter" d="M 246.459768 337.319201 C 246.459768 336.915821 246.383265 336.526351 246.230258 336.157745 C 246.077252 335.782184 245.854698 335.448353 245.56955 335.163205 C 245.284402 334.878057 244.95057 334.655502 244.575009 334.502496 C 244.199448 334.342535 243.809978 334.266032 243.413553 334.266032 L 203.430245 334.266032 C 203.026865 334.266032 202.637394 334.342535 202.261833 334.502496 C 201.893228 334.655502 201.559396 334.878057 201.274248 335.163205 C 200.9891 335.448353 200.766545 335.782184 200.613539 336.157745 C 200.460533 336.526351 200.377075 336.915821 200.377075 337.319201 L 200.377075 337.444388 C 200.377075 337.840813 200.460533 338.237239 200.613539 338.605845 C 200.766545 338.981405 200.9891 339.315237 201.274248 339.59343 C 201.559396 339.878578 201.893228 340.108088 202.261833 340.254139 C 202.637394 340.4141 203.026865 340.490603 203.430245 340.490603 L 243.413553 340.490603 C 243.809978 340.490603 244.199448 340.4141 244.575009 340.254139 C 244.95057 340.108088 245.284402 339.878578 245.56955 339.59343 C 245.854698 339.315237 246.077252 338.981405 246.230258 338.605845 C 246.383265 338.237239 246.459768 337.840813 246.459768 337.444388 L 246.459768 337.319201 " stroke="#e4e4e0" stroke-width="2" stroke-opacity="1" stroke-miterlimit="4"/><path stroke-linecap="butt" transform="matrix(0.56166, 0, 0, 0.56166, 0.542118, -1.302506)" fill="none" stroke-linejoin="miter" d="M 246.459768 348.439972 C 246.459768 348.050501 246.383265 347.674941 246.237213 347.320245 C 246.091162 346.958593 245.875562 346.638671 245.597369 346.367433 C 245.326131 346.096195 245.013163 345.880595 244.651512 345.734544 C 244.289861 345.581537 243.9143 345.511989 243.531785 345.511989 L 203.374606 345.511989 C 202.978181 345.511989 202.60262 345.581537 202.247924 345.734544 C 201.893228 345.880595 201.573305 346.096195 201.295112 346.367433 C 201.023874 346.638671 200.815229 346.958593 200.662223 347.320245 C 200.516172 347.674941 200.439668 348.050501 200.439668 348.439972 L 200.439668 348.822487 C 200.439668 349.211958 200.516172 349.580564 200.662223 349.942215 C 200.815229 350.296911 201.023874 350.616833 201.295112 350.895026 C 201.573305 351.166265 201.893228 351.381864 202.247924 351.527916 C 202.60262 351.673967 202.978181 351.75047 203.374606 351.75047 L 243.531785 351.75047 C 243.9143 351.75047 244.289861 351.673967 244.651512 351.527916 C 245.013163 351.381864 245.326131 351.166265 245.597369 350.895026 C 245.875562 350.616833 246.091162 350.296911 246.237213 349.942215 C 246.383265 349.580564 246.459768 349.211958 246.459768 348.822487 L 246.459768 348.439972 " stroke="#e4e4e0" stroke-width="2" stroke-opacity="1" stroke-miterlimit="4"/><path stroke-linecap="butt" transform="matrix(0.56166, 0, 0, 0.56166, 0.542118, -1.302506)" fill="none" stroke-linejoin="miter" d="M 246.438903 359.560742 C 246.438903 359.157362 246.3624 358.760937 246.209394 358.392331 C 246.056388 358.016771 245.833833 357.689894 245.548685 357.404746 C 245.263537 357.119598 244.929705 356.897043 244.554145 356.744037 C 244.178584 356.584076 243.796068 356.507573 243.392688 356.507573 L 203.527612 356.507573 C 203.124232 356.507573 202.734762 356.584076 202.359201 356.744037 C 201.990595 356.897043 201.663718 357.119598 201.37857 357.404746 C 201.086467 357.689894 200.863913 358.016771 200.710907 358.392331 C 200.5579 358.760937 200.481397 359.157362 200.481397 359.560742 L 200.481397 359.678975 C 200.481397 360.082355 200.5579 360.471825 200.710907 360.847386 C 200.863913 361.215992 201.086467 361.549823 201.37857 361.834971 C 201.663718 362.120119 201.990595 362.342674 202.359201 362.49568 C 202.734762 362.655641 203.124232 362.732144 203.527612 362.732144 L 243.392688 362.732144 C 243.796068 362.732144 244.178584 362.655641 244.554145 362.49568 C 244.929705 362.342674 245.263537 362.120119 245.548685 361.834971 C 245.833833 361.549823 246.056388 361.215992 246.209394 360.847386 C 246.3624 360.471825 246.438903 360.082355 246.438903 359.678975 L 246.438903 359.560742 " stroke="#e4e4e0" stroke-width="2" stroke-opacity="1" stroke-miterlimit="4"/><path fill="#fe6118" d="M 7.714844 59.027344 C 12.429688 33.003906 34.753906 12.722656 61.832031 12.726562 C 104.625 12.742188 147.421875 12.746094 190.222656 12.734375 C 217.601562 12.726562 240.488281 33.304688 244.65625 59.992188 C 245.070312 62.640625 245.273438 66.367188 245.273438 71.183594 C 245.285156 110.257812 245.289062 149.332031 245.285156 188.402344 C 245.285156 193.34375 245.109375 197.074219 244.75 199.605469 C 241 226.226562 218.039062 247.503906 190.691406 247.507812 C 147.84375 247.515625 105 247.515625 62.152344 247.515625 C 58.34375 247.507812 55.199219 247.277344 52.714844 246.816406 C 29.726562 242.515625 11.894531 224.371094 7.851562 201.417969 C 7.367188 198.683594 7.125 195.042969 7.128906 190.503906 C 7.144531 148.703125 7.15625 106.90625 7.164062 65.113281 C 7.164062 63.0625 7.347656 61.03125 7.714844 59.027344 Z M 128.167969 50.273438 C 128.167969 49.996094 128.113281 49.726562 128.007812 49.464844 C 127.898438 49.207031 127.746094 48.980469 127.546875 48.78125 C 127.351562 48.585938 127.125 48.429688 126.863281 48.324219 C 126.605469 48.214844 126.335938 48.164062 126.054688 48.164062 L 125.957031 48.164062 C 125.675781 48.164062 125.40625 48.214844 125.148438 48.324219 C 124.886719 48.429688 124.660156 48.585938 124.464844 48.78125 C 124.265625 48.980469 124.113281 49.207031 124.003906 49.464844 C 123.898438 49.726562 123.84375 49.996094 123.84375 50.273438 L 123.84375 67.863281 C 123.84375 68.144531 123.898438 68.414062 124.003906 68.675781 C 124.113281 68.933594 124.265625 69.160156 124.464844 69.359375 C 124.660156 69.554688 124.886719 69.707031 125.148438 69.816406 C 125.40625 69.925781 125.675781 69.976562 125.957031 69.976562 L 126.054688 69.976562 C 126.335938 69.976562 126.605469 69.925781 126.863281 69.816406 C 127.125 69.707031 127.351562 69.554688 127.546875 69.359375 C 127.746094 69.160156 127.898438 68.933594 128.007812 68.675781 C 128.113281 68.414062 128.167969 68.144531 128.167969 67.863281 Z M 71.320312 68.570312 C 71.121094 68.375 70.894531 68.222656 70.636719 68.117188 C 70.382812 68.007812 70.113281 67.957031 69.835938 67.957031 C 69.558594 67.957031 69.289062 68.007812 69.035156 68.117188 C 68.777344 68.222656 68.550781 68.375 68.355469 68.570312 L 68.308594 68.617188 C 68.109375 68.8125 67.957031 69.039062 67.851562 69.296875 C 67.746094 69.554688 67.695312 69.820312 67.695312 70.097656 C 67.695312 70.375 67.746094 70.644531 67.851562 70.898438 C 67.957031 71.15625 68.109375 71.382812 68.308594 71.578125 L 80.707031 83.980469 C 80.902344 84.175781 81.128906 84.324219 81.386719 84.433594 C 81.644531 84.539062 81.910156 84.589844 82.1875 84.589844 C 82.464844 84.589844 82.734375 84.539062 82.992188 84.433594 C 83.246094 84.324219 83.472656 84.175781 83.667969 83.980469 L 83.714844 83.929688 C 83.914062 83.734375 84.066406 83.507812 84.171875 83.25 C 84.277344 82.992188 84.332031 82.726562 84.332031 82.449219 C 84.332031 82.171875 84.277344 81.90625 84.171875 81.648438 C 84.066406 81.390625 83.914062 81.164062 83.714844 80.96875 Z M 183.707031 71.605469 C 183.902344 71.40625 184.054688 71.179688 184.160156 70.921875 C 184.265625 70.667969 184.320312 70.398438 184.320312 70.117188 C 184.320312 69.839844 184.265625 69.574219 184.160156 69.316406 C 184.054688 69.058594 183.902344 68.832031 183.707031 68.632812 L 183.648438 68.578125 C 183.453125 68.382812 183.226562 68.230469 182.96875 68.121094 C 182.710938 68.015625 182.445312 67.964844 182.164062 67.964844 C 181.886719 67.964844 181.617188 68.015625 181.359375 68.121094 C 181.101562 68.230469 180.878906 68.382812 180.679688 68.578125 L 168.304688 80.953125 C 168.109375 81.152344 167.957031 81.378906 167.847656 81.636719 C 167.742188 81.894531 167.6875 82.160156 167.6875 82.441406 C 167.6875 82.71875 167.742188 82.984375 167.847656 83.242188 C 167.957031 83.5 168.109375 83.726562 168.304688 83.925781 L 168.359375 83.980469 C 168.554688 84.175781 168.785156 84.328125 169.042969 84.4375 C 169.300781 84.542969 169.566406 84.59375 169.84375 84.59375 C 170.121094 84.59375 170.390625 84.542969 170.648438 84.4375 C 170.90625 84.328125 171.132812 84.175781 171.332031 83.980469 Z M 164.839844 133.625 C 169.980469 106.523438 147.429688 83.65625 120.320312 88.003906 C 98.011719 91.585938 81.765625 112.023438 87.578125 134.765625 C 90.949219 147.964844 98.164062 157.117188 105.414062 167.769531 C 108.113281 171.734375 110.015625 176.015625 111.125 180.613281 C 112.1875 185.035156 111.734375 190.375 111.75 195.132812 C 111.765625 198.722656 112.070312 201.289062 112.652344 202.832031 C 117.441406 215.359375 136.136719 214.515625 139.839844 201.449219 C 140.234375 200.046875 140.40625 197.96875 140.34375 195.210938 C 140.113281 184.871094 140.742188 175.875 146.390625 167.851562 C 154.039062 156.972656 162.292969 147.070312 164.839844 133.625 Z M 71.261719 111.480469 C 71.261719 111.199219 71.207031 110.925781 71.097656 110.667969 C 70.992188 110.410156 70.839844 110.179688 70.640625 109.980469 C 70.441406 109.78125 70.210938 109.628906 69.953125 109.523438 C 69.695312 109.417969 69.425781 109.359375 69.144531 109.359375 L 51.574219 109.359375 C 51.292969 109.359375 51.023438 109.417969 50.761719 109.523438 C 50.503906 109.628906 50.277344 109.78125 50.078125 109.980469 C 49.878906 110.179688 49.726562 110.410156 49.617188 110.667969 C 49.511719 110.925781 49.457031 111.199219 49.457031 111.480469 L 49.457031 111.566406 C 49.457031 111.847656 49.511719 112.117188 49.617188 112.378906 C 49.726562 112.640625 49.878906 112.867188 50.078125 113.066406 C 50.277344 113.265625 50.503906 113.417969 50.761719 113.527344 C 51.023438 113.632812 51.292969 113.6875 51.574219 113.6875 L 69.144531 113.6875 C 69.425781 113.6875 69.695312 113.632812 69.953125 113.527344 C 70.210938 113.417969 70.441406 113.265625 70.640625 113.066406 C 70.839844 112.867188 70.992188 112.640625 71.097656 112.378906 C 71.207031 112.117188 71.261719 111.847656 71.261719 111.566406 Z M 202.566406 111.480469 C 202.566406 111.199219 202.511719 110.925781 202.40625 110.667969 C 202.296875 110.410156 202.144531 110.179688 201.945312 109.980469 C 201.746094 109.78125 201.519531 109.628906 201.257812 109.523438 C 201 109.417969 200.726562 109.359375 200.445312 109.359375 L 182.867188 109.359375 C 182.585938 109.359375 182.316406 109.417969 182.058594 109.523438 C 181.800781 109.628906 181.566406 109.78125 181.371094 109.980469 C 181.171875 110.179688 181.019531 110.410156 180.914062 110.667969 C 180.804688 110.925781 180.75 111.199219 180.75 111.480469 L 180.75 111.566406 C 180.75 111.847656 180.804688 112.117188 180.914062 112.378906 C 181.019531 112.640625 181.171875 112.867188 181.371094 113.066406 C 181.566406 113.265625 181.800781 113.417969 182.058594 113.527344 C 182.316406 113.632812 182.585938 113.6875 182.867188 113.6875 L 200.445312 113.6875 C 200.726562 113.6875 201 113.632812 201.257812 113.527344 C 201.519531 113.417969 201.746094 113.265625 201.945312 113.066406 C 202.144531 112.867188 202.296875 112.640625 202.40625 112.378906 C 202.511719 112.117188 202.566406 111.847656 202.566406 111.566406 Z M 70.933594 145.605469 C 70.792969 145.363281 70.613281 145.164062 70.394531 144.992188 C 70.175781 144.824219 69.929688 144.703125 69.664062 144.632812 C 69.394531 144.558594 69.125 144.542969 68.847656 144.582031 C 68.574219 144.617188 68.320312 144.703125 68.078125 144.839844 L 52.84375 153.636719 C 52.605469 153.773438 52.398438 153.953125 52.230469 154.171875 C 52.0625 154.394531 51.941406 154.640625 51.871094 154.90625 C 51.796875 155.171875 51.777344 155.445312 51.816406 155.71875 C 51.851562 155.996094 51.941406 156.25 52.078125 156.492188 L 52.125 156.566406 C 52.261719 156.808594 52.441406 157.011719 52.660156 157.183594 C 52.878906 157.347656 53.125 157.46875 53.390625 157.542969 C 53.65625 157.613281 53.929688 157.628906 54.207031 157.59375 C 54.480469 157.558594 54.738281 157.472656 54.976562 157.332031 L 70.210938 148.539062 C 70.453125 148.402344 70.65625 148.21875 70.824219 148 C 70.996094 147.78125 71.113281 147.535156 71.183594 147.265625 C 71.257812 147 71.273438 146.730469 71.238281 146.457031 C 71.203125 146.179688 71.113281 145.925781 70.976562 145.683594 Z M 199.96875 156.484375 C 200.109375 156.25 200.191406 155.996094 200.230469 155.726562 C 200.265625 155.453125 200.246094 155.183594 200.179688 154.917969 C 200.105469 154.652344 199.988281 154.414062 199.820312 154.195312 C 199.652344 153.976562 199.453125 153.800781 199.214844 153.664062 L 183.9375 144.847656 C 183.703125 144.710938 183.449219 144.621094 183.175781 144.585938 C 182.90625 144.550781 182.636719 144.570312 182.371094 144.640625 C 182.105469 144.710938 181.867188 144.828125 181.648438 144.996094 C 181.429688 145.164062 181.253906 145.363281 181.117188 145.601562 L 181.054688 145.710938 C 180.917969 145.949219 180.832031 146.203125 180.796875 146.472656 C 180.761719 146.742188 180.777344 147.011719 180.847656 147.277344 C 180.917969 147.542969 181.039062 147.78125 181.207031 148.003906 C 181.371094 148.21875 181.574219 148.394531 181.8125 148.53125 L 197.082031 157.347656 C 197.320312 157.488281 197.574219 157.574219 197.847656 157.609375 C 198.121094 157.644531 198.390625 157.628906 198.652344 157.558594 C 198.917969 157.488281 199.160156 157.367188 199.375 157.199219 C 199.59375 157.035156 199.769531 156.832031 199.910156 156.59375 Z M 199.96875 156.484375 " fill-opacity="1" fill-rule="nonzero"/><path fill="#fe6118" d="M 651.351562 32.414062 L 651.398438 32.414062 C 651.585938 32.414062 651.742188 32.476562 651.871094 32.609375 C 652.003906 32.742188 652.066406 32.898438 652.066406 33.082031 L 652.066406 38.609375 C 652.066406 38.792969 652.003906 38.949219 651.871094 39.082031 C 651.742188 39.210938 651.585938 39.277344 651.398438 39.277344 L 651.351562 39.277344 C 651.167969 39.277344 651.011719 39.210938 650.882812 39.082031 C 650.75 38.949219 650.683594 38.792969 650.683594 38.609375 L 650.683594 33.082031 C 650.683594 32.898438 650.75 32.742188 650.882812 32.609375 C 651.011719 32.476562 651.167969 32.414062 651.351562 32.414062 Z M 651.351562 32.414062 " fill-opacity="1" fill-rule="nonzero"/><path fill="#fe6118" d="M 633.199219 38.824219 L 633.296875 38.726562 C 633.417969 38.609375 633.570312 38.546875 633.742188 38.546875 C 633.914062 38.546875 634.0625 38.609375 634.1875 38.730469 L 638.136719 42.695312 C 638.257812 42.816406 638.316406 42.964844 638.316406 43.140625 C 638.316406 43.3125 638.253906 43.460938 638.132812 43.585938 L 638.039062 43.679688 C 637.917969 43.800781 637.765625 43.863281 637.589844 43.863281 C 637.417969 43.863281 637.273438 43.800781 637.148438 43.675781 L 633.199219 39.714844 C 633.078125 39.589844 633.015625 39.441406 633.015625 39.269531 C 633.015625 39.097656 633.078125 38.949219 633.199219 38.824219 Z M 633.199219 38.824219 " fill-opacity="1" fill-rule="nonzero"/><path fill="#fe6118" d="M 664.671875 42.753906 L 668.714844 38.710938 C 668.816406 38.605469 668.945312 38.554688 669.09375 38.554688 C 669.238281 38.554688 669.367188 38.605469 669.46875 38.710938 L 669.632812 38.878906 C 669.738281 38.984375 669.792969 39.109375 669.792969 39.253906 C 669.792969 39.402344 669.738281 39.527344 669.632812 39.632812 L 665.59375 43.675781 C 665.488281 43.777344 665.363281 43.832031 665.214844 43.832031 C 665.066406 43.832031 664.941406 43.777344 664.839844 43.675781 L 664.671875 43.507812 C 664.566406 43.402344 664.515625 43.277344 664.515625 43.128906 C 664.515625 42.984375 664.566406 42.859375 664.671875 42.753906 Z M 664.671875 42.753906 " fill-opacity="1" fill-rule="nonzero"/><path fill="#fe6118" d="M 655.953125 74.515625 L 646.832031 74.589844 C 645.347656 69.796875 641.984375 66.554688 640.03125 61.957031 C 634.953125 50.003906 649.359375 39.664062 659.234375 47.335938 C 664.496094 51.425781 664.992188 57.914062 662.203125 63.613281 C 660.542969 67.03125 657.460938 70.175781 655.953125 74.515625 Z M 655.953125 74.515625 " fill-opacity="1" fill-rule="nonzero"/><path fill="#ffffff" d="M 125.957031 48.164062 L 126.054688 48.164062 C 126.335938 48.164062 126.605469 48.214844 126.863281 48.324219 C 127.125 48.429688 127.351562 48.585938 127.546875 48.78125 C 127.746094 48.980469 127.898438 49.207031 128.007812 49.464844 C 128.113281 49.726562 128.167969 49.996094 128.167969 50.273438 L 128.167969 67.863281 C 128.167969 68.144531 128.113281 68.414062 128.007812 68.675781 C 127.898438 68.933594 127.746094 69.160156 127.546875 69.359375 C 127.351562 69.554688 127.125 69.707031 126.863281 69.816406 C 126.605469 69.925781 126.335938 69.976562 126.054688 69.976562 L 125.957031 69.976562 C 125.675781 69.976562 125.40625 69.925781 125.148438 69.816406 C 124.886719 69.707031 124.660156 69.554688 124.464844 69.359375 C 124.265625 69.160156 124.113281 68.933594 124.003906 68.675781 C 123.898438 68.414062 123.84375 68.144531 123.84375 67.863281 L 123.84375 50.273438 C 123.84375 49.996094 123.898438 49.726562 124.003906 49.464844 C 124.113281 49.207031 124.265625 48.980469 124.464844 48.78125 C 124.660156 48.585938 124.886719 48.429688 125.148438 48.324219 C 125.40625 48.214844 125.675781 48.164062 125.957031 48.164062 Z M 125.957031 48.164062 " fill-opacity="1" fill-rule="nonzero"/><path fill="#fe6118" d="M 628.03125 51.625 L 633.410156 51.632812 C 633.597656 51.632812 633.757812 51.699219 633.890625 51.835938 C 634.023438 51.964844 634.089844 52.125 634.089844 52.3125 L 634.089844 52.359375 C 634.085938 52.546875 634.023438 52.707031 633.886719 52.839844 C 633.757812 52.972656 633.59375 53.039062 633.40625 53.039062 L 628.027344 53.027344 C 627.839844 53.027344 627.679688 52.960938 627.546875 52.828125 C 627.414062 52.695312 627.347656 52.535156 627.347656 52.347656 L 627.347656 52.300781 C 627.347656 52.113281 627.414062 51.953125 627.550781 51.824219 C 627.683594 51.691406 627.84375 51.625 628.03125 51.625 Z M 628.03125 51.625 " fill-opacity="1" fill-rule="nonzero"/><path fill="#fe6118" d="M 669.34375 51.628906 L 674.703125 51.636719 C 674.890625 51.636719 675.050781 51.707031 675.183594 51.839844 C 675.316406 51.972656 675.382812 52.132812 675.382812 52.320312 L 675.382812 52.363281 C 675.382812 52.550781 675.3125 52.710938 675.183594 52.84375 C 675.050781 52.976562 674.890625 53.042969 674.703125 53.042969 L 669.34375 53.035156 C 669.15625 53.035156 668.996094 52.96875 668.863281 52.832031 C 668.730469 52.699219 668.664062 52.539062 668.664062 52.351562 L 668.664062 52.308594 C 668.664062 52.121094 668.734375 51.960938 668.863281 51.828125 C 668.996094 51.695312 669.15625 51.628906 669.34375 51.628906 Z M 669.34375 51.628906 " fill-opacity="1" fill-rule="nonzero"/><path fill="#fe6118" d="M 628.363281 65.570312 L 633.128906 62.839844 C 633.289062 62.746094 633.453125 62.726562 633.628906 62.773438 C 633.804688 62.824219 633.933594 62.925781 634.027344 63.085938 L 634.050781 63.121094 C 634.140625 63.28125 634.160156 63.445312 634.113281 63.621094 C 634.0625 63.796875 633.960938 63.925781 633.804688 64.019531 L 629.039062 66.75 C 628.882812 66.839844 628.714844 66.859375 628.539062 66.8125 C 628.363281 66.765625 628.230469 66.660156 628.140625 66.503906 L 628.117188 66.464844 C 628.03125 66.308594 628.007812 66.144531 628.058594 65.96875 C 628.101562 65.792969 628.207031 65.660156 628.363281 65.570312 Z M 628.363281 65.570312 " fill-opacity="1" fill-rule="nonzero"/><path fill="#fe6118" d="M 669.617188 62.800781 L 674.449219 65.578125 C 674.597656 65.664062 674.695312 65.789062 674.738281 65.957031 C 674.785156 66.121094 674.761719 66.277344 674.679688 66.425781 L 674.617188 66.535156 C 674.53125 66.683594 674.402344 66.78125 674.238281 66.824219 C 674.074219 66.871094 673.914062 66.851562 673.765625 66.765625 L 668.933594 63.988281 C 668.785156 63.902344 668.6875 63.773438 668.644531 63.609375 C 668.597656 63.445312 668.617188 63.285156 668.707031 63.136719 L 668.769531 63.027344 C 668.851562 62.878906 668.980469 62.78125 669.144531 62.738281 C 669.3125 62.695312 669.46875 62.714844 669.617188 62.800781 Z M 669.617188 62.800781 " fill-opacity="1" fill-rule="nonzero"/><path fill="#ffffff" d="M 68.308594 68.617188 L 68.355469 68.570312 C 68.550781 68.375 68.777344 68.222656 69.035156 68.117188 C 69.289062 68.007812 69.558594 67.957031 69.835938 67.957031 C 70.113281 67.957031 70.382812 68.007812 70.636719 68.117188 C 70.894531 68.222656 71.121094 68.375 71.320312 68.570312 L 83.714844 80.96875 C 83.914062 81.164062 84.066406 81.390625 84.171875 81.648438 C 84.277344 81.90625 84.332031 82.171875 84.332031 82.449219 C 84.332031 82.726562 84.277344 82.992188 84.171875 83.25 C 84.066406 83.507812 83.914062 83.734375 83.714844 83.929688 L 83.667969 83.980469 C 83.472656 84.175781 83.246094 84.324219 82.992188 84.433594 C 82.734375 84.539062 82.464844 84.589844 82.1875 84.589844 C 81.910156 84.589844 81.644531 84.539062 81.386719 84.433594 C 81.128906 84.324219 80.902344 84.175781 80.707031 83.980469 L 68.308594 71.578125 C 68.109375 71.382812 67.957031 71.15625 67.851562 70.898438 C 67.746094 70.644531 67.695312 70.375 67.695312 70.097656 C 67.695312 69.820312 67.746094 69.554688 67.851562 69.296875 C 67.957031 69.039062 68.109375 68.8125 68.308594 68.617188 Z M 68.308594 68.617188 " fill-opacity="1" fill-rule="nonzero"/><path fill="#ffffff" d="M 183.648438 68.578125 L 183.707031 68.632812 C 183.902344 68.832031 184.054688 69.058594 184.160156 69.316406 C 184.265625 69.574219 184.320312 69.839844 184.320312 70.117188 C 184.320312 70.398438 184.265625 70.667969 184.160156 70.921875 C 184.054688 71.179688 183.902344 71.40625 183.707031 71.605469 L 171.332031 83.980469 C 171.132812 84.175781 170.90625 84.328125 170.648438 84.4375 C 170.390625 84.542969 170.121094 84.59375 169.84375 84.59375 C 169.566406 84.59375 169.300781 84.542969 169.042969 84.4375 C 168.785156 84.328125 168.554688 84.175781 168.359375 83.980469 L 168.304688 83.925781 C 168.109375 83.726562 167.957031 83.5 167.847656 83.242188 C 167.742188 82.984375 167.6875 82.71875 167.6875 82.441406 C 167.6875 82.160156 167.742188 81.894531 167.847656 81.636719 C 167.957031 81.378906 168.109375 81.152344 168.304688 80.953125 L 180.679688 68.578125 C 180.878906 68.382812 181.101562 68.230469 181.359375 68.121094 C 181.617188 68.015625 181.886719 67.964844 182.164062 67.964844 C 182.445312 67.964844 182.710938 68.015625 182.96875 68.121094 C 183.226562 68.230469 183.453125 68.382812 183.648438 68.578125 Z M 183.648438 68.578125 " fill-opacity="1" fill-rule="nonzero"/><path fill="#ffffff" d="M 655.953125 74.515625 C 656.035156 76.886719 656.425781 80.128906 655.207031 82.042969 C 653.664062 84.476562 649.460938 84.6875 647.800781 82.242188 C 646.523438 80.375 646.773438 76.960938 646.832031 74.589844 Z M 655.382812 76.90625 L 655.371094 76.015625 C 655.371094 75.953125 655.347656 75.898438 655.300781 75.851562 C 655.257812 75.804688 655.203125 75.785156 655.140625 75.785156 L 655.066406 75.785156 C 654.5625 75.789062 654.0625 75.792969 653.570312 75.800781 C 653.074219 75.808594 652.59375 75.816406 652.128906 75.828125 C 651.664062 75.839844 651.222656 75.855469 650.800781 75.871094 C 650.382812 75.886719 649.996094 75.898438 649.644531 75.917969 C 649.289062 75.933594 648.972656 75.953125 648.695312 75.972656 C 648.417969 75.992188 648.183594 76.015625 647.996094 76.035156 C 647.804688 76.054688 647.660156 76.074219 647.566406 76.097656 C 647.472656 76.121094 647.429688 76.140625 647.433594 76.160156 L 647.433594 76.871094 C 647.4375 76.890625 647.492188 76.910156 647.589844 76.929688 C 647.695312 76.953125 647.839844 76.96875 648.035156 76.984375 C 648.230469 77.003906 648.464844 77.019531 648.746094 77.035156 C 649.027344 77.050781 649.34375 77.066406 649.695312 77.078125 C 650.054688 77.089844 650.4375 77.101562 650.851562 77.109375 C 651.269531 77.117188 651.707031 77.125 652.167969 77.128906 C 652.628906 77.136719 653.105469 77.136719 653.59375 77.136719 C 654.085938 77.136719 654.578125 77.136719 655.078125 77.132812 L 655.148438 77.132812 C 655.214844 77.132812 655.269531 77.113281 655.3125 77.066406 C 655.359375 77.019531 655.382812 76.964844 655.382812 76.90625 Z M 655.394531 78.394531 C 655.394531 78.292969 655.359375 78.203125 655.285156 78.128906 C 655.210938 78.054688 655.125 78.015625 655.019531 78.015625 L 647.863281 77.980469 C 647.757812 77.980469 647.671875 78.015625 647.597656 78.085938 C 647.523438 78.160156 647.484375 78.25 647.484375 78.351562 L 647.484375 78.535156 C 647.484375 78.636719 647.519531 78.726562 647.59375 78.800781 C 647.664062 78.875 647.753906 78.914062 647.859375 78.914062 L 655.015625 78.949219 C 655.117188 78.949219 655.207031 78.914062 655.28125 78.839844 C 655.355469 78.765625 655.394531 78.679688 655.394531 78.574219 Z M 655.402344 80.257812 C 655.402344 80.125 655.351562 80.011719 655.253906 79.917969 C 655.160156 79.820312 655.042969 79.777344 654.90625 79.777344 L 648.101562 79.859375 C 647.964844 79.859375 647.851562 79.910156 647.757812 80.007812 C 647.664062 80.105469 647.617188 80.21875 647.617188 80.351562 L 647.621094 80.535156 C 647.625 80.667969 647.671875 80.78125 647.765625 80.875 C 647.863281 80.96875 647.980469 81.015625 648.117188 81.015625 L 654.921875 80.933594 C 655.054688 80.933594 655.171875 80.882812 655.265625 80.785156 C 655.359375 80.691406 655.40625 80.574219 655.40625 80.4375 Z M 655.402344 80.257812 " fill-opacity="1" fill-rule="nonzero"/><path fill="#c8c8c1" d="M 655.382812 76.90625 C 655.382812 76.964844 655.359375 77.019531 655.3125 77.066406 C 655.269531 77.113281 655.214844 77.132812 655.148438 77.132812 L 655.078125 77.132812 C 654.578125 77.136719 654.085938 77.136719 653.59375 77.136719 C 653.105469 77.136719 652.628906 77.136719 652.167969 77.128906 C 651.707031 77.125 651.269531 77.117188 650.851562 77.109375 C 650.4375 77.101562 650.054688 77.089844 649.695312 77.078125 C 649.34375 77.066406 649.027344 77.050781 648.746094 77.035156 C 648.464844 77.019531 648.230469 77.003906 648.035156 76.984375 C 647.839844 76.96875 647.695312 76.953125 647.589844 76.929688 C 647.492188 76.910156 647.4375 76.890625 647.433594 76.871094 L 647.433594 76.160156 C 647.429688 76.140625 647.472656 76.121094 647.566406 76.097656 C 647.660156 76.074219 647.804688 76.054688 647.996094 76.035156 C 648.183594 76.015625 648.417969 75.992188 648.695312 75.972656 C 648.972656 75.953125 649.289062 75.933594 649.644531 75.917969 C 649.996094 75.898438 650.382812 75.886719 650.800781 75.871094 C 651.222656 75.855469 651.664062 75.839844 652.128906 75.828125 C 652.59375 75.816406 653.074219 75.808594 653.570312 75.800781 C 654.0625 75.792969 654.5625 75.789062 655.066406 75.785156 L 655.140625 75.785156 C 655.203125 75.785156 655.257812 75.804688 655.300781 75.851562 C 655.347656 75.898438 655.371094 75.953125 655.371094 76.015625 Z M 655.382812 76.90625 " fill-opacity="1" fill-rule="nonzero"/><path fill="#c8c8c1" d="M 647.863281 77.980469 L 655.019531 78.015625 C 655.125 78.015625 655.210938 78.054688 655.285156 78.128906 C 655.359375 78.203125 655.394531 78.292969 655.394531 78.394531 L 655.394531 78.574219 C 655.394531 78.679688 655.355469 78.765625 655.28125 78.839844 C 655.207031 78.914062 655.117188 78.949219 655.015625 78.949219 L 647.859375 78.914062 C 647.753906 78.914062 647.667969 78.875 647.59375 78.800781 C 647.519531 78.726562 647.484375 78.636719 647.484375 78.535156 L 647.484375 78.351562 C 647.484375 78.25 647.523438 78.160156 647.597656 78.085938 C 647.671875 78.015625 647.757812 77.980469 647.863281 77.980469 Z M 647.863281 77.980469 " fill-opacity="1" fill-rule="nonzero"/><path fill="#c8c8c1" d="M 648.101562 79.859375 L 654.90625 79.777344 C 655.042969 79.777344 655.160156 79.820312 655.253906 79.917969 C 655.351562 80.011719 655.402344 80.125 655.402344 80.257812 L 655.40625 80.4375 C 655.40625 80.574219 655.359375 80.691406 655.265625 80.785156 C 655.171875 80.882812 655.054688 80.933594 654.921875 80.933594 L 648.117188 81.015625 C 647.980469 81.015625 647.863281 80.96875 647.765625 80.875 C 647.671875 80.78125 647.625 80.667969 647.621094 80.535156 L 647.617188 80.351562 C 647.617188 80.21875 647.664062 80.105469 647.757812 80.007812 C 647.851562 79.910156 647.964844 79.859375 648.101562 79.859375 Z M 648.101562 79.859375 " fill-opacity="1" fill-rule="nonzero"/><path fill="#000000" d="M 931.695312 118.34375 C 931.753906 118.433594 931.832031 118.460938 931.9375 118.433594 C 932.039062 118.398438 932.089844 118.332031 932.089844 118.226562 L 932.039062 82.085938 C 932.039062 81.972656 932.078125 81.871094 932.160156 81.789062 C 932.242188 81.707031 932.34375 81.667969 932.460938 81.667969 L 940.203125 81.6875 C 940.386719 81.691406 940.480469 81.785156 940.480469 81.96875 L 940.480469 168.597656 C 940.480469 168.675781 940.453125 168.742188 940.398438 168.796875 C 940.34375 168.855469 940.277344 168.878906 940.199219 168.878906 L 932.761719 168.878906 C 932.679688 168.878906 932.605469 168.851562 932.546875 168.789062 C 932.488281 168.726562 932.460938 168.65625 932.460938 168.570312 L 932.488281 157.359375 C 932.484375 157.246094 932.429688 157.171875 932.316406 157.140625 C 932.207031 157.109375 932.117188 157.140625 932.054688 157.238281 C 925.851562 166.847656 914.828125 170.796875 903.703125 169.125 C 883.15625 166.042969 873.339844 145.539062 879.597656 126.683594 C 884.5 111.910156 899.207031 104.546875 914.339844 107.132812 C 921.808594 108.410156 927.59375 112.144531 931.695312 118.34375 Z M 903.664062 114.550781 C 876.996094 120.589844 882.113281 164.449219 910.988281 162.039062 C 922.34375 161.089844 930.316406 153.417969 931.929688 141.910156 C 934.363281 124.558594 921.242188 110.570312 903.664062 114.550781 Z M 903.664062 114.550781 " fill-opacity="1" fill-rule="nonzero"/><path fill="#000000" d="M 973.9375 87.1875 C 973.960938 87.574219 973.949219 87.960938 973.890625 88.347656 C 973.839844 88.730469 973.75 89.109375 973.617188 89.476562 C 973.488281 89.847656 973.320312 90.199219 973.121094 90.535156 C 972.921875 90.871094 972.6875 91.183594 972.421875 91.476562 C 972.15625 91.769531 971.867188 92.035156 971.546875 92.269531 C 971.230469 92.503906 970.890625 92.710938 970.535156 92.882812 C 970.175781 93.050781 969.800781 93.191406 969.414062 93.289062 C 969.03125 93.386719 968.636719 93.453125 968.238281 93.476562 C 967.839844 93.503906 967.441406 93.488281 967.046875 93.4375 C 966.648438 93.386719 966.261719 93.296875 965.886719 93.175781 C 965.507812 93.050781 965.148438 92.886719 964.800781 92.695312 C 964.457031 92.5 964.136719 92.273438 963.835938 92.015625 C 963.539062 91.761719 963.269531 91.476562 963.027344 91.167969 C 962.78125 90.859375 962.574219 90.53125 962.398438 90.183594 C 962.226562 89.835938 962.085938 89.472656 961.984375 89.097656 C 961.882812 88.71875 961.820312 88.339844 961.796875 87.949219 C 961.773438 87.5625 961.789062 87.175781 961.839844 86.789062 C 961.890625 86.40625 961.984375 86.027344 962.113281 85.660156 C 962.246094 85.292969 962.410156 84.941406 962.613281 84.601562 C 962.816406 84.265625 963.046875 83.953125 963.3125 83.660156 C 963.574219 83.367188 963.867188 83.105469 964.183594 82.867188 C 964.503906 82.632812 964.839844 82.429688 965.199219 82.253906 C 965.558594 82.085938 965.933594 81.949219 966.320312 81.847656 C 966.703125 81.75 967.097656 81.683594 967.496094 81.660156 C 967.894531 81.636719 968.292969 81.648438 968.6875 81.699219 C 969.082031 81.753906 969.46875 81.839844 969.847656 81.964844 C 970.222656 82.089844 970.585938 82.25 970.929688 82.441406 C 971.273438 82.640625 971.597656 82.863281 971.894531 83.121094 C 972.195312 83.375 972.464844 83.660156 972.707031 83.96875 C 972.949219 84.277344 973.15625 84.605469 973.332031 84.953125 C 973.507812 85.304688 973.644531 85.667969 973.75 86.039062 C 973.851562 86.417969 973.914062 86.800781 973.9375 87.1875 Z M 973.9375 87.1875 " fill-opacity="1" fill-rule="nonzero"/><path fill="#000000" d="M 681.292969 103.585938 C 683.210938 94.648438 691.105469 88.949219 699.632812 87.101562 C 711.703125 84.480469 725.71875 86.0625 736.210938 93.011719 C 736.398438 93.132812 736.445312 93.296875 736.363281 93.5 L 733.722656 99.730469 C 733.617188 99.980469 733.449219 100.035156 733.222656 99.890625 C 722.953125 93.523438 711.910156 91.789062 700.082031 94.683594 C 693.613281 96.269531 688.964844 102.46875 689.316406 109.066406 C 689.65625 115.425781 694.542969 118.835938 699.984375 120.84375 C 706.183594 123.121094 717.703125 125.144531 726.929688 128.867188 C 733.824219 131.652344 739.15625 136.933594 739.75 144.628906 C 740.792969 158.265625 731.726562 166.375 719.230469 168.636719 C 706.035156 171.019531 688.933594 168.820312 678.875 159.074219 C 678.746094 158.953125 678.722656 158.816406 678.804688 158.65625 L 681.878906 152.5 C 681.984375 152.289062 682.125 152.261719 682.300781 152.417969 C 691.609375 160.71875 704.5625 163.457031 716.664062 161.585938 C 723.535156 160.523438 730.027344 156.816406 731.207031 149.394531 C 732.546875 141.003906 725.546875 136.378906 718.582031 134.390625 C 716.089844 133.679688 710.769531 132.210938 702.617188 129.988281 C 689.179688 126.332031 677.765625 119.949219 681.292969 103.585938 Z M 681.292969 103.585938 " fill-opacity="1" fill-rule="nonzero"/><path fill="#ffffff" d="M 120.320312 88.003906 C 147.429688 83.65625 169.980469 106.523438 164.839844 133.625 C 162.292969 147.070312 154.039062 156.972656 146.390625 167.851562 C 140.742188 175.875 140.113281 184.871094 140.34375 195.210938 C 140.40625 197.96875 140.234375 200.046875 139.839844 201.449219 C 136.136719 214.515625 117.441406 215.359375 112.652344 202.832031 C 112.070312 201.289062 111.765625 198.722656 111.75 195.132812 C 111.734375 190.375 112.1875 185.035156 111.125 180.613281 C 110.015625 176.015625 108.113281 171.734375 105.414062 167.769531 C 98.164062 157.117188 90.949219 147.964844 87.578125 134.765625 C 81.765625 112.023438 98.011719 91.585938 120.320312 88.003906 Z M 138.96875 188.15625 C 138.96875 187.929688 138.925781 187.710938 138.839844 187.5 C 138.753906 187.292969 138.628906 187.105469 138.46875 186.945312 C 138.308594 186.785156 138.121094 186.660156 137.910156 186.574219 C 137.699219 186.484375 137.480469 186.441406 137.257812 186.441406 L 114.800781 186.441406 C 114.574219 186.441406 114.355469 186.484375 114.144531 186.574219 C 113.9375 186.660156 113.75 186.785156 113.589844 186.945312 C 113.429688 187.105469 113.304688 187.292969 113.21875 187.5 C 113.132812 187.710938 113.085938 187.929688 113.085938 188.15625 L 113.085938 188.226562 C 113.085938 188.449219 113.132812 188.667969 113.21875 188.878906 C 113.304688 189.089844 113.429688 189.277344 113.589844 189.433594 C 113.75 189.59375 113.9375 189.722656 114.144531 189.804688 C 114.355469 189.894531 114.574219 189.9375 114.800781 189.9375 L 137.257812 189.9375 C 137.480469 189.9375 137.699219 189.894531 137.910156 189.804688 C 138.121094 189.722656 138.308594 189.59375 138.46875 189.433594 C 138.628906 189.277344 138.753906 189.089844 138.839844 188.878906 C 138.925781 188.667969 138.96875 188.449219 138.96875 188.226562 Z M 138.96875 194.402344 C 138.96875 194.183594 138.925781 193.972656 138.84375 193.773438 C 138.761719 193.570312 138.640625 193.390625 138.484375 193.238281 C 138.332031 193.085938 138.15625 192.964844 137.953125 192.882812 C 137.75 192.796875 137.539062 192.757812 137.324219 192.757812 L 114.769531 192.757812 C 114.546875 192.757812 114.335938 192.796875 114.136719 192.882812 C 113.9375 192.964844 113.757812 193.085938 113.601562 193.238281 C 113.449219 193.390625 113.332031 193.570312 113.246094 193.773438 C 113.164062 193.972656 113.121094 194.183594 113.121094 194.402344 L 113.121094 194.617188 C 113.121094 194.835938 113.164062 195.042969 113.246094 195.246094 C 113.332031 195.445312 113.449219 195.625 113.601562 195.78125 C 113.757812 195.933594 113.9375 196.054688 114.136719 196.136719 C 114.335938 196.21875 114.546875 196.261719 114.769531 196.261719 L 137.324219 196.261719 C 137.539062 196.261719 137.75 196.21875 137.953125 196.136719 C 138.15625 196.054688 138.332031 195.933594 138.484375 195.78125 C 138.640625 195.625 138.761719 195.445312 138.84375 195.246094 C 138.925781 195.042969 138.96875 194.835938 138.96875 194.617188 Z M 138.957031 200.648438 C 138.957031 200.421875 138.914062 200.199219 138.828125 199.992188 C 138.742188 199.78125 138.617188 199.597656 138.457031 199.4375 C 138.296875 199.277344 138.109375 199.152344 137.898438 199.066406 C 137.6875 198.976562 137.472656 198.933594 137.246094 198.933594 L 114.855469 198.933594 C 114.628906 198.933594 114.410156 198.976562 114.199219 199.066406 C 113.992188 199.152344 113.808594 199.277344 113.648438 199.4375 C 113.484375 199.597656 113.359375 199.78125 113.273438 199.992188 C 113.1875 200.199219 113.144531 200.421875 113.144531 200.648438 L 113.144531 200.714844 C 113.144531 200.941406 113.1875 201.160156 113.273438 201.371094 C 113.359375 201.578125 113.484375 201.765625 113.648438 201.925781 C 113.808594 202.085938 113.992188 202.210938 114.199219 202.296875 C 114.410156 202.386719 114.628906 202.429688 114.855469 202.429688 L 137.246094 202.429688 C 137.472656 202.429688 137.6875 202.386719 137.898438 202.296875 C 138.109375 202.210938 138.296875 202.085938 138.457031 201.925781 C 138.617188 201.765625 138.742188 201.578125 138.828125 201.371094 C 138.914062 201.160156 138.957031 200.941406 138.957031 200.714844 Z M 138.957031 200.648438 " fill-opacity="1" fill-rule="nonzero"/><path fill="#000000" d="M 317.910156 168.878906 L 292.421875 168.878906 C 292.347656 168.878906 292.289062 168.855469 292.234375 168.804688 C 292.1875 168.753906 292.164062 168.691406 292.164062 168.621094 L 292.195312 108.902344 C 292.195312 108.832031 292.167969 108.769531 292.117188 108.71875 C 292.070312 108.667969 292.007812 108.644531 291.9375 108.644531 L 265.761719 108.644531 C 265.691406 108.644531 265.632812 108.617188 265.582031 108.566406 C 265.527344 108.515625 265.503906 108.457031 265.503906 108.382812 L 265.503906 88.261719 C 265.503906 88.191406 265.527344 88.128906 265.582031 88.078125 C 265.632812 88.027344 265.691406 88.003906 265.761719 88.003906 L 344.300781 88.003906 C 344.375 88.003906 344.433594 88.027344 344.484375 88.078125 C 344.535156 88.128906 344.558594 88.191406 344.558594 88.261719 L 344.558594 108.382812 C 344.558594 108.457031 344.535156 108.515625 344.484375 108.566406 C 344.433594 108.617188 344.375 108.644531 344.300781 108.644531 L 318.414062 108.644531 C 318.34375 108.644531 318.28125 108.667969 318.230469 108.71875 C 318.183594 108.769531 318.15625 108.832031 318.15625 108.902344 L 318.167969 168.621094 C 318.167969 168.691406 318.140625 168.753906 318.089844 168.804688 C 318.042969 168.855469 317.980469 168.878906 317.910156 168.878906 Z M 317.910156 168.878906 " fill-opacity="1" fill-rule="nonzero"/><path fill="#000000" d="M 382.527344 118.609375 L 419.765625 118.609375 C 419.816406 118.609375 419.863281 118.632812 419.902344 118.667969 C 419.941406 118.707031 419.960938 118.753906 419.960938 118.808594 L 419.960938 136.953125 C 419.960938 137.003906 419.941406 137.050781 419.902344 137.089844 C 419.863281 137.128906 419.816406 137.148438 419.765625 137.148438 L 382.527344 137.148438 C 382.472656 137.148438 382.425781 137.164062 382.386719 137.203125 C 382.351562 137.242188 382.328125 137.289062 382.328125 137.34375 L 382.328125 149.308594 C 382.328125 149.359375 382.351562 149.40625 382.386719 149.445312 C 382.425781 149.484375 382.472656 149.503906 382.527344 149.503906 L 426.925781 149.503906 C 426.980469 149.503906 427.027344 149.523438 427.066406 149.558594 C 427.105469 149.597656 427.121094 149.644531 427.121094 149.699219 L 427.121094 168.683594 C 427.121094 168.738281 427.105469 168.785156 427.066406 168.820312 C 427.027344 168.859375 426.980469 168.878906 426.925781 168.878906 L 356.550781 168.878906 C 356.496094 168.878906 356.449219 168.859375 356.410156 168.820312 C 356.371094 168.785156 356.355469 168.738281 356.355469 168.683594 L 356.355469 88.199219 C 356.355469 88.144531 356.371094 88.097656 356.410156 88.058594 C 356.449219 88.019531 356.496094 88.003906 356.550781 88.003906 L 426.082031 88.003906 C 426.136719 88.003906 426.183594 88.019531 426.222656 88.058594 C 426.261719 88.097656 426.277344 88.144531 426.277344 88.199219 L 426.277344 107.183594 C 426.277344 107.234375 426.261719 107.28125 426.222656 107.320312 C 426.183594 107.359375 426.136719 107.378906 426.082031 107.378906 L 382.527344 107.378906 C 382.472656 107.378906 382.425781 107.398438 382.386719 107.4375 C 382.351562 107.476562 382.328125 107.523438 382.328125 107.574219 L 382.328125 118.414062 C 382.328125 118.46875 382.351562 118.515625 382.386719 118.554688 C 382.425781 118.59375 382.472656 118.609375 382.527344 118.609375 Z M 382.527344 118.609375 " fill-opacity="1" fill-rule="nonzero"/><path fill="#000000" d="M 467.628906 122.152344 L 496.023438 88.074219 C 496.058594 88.027344 496.105469 88.003906 496.167969 88.003906 L 527.871094 88.003906 C 527.957031 88.003906 528.015625 88.039062 528.050781 88.117188 C 528.085938 88.195312 528.074219 88.261719 528.019531 88.328125 L 499.367188 121.144531 C 499.304688 121.21875 499.296875 121.296875 499.351562 121.378906 L 528.726562 168.582031 C 528.769531 168.648438 528.769531 168.714844 528.730469 168.78125 C 528.691406 168.847656 528.636719 168.878906 528.558594 168.878906 L 498.332031 168.878906 C 498.253906 168.878906 498.195312 168.84375 498.160156 168.777344 L 481.507812 139.433594 C 481.476562 139.382812 481.433594 139.347656 481.375 139.335938 C 481.316406 139.324219 481.265625 139.339844 481.214844 139.375 L 467.355469 150.710938 C 467.304688 150.75 467.28125 150.804688 467.28125 150.867188 L 467.28125 168.683594 C 467.28125 168.738281 467.261719 168.785156 467.226562 168.820312 C 467.1875 168.859375 467.140625 168.878906 467.085938 168.878906 L 441.5 168.878906 C 441.445312 168.878906 441.398438 168.859375 441.359375 168.820312 C 441.324219 168.785156 441.304688 168.738281 441.304688 168.683594 L 441.304688 88.199219 C 441.304688 88.144531 441.324219 88.097656 441.359375 88.058594 C 441.398438 88.019531 441.445312 88.003906 441.5 88.003906 L 467.085938 88.003906 C 467.140625 88.003906 467.1875 88.019531 467.226562 88.058594 C 467.261719 88.097656 467.28125 88.144531 467.28125 88.199219 L 467.28125 122.023438 C 467.28125 122.117188 467.320312 122.175781 467.410156 122.207031 C 467.496094 122.242188 467.570312 122.222656 467.628906 122.152344 Z M 467.628906 122.152344 " fill-opacity="1" fill-rule="nonzero"/><path fill="#000000" d="M 565.476562 122.167969 L 593.898438 88.070312 C 593.933594 88.027344 593.980469 88.003906 594.039062 88.003906 L 625.757812 88.003906 C 625.839844 88 625.894531 88.039062 625.929688 88.109375 C 625.964844 88.183594 625.953125 88.25 625.898438 88.308594 L 597.234375 121.15625 C 597.171875 121.226562 597.167969 121.296875 597.214844 121.375 L 626.609375 168.597656 C 626.644531 168.660156 626.644531 168.722656 626.609375 168.785156 C 626.574219 168.847656 626.523438 168.878906 626.449219 168.878906 L 596.1875 168.878906 C 596.117188 168.878906 596.066406 168.84375 596.03125 168.785156 L 579.375 139.429688 C 579.347656 139.378906 579.304688 139.347656 579.25 139.339844 C 579.195312 139.328125 579.144531 139.339844 579.101562 139.375 L 565.21875 150.722656 C 565.171875 150.761719 565.148438 150.808594 565.148438 150.867188 L 565.148438 168.695312 C 565.148438 168.746094 565.132812 168.789062 565.097656 168.824219 C 565.058594 168.863281 565.019531 168.878906 564.964844 168.878906 L 539.359375 168.878906 C 539.308594 168.878906 539.265625 168.863281 539.226562 168.824219 C 539.191406 168.789062 539.175781 168.746094 539.175781 168.695312 L 539.175781 88.1875 C 539.175781 88.136719 539.191406 88.09375 539.226562 88.054688 C 539.265625 88.019531 539.308594 88.003906 539.359375 88.003906 L 564.964844 88.003906 C 565.019531 88.003906 565.058594 88.019531 565.097656 88.054688 C 565.132812 88.09375 565.148438 88.136719 565.148438 88.1875 L 565.148438 122.046875 C 565.152344 122.136719 565.195312 122.191406 565.273438 122.21875 C 565.355469 122.25 565.421875 122.230469 565.476562 122.167969 Z M 565.476562 122.167969 " fill-opacity="1" fill-rule="nonzero"/><path fill="#000000" d="M 638.476562 88.003906 L 664.121094 88.003906 C 664.234375 88.003906 664.289062 88.058594 664.289062 88.167969 L 664.289062 168.710938 C 664.289062 168.824219 664.234375 168.878906 664.121094 168.878906 L 638.476562 168.878906 C 638.363281 168.878906 638.304688 168.824219 638.304688 168.710938 L 638.304688 88.167969 C 638.304688 88.058594 638.363281 88.003906 638.476562 88.003906 Z M 638.476562 88.003906 " fill-opacity="1" fill-rule="nonzero"/><path fill="#000000" d="M 758.210938 114.117188 L 747.832031 114.117188 C 747.550781 114.117188 747.410156 113.976562 747.410156 113.695312 L 747.410156 107.28125 C 747.410156 107.226562 747.429688 107.175781 747.46875 107.136719 C 747.507812 107.097656 747.554688 107.082031 747.613281 107.082031 L 758.148438 107.109375 C 758.386719 107.109375 758.503906 106.988281 758.503906 106.75 L 758.503906 93.824219 C 758.503906 93.730469 758.539062 93.644531 758.605469 93.578125 C 758.671875 93.511719 758.753906 93.476562 758.851562 93.476562 L 766.503906 93.476562 C 766.691406 93.476562 766.785156 93.570312 766.785156 93.757812 L 766.785156 106.675781 C 766.785156 106.792969 766.828125 106.894531 766.910156 106.976562 C 766.992188 107.058594 767.089844 107.097656 767.207031 107.097656 L 785.320312 107.097656 C 785.507812 107.097656 785.601562 107.191406 785.601562 107.378906 L 785.601562 113.695312 C 785.601562 113.976562 785.460938 114.117188 785.179688 114.117188 L 767.074219 114.117188 C 766.996094 114.117188 766.925781 114.148438 766.871094 114.203125 C 766.816406 114.257812 766.785156 114.324219 766.785156 114.40625 C 766.785156 126.15625 766.785156 137.953125 766.785156 149.785156 C 766.785156 150.921875 766.894531 152.277344 767.113281 153.84375 C 768.5 163.847656 780.003906 163.984375 786.480469 159.355469 C 786.652344 159.230469 786.785156 159.265625 786.878906 159.453125 L 789.472656 164.71875 C 789.539062 164.855469 789.554688 164.996094 789.515625 165.140625 C 789.480469 165.289062 789.398438 165.40625 789.273438 165.492188 C 783.257812 169.730469 774.660156 170.703125 768.222656 168.011719 C 760.816406 164.914062 758.507812 158.308594 758.507812 150.785156 C 758.515625 138.65625 758.511719 126.527344 758.492188 114.398438 C 758.492188 114.210938 758.398438 114.117188 758.210938 114.117188 Z M 758.210938 114.117188 " fill-opacity="1" fill-rule="nonzero"/><path fill="#000000" d="M 1051.863281 141.386719 C 1048.042969 180.882812 988.375 177.777344 989.160156 137.265625 C 989.453125 122.140625 999.160156 110.007812 1014.128906 107.199219 C 1035.890625 103.109375 1054.023438 119.027344 1051.863281 141.386719 Z M 1000.316406 126.09375 C 991.8125 143.707031 1003.695312 165.414062 1025.066406 161.660156 C 1051.4375 157.019531 1049.394531 114.882812 1021.332031 113.859375 C 1012.476562 113.539062 1004.210938 118.015625 1000.316406 126.09375 Z M 1000.316406 126.09375 " fill-opacity="1" fill-rule="nonzero"/><path fill="#000000" d="M 852.582031 158.070312 C 852.578125 158 852.546875 157.957031 852.476562 157.9375 C 852.410156 157.917969 852.359375 157.9375 852.324219 157.996094 C 845.640625 168.207031 834.175781 171.15625 822.683594 168.605469 C 809.445312 165.671875 804.316406 155.429688 804.296875 142.722656 C 804.269531 130.929688 804.265625 119.132812 804.289062 107.335938 C 804.289062 107.164062 804.371094 107.082031 804.542969 107.082031 L 812.28125 107.101562 C 812.472656 107.105469 812.566406 107.203125 812.566406 107.390625 C 812.558594 118.902344 812.554688 130.414062 812.550781 141.921875 C 812.550781 152.40625 817.167969 160.847656 828.546875 161.753906 C 844.222656 162.992188 852.128906 153.632812 852.140625 138.808594 C 852.152344 128.339844 852.160156 117.871094 852.164062 107.402344 C 852.164062 107.207031 852.261719 107.113281 852.453125 107.113281 L 860.300781 107.066406 C 860.488281 107.066406 860.582031 107.160156 860.582031 107.34375 L 860.582031 168.460938 C 860.582031 168.578125 860.542969 168.675781 860.460938 168.757812 C 860.378906 168.839844 860.277344 168.878906 860.164062 168.878906 L 852.859375 168.878906 C 852.675781 168.878906 852.582031 168.785156 852.582031 168.597656 Z M 852.582031 158.070312 " fill-opacity="1" fill-rule="nonzero"/><path fill="#000000" d="M 971.730469 168.878906 L 963.855469 168.878906 C 963.796875 168.878906 963.75 168.859375 963.710938 168.820312 C 963.667969 168.777344 963.648438 168.730469 963.648438 168.671875 L 963.648438 107.304688 C 963.648438 107.246094 963.667969 107.199219 963.710938 107.160156 C 963.75 107.117188 963.796875 107.097656 963.855469 107.097656 L 971.726562 107.097656 C 971.78125 107.097656 971.832031 107.117188 971.871094 107.160156 C 971.914062 107.199219 971.933594 107.246094 971.933594 107.304688 L 971.9375 168.671875 C 971.9375 168.730469 971.917969 168.777344 971.878906 168.820312 C 971.835938 168.859375 971.789062 168.878906 971.730469 168.878906 Z M 971.730469 168.878906 " fill-opacity="1" fill-rule="nonzero"/><path fill="#ffffff" d="M 51.574219 109.359375 L 69.144531 109.359375 C 69.425781 109.359375 69.695312 109.417969 69.953125 109.523438 C 70.210938 109.628906 70.441406 109.78125 70.640625 109.980469 C 70.839844 110.179688 70.992188 110.410156 71.097656 110.667969 C 71.207031 110.925781 71.261719 111.199219 71.261719 111.480469 L 71.261719 111.566406 C 71.261719 111.847656 71.207031 112.117188 71.097656 112.378906 C 70.992188 112.640625 70.839844 112.867188 70.640625 113.066406 C 70.441406 113.265625 70.210938 113.417969 69.953125 113.527344 C 69.695312 113.632812 69.425781 113.6875 69.144531 113.6875 L 51.574219 113.6875 C 51.292969 113.6875 51.023438 113.632812 50.761719 113.527344 C 50.503906 113.417969 50.277344 113.265625 50.078125 113.066406 C 49.878906 112.867188 49.726562 112.640625 49.617188 112.378906 C 49.511719 112.117188 49.457031 111.847656 49.457031 111.566406 L 49.457031 111.480469 C 49.457031 111.199219 49.511719 110.925781 49.617188 110.667969 C 49.726562 110.410156 49.878906 110.179688 50.078125 109.980469 C 50.277344 109.78125 50.503906 109.628906 50.761719 109.523438 C 51.023438 109.417969 51.292969 109.359375 51.574219 109.359375 Z M 51.574219 109.359375 " fill-opacity="1" fill-rule="nonzero"/><path fill="#ffffff" d="M 182.867188 109.359375 L 200.445312 109.359375 C 200.726562 109.359375 201 109.417969 201.257812 109.523438 C 201.519531 109.628906 201.746094 109.78125 201.945312 109.980469 C 202.144531 110.179688 202.296875 110.410156 202.40625 110.667969 C 202.511719 110.925781 202.566406 111.199219 202.566406 111.480469 L 202.566406 111.566406 C 202.566406 111.847656 202.511719 112.117188 202.40625 112.378906 C 202.296875 112.640625 202.144531 112.867188 201.945312 113.066406 C 201.746094 113.265625 201.519531 113.417969 201.257812 113.527344 C 201 113.632812 200.726562 113.6875 200.445312 113.6875 L 182.867188 113.6875 C 182.585938 113.6875 182.316406 113.632812 182.058594 113.527344 C 181.800781 113.417969 181.566406 113.265625 181.371094 113.066406 C 181.171875 112.867188 181.019531 112.640625 180.914062 112.378906 C 180.804688 112.117188 180.75 111.847656 180.75 111.566406 L 180.75 111.480469 C 180.75 111.199219 180.804688 110.925781 180.914062 110.667969 C 181.019531 110.410156 181.171875 110.179688 181.371094 109.980469 C 181.566406 109.78125 181.800781 109.628906 182.058594 109.523438 C 182.316406 109.417969 182.585938 109.359375 182.867188 109.359375 Z M 182.867188 109.359375 " fill-opacity="1" fill-rule="nonzero"/><path fill="#ffffff" d="M 52.84375 153.636719 L 68.078125 144.839844 C 68.320312 144.703125 68.574219 144.617188 68.847656 144.582031 C 69.125 144.542969 69.394531 144.558594 69.664062 144.632812 C 69.929688 144.703125 70.175781 144.824219 70.394531 144.992188 C 70.613281 145.164062 70.792969 145.363281 70.933594 145.605469 L 70.976562 145.683594 C 71.113281 145.925781 71.203125 146.179688 71.238281 146.457031 C 71.273438 146.730469 71.257812 147 71.183594 147.265625 C 71.113281 147.535156 70.996094 147.78125 70.824219 148 C 70.65625 148.21875 70.453125 148.402344 70.210938 148.539062 L 54.976562 157.332031 C 54.738281 157.472656 54.480469 157.558594 54.207031 157.59375 C 53.929688 157.628906 53.65625 157.613281 53.390625 157.542969 C 53.125 157.46875 52.878906 157.347656 52.660156 157.183594 C 52.441406 157.011719 52.261719 156.808594 52.125 156.566406 L 52.078125 156.492188 C 51.941406 156.25 51.851562 155.996094 51.816406 155.71875 C 51.777344 155.445312 51.796875 155.171875 51.871094 154.90625 C 51.941406 154.640625 52.0625 154.394531 52.230469 154.171875 C 52.398438 153.953125 52.605469 153.773438 52.84375 153.636719 Z M 52.84375 153.636719 " fill-opacity="1" fill-rule="nonzero"/><path fill="#ffffff" d="M 183.9375 144.847656 L 199.214844 153.664062 C 199.453125 153.800781 199.652344 153.976562 199.820312 154.195312 C 199.988281 154.414062 200.105469 154.652344 200.179688 154.917969 C 200.246094 155.183594 200.265625 155.453125 200.230469 155.726562 C 200.191406 155.996094 200.109375 156.25 199.96875 156.484375 L 199.910156 156.59375 C 199.769531 156.832031 199.59375 157.035156 199.375 157.199219 C 199.160156 157.367188 198.917969 157.488281 198.652344 157.558594 C 198.390625 157.628906 198.121094 157.644531 197.847656 157.609375 C 197.574219 157.574219 197.320312 157.488281 197.082031 157.347656 L 181.8125 148.53125 C 181.574219 148.394531 181.371094 148.21875 181.207031 148.003906 C 181.039062 147.78125 180.917969 147.542969 180.847656 147.277344 C 180.777344 147.011719 180.761719 146.742188 180.796875 146.472656 C 180.832031 146.203125 180.917969 145.949219 181.054688 145.710938 L 181.117188 145.601562 C 181.253906 145.363281 181.429688 145.164062 181.648438 144.996094 C 181.867188 144.828125 182.105469 144.710938 182.371094 144.640625 C 182.636719 144.570312 182.90625 144.550781 183.175781 144.585938 C 183.449219 144.621094 183.703125 144.710938 183.9375 144.847656 Z M 183.9375 144.847656 " fill-opacity="1" fill-rule="nonzero"/><path fill="#c8c8c1" d="M 114.800781 186.441406 L 137.257812 186.441406 C 137.480469 186.441406 137.699219 186.484375 137.910156 186.574219 C 138.121094 186.660156 138.308594 186.785156 138.46875 186.945312 C 138.628906 187.105469 138.753906 187.292969 138.839844 187.5 C 138.925781 187.710938 138.96875 187.929688 138.96875 188.15625 L 138.96875 188.226562 C 138.96875 188.449219 138.925781 188.667969 138.839844 188.878906 C 138.753906 189.089844 138.628906 189.277344 138.46875 189.433594 C 138.308594 189.59375 138.121094 189.722656 137.910156 189.804688 C 137.699219 189.894531 137.480469 189.9375 137.257812 189.9375 L 114.800781 189.9375 C 114.574219 189.9375 114.355469 189.894531 114.144531 189.804688 C 113.9375 189.722656 113.75 189.59375 113.589844 189.433594 C 113.429688 189.277344 113.304688 189.089844 113.21875 188.878906 C 113.132812 188.667969 113.085938 188.449219 113.085938 188.226562 L 113.085938 188.15625 C 113.085938 187.929688 113.132812 187.710938 113.21875 187.5 C 113.304688 187.292969 113.429688 187.105469 113.589844 186.945312 C 113.75 186.785156 113.9375 186.660156 114.144531 186.574219 C 114.355469 186.484375 114.574219 186.441406 114.800781 186.441406 Z M 114.800781 186.441406 " fill-opacity="1" fill-rule="nonzero"/><path fill="#c8c8c1" d="M 114.769531 192.757812 L 137.324219 192.757812 C 137.539062 192.757812 137.75 192.796875 137.953125 192.882812 C 138.15625 192.964844 138.332031 193.085938 138.484375 193.238281 C 138.640625 193.390625 138.761719 193.570312 138.84375 193.773438 C 138.925781 193.972656 138.96875 194.183594 138.96875 194.402344 L 138.96875 194.617188 C 138.96875 194.835938 138.925781 195.042969 138.84375 195.246094 C 138.761719 195.445312 138.640625 195.625 138.484375 195.78125 C 138.332031 195.933594 138.15625 196.054688 137.953125 196.136719 C 137.75 196.21875 137.539062 196.261719 137.324219 196.261719 L 114.769531 196.261719 C 114.546875 196.261719 114.335938 196.21875 114.136719 196.136719 C 113.9375 196.054688 113.757812 195.933594 113.601562 195.78125 C 113.449219 195.625 113.332031 195.445312 113.246094 195.246094 C 113.164062 195.042969 113.121094 194.835938 113.121094 194.617188 L 113.121094 194.402344 C 113.121094 194.183594 113.164062 193.972656 113.246094 193.773438 C 113.332031 193.570312 113.449219 193.390625 113.601562 193.238281 C 113.757812 193.085938 113.9375 192.964844 114.136719 192.882812 C 114.335938 192.796875 114.546875 192.757812 114.769531 192.757812 Z M 114.769531 192.757812 " fill-opacity="1" fill-rule="nonzero"/><path fill="#c8c8c1" d="M 114.855469 198.933594 L 137.246094 198.933594 C 137.472656 198.933594 137.6875 198.976562 137.898438 199.066406 C 138.109375 199.152344 138.296875 199.277344 138.457031 199.4375 C 138.617188 199.597656 138.742188 199.78125 138.828125 199.992188 C 138.914062 200.199219 138.957031 200.421875 138.957031 200.648438 L 138.957031 200.714844 C 138.957031 200.941406 138.914062 201.160156 138.828125 201.371094 C 138.742188 201.578125 138.617188 201.765625 138.457031 201.925781 C 138.296875 202.085938 138.109375 202.210938 137.898438 202.296875 C 137.6875 202.386719 137.472656 202.429688 137.246094 202.429688 L 114.855469 202.429688 C 114.628906 202.429688 114.410156 202.386719 114.199219 202.296875 C 113.992188 202.210938 113.808594 202.085938 113.648438 201.925781 C 113.484375 201.765625 113.359375 201.578125 113.273438 201.371094 C 113.1875 201.160156 113.144531 200.941406 113.144531 200.714844 L 113.144531 200.648438 C 113.144531 200.421875 113.1875 200.199219 113.273438 199.992188 C 113.359375 199.78125 113.484375 199.597656 113.648438 199.4375 C 113.808594 199.277344 113.992188 199.152344 114.199219 199.066406 C 114.410156 198.976562 114.628906 198.933594 114.855469 198.933594 Z M 114.855469 198.933594 " fill-opacity="1" fill-rule="nonzero"/></svg>