<?xml version="1.0" encoding="UTF-8" standalone="no"?>
<!DOCTYPE svg PUBLIC "-//W3C//DTD SVG 1.1//EN" "http://www.w3.org/Graphics/SVG/1.1/DTD/svg11.dtd">
<svg xmlns="http://www.w3.org/2000/svg" version="1.1" viewBox="0.00 0.00 1882.00 478.00">
<g stroke-width="2.00" fill="none" stroke-linecap="butt">
<path stroke="#ffbfa7" vector-effect="non-scaling-stroke" d="
  M 1163.99 142.01
  L 1147.69 142.12"
/>
<path stroke="#ffbfa7" vector-effect="non-scaling-stroke" d="
  M 224.23 98.84
  A 3.76 3.76 0.0 0 0 220.47 95.08
  L 220.31 95.08
  A 3.76 3.76 0.0 0 0 216.55 98.84
  L 216.55 130.16
  A 3.76 3.76 0.0 0 0 220.31 133.92
  L 220.47 133.92
  A 3.76 3.76 0.0 0 0 224.23 130.16
  L 224.23 98.84"
/>
<path stroke="#ffbfa7" vector-effect="non-scaling-stroke" d="
  M 123.0360 131.3734
  A 3.73 3.73 0.0 0 0 117.7610 131.3642
  L 117.6618 131.4630
  A 3.73 3.73 0.0 0 0 117.6526 136.7380
  L 139.7040 158.8666
  A 3.73 3.73 0.0 0 0 144.9790 158.8758
  L 145.0782 158.7770
  A 3.73 3.73 0.0 0 0 145.0874 153.5020
  L 123.0360 131.3734"
/>
<path stroke="#ffbfa7" vector-effect="non-scaling-stroke" d="
  M 323.1208 136.7974
  A 3.74 3.74 0.0 0 0 323.1208 131.5082
  L 323.0218 131.4092
  A 3.74 3.74 0.0 0 0 317.7326 131.4092
  L 295.6992 153.4426
  A 3.74 3.74 0.0 0 0 295.6992 158.7318
  L 295.7982 158.8308
  A 3.74 3.74 0.0 0 0 301.0874 158.8308
  L 323.1208 136.7974"
/>
<path stroke="#ffbfa7" vector-effect="non-scaling-stroke" d="
  M 288.68 251.69
  C 303.14 193.09 245.84 147.80 191.70 171.22
  C 162.48 183.86 144.18 215.52 151.46 247.02
  Q 155.83 265.93 165.34 280.93
  C 173.05 293.10 185.42 307.78 191.20 322.05
  C 196.19 334.35 194.95 345.56 195.01 357.85
  Q 195.05 366.37 196.56 370.33
  C 205.12 392.76 238.24 391.30 245.01 368.08
  Q 246.07 364.44 245.92 357.78
  C 245.49 339.09 246.46 322.52 256.56 308.31
  C 269.13 290.60 283.42 273.00 288.68 251.69"
/>
<path stroke="#ffbfa7" vector-effect="non-scaling-stroke" d="
  M 122.90 207.80
  A 3.77 3.77 0.0 0 0 119.13 204.03
  L 87.85 204.03
  A 3.77 3.77 0.0 0 0 84.08 207.80
  L 84.08 207.96
  A 3.77 3.77 0.0 0 0 87.85 211.73
  L 119.13 211.73
  A 3.77 3.77 0.0 0 0 122.90 207.96
  L 122.90 207.80"
/>
<path stroke="#ffbfa7" vector-effect="non-scaling-stroke" d="
  M 356.69 207.80
  A 3.77 3.77 0.0 0 0 352.92 204.03
  L 321.62 204.03
  A 3.77 3.77 0.0 0 0 317.85 207.80
  L 317.85 207.96
  A 3.77 3.77 0.0 0 0 321.62 211.73
  L 352.92 211.73
  A 3.77 3.77 0.0 0 0 356.69 207.96
  L 356.69 207.80"
/>
<path stroke="#ffbfa7" vector-effect="non-scaling-stroke" d="
  M 122.3372 268.5644
  A 3.73 3.73 0.0 0 0 117.2420 267.1991
  L 90.1180 282.8591
  A 3.73 3.73 0.0 0 0 88.7528 287.9544
  L 88.8228 288.0756
  A 3.73 3.73 0.0 0 0 93.9180 289.4409
  L 121.0420 273.7809
  A 3.73 3.73 0.0 0 0 122.4072 268.6856
  L 122.3372 268.5644"
/>
<path stroke="#ffbfa7" vector-effect="non-scaling-stroke" d="
  M 352.0460 287.8599
  A 3.61 3.61 0.0 0 0 350.7332 282.9262
  L 323.4983 267.1386
  A 3.61 3.61 0.0 0 0 318.5646 268.4514
  L 318.3740 268.7801
  A 3.61 3.61 0.0 0 0 319.6868 273.7138
  L 346.9217 289.5014
  A 3.61 3.61 0.0 0 0 351.8554 288.1886
  L 352.0460 287.8599"
/>
<path stroke="#e4e4e0" vector-effect="non-scaling-stroke" d="
  M 1162.27 144.27
  L 1162.11 143.99
  Q 1161.90 143.64 1161.56 143.87
  C 1159.71 145.13 1152.00 144.68 1149.75 144.53
  A 0.91 0.91 0.0 0 0 1148.80 145.67
  Q 1148.90 146.04 1149.24 146.26
  Q 1149.49 146.43 1149.92 146.40
  Q 1155.53 146.10 1161.68 146.62
  A 1.19 1.19 0.0 0 0 1162.67 144.64
  Q 1162.56 144.51 1162.42 144.42
  Q 1162.33 144.36 1162.27 144.27"
/>
<path stroke="#e4e4e0" vector-effect="non-scaling-stroke" d="
  M 1162.82 149.82
  L 1162.84 148.34
  A 0.14 0.14 0.0 0 0 1162.70 148.20
  L 1162.56 148.20
  A 13.82 0.83 0.5 0 0 1148.73 148.91
  L 1148.73 149.01
  A 13.82 0.83 0.5 0 0 1162.54 149.96
  L 1162.68 149.96
  A 0.14 0.14 0.0 0 0 1162.82 149.82"
/>
<path stroke="#e4e4e0" vector-effect="non-scaling-stroke" d="
  M 1162.8685 152.2420
  A 0.88 0.88 0.0 0 0 1161.9824 151.3681
  L 1149.9827 151.4519
  A 0.88 0.88 0.0 0 0 1149.1088 152.3380
  L 1149.1115 152.7180
  A 0.88 0.88 0.0 0 0 1149.9976 153.5919
  L 1161.9973 153.5081
  A 0.88 0.88 0.0 0 0 1162.8712 152.6220
  L 1162.8685 152.2420"
/>
<path stroke="#e4e4e0" vector-effect="non-scaling-stroke" d="
  M 243.44 344.32
  A 3.05 3.05 0.0 0 0 240.39 341.27
  L 200.43 341.27
  A 3.05 3.05 0.0 0 0 197.38 344.32
  L 197.38 344.44
  A 3.05 3.05 0.0 0 0 200.43 347.49
  L 240.39 347.49
  A 3.05 3.05 0.0 0 0 243.44 344.44
  L 243.44 344.32"
/>
<path stroke="#e4e4e0" vector-effect="non-scaling-stroke" d="
  M 243.45 355.57
  A 3.05 3.05 0.0 0 0 240.40 352.52
  L 200.34 352.52
  A 3.05 3.05 0.0 0 0 197.29 355.57
  L 197.29 355.69
  A 3.05 3.05 0.0 0 0 200.34 358.74
  L 240.40 358.74
  A 3.05 3.05 0.0 0 0 243.45 355.69
  L 243.45 355.57"
/>
<path stroke="#e4e4e0" vector-effect="non-scaling-stroke" d="
  M 243.39 366.46
  A 2.98 2.98 0.0 0 0 240.41 363.48
  L 200.49 363.48
  A 2.98 2.98 0.0 0 0 197.51 366.46
  L 197.51 366.76
  A 2.98 2.98 0.0 0 0 200.49 369.74
  L 240.41 369.74
  A 2.98 2.98 0.0 0 0 243.39 366.76
  L 243.39 366.46"
/>
</g>
<path fill="#ff7f4f" d="
  M 9.92 113.83
  C 17.83 67.71 58.72 32.02 105.95 32.01
  Q 220.33 31.99 334.71 32.00
  Q 344.63 32.00 351.21 33.23
  C 392.92 41.03 425.17 74.19 431.65 116.12
  Q 432.74 123.20 432.75 136.06
  Q 432.75 244.15 432.75 352.25
  C 432.75 404.38 388.41 450.01 335.65 450.01
  Q 220.27 450.01 104.89 449.98
  C 58.18 449.97 18.04 413.45 10.04 368.35
  Q 8.75 361.07 8.75 348.44
  Q 8.75 241.09 8.75 133.75
  Q 8.75 120.67 9.92 113.83
  Z
  M 224.23 98.84
  A 3.76 3.76 0.0 0 0 220.47 95.08
  L 220.31 95.08
  A 3.76 3.76 0.0 0 0 216.55 98.84
  L 216.55 130.16
  A 3.76 3.76 0.0 0 0 220.31 133.92
  L 220.47 133.92
  A 3.76 3.76 0.0 0 0 224.23 130.16
  L 224.23 98.84
  Z
  M 123.0360 131.3734
  A 3.73 3.73 0.0 0 0 117.7610 131.3642
  L 117.6618 131.4630
  A 3.73 3.73 0.0 0 0 117.6526 136.7380
  L 139.7040 158.8666
  A 3.73 3.73 0.0 0 0 144.9790 158.8758
  L 145.0782 158.7770
  A 3.73 3.73 0.0 0 0 145.0874 153.5020
  L 123.0360 131.3734
  Z
  M 323.1208 136.7974
  A 3.74 3.74 0.0 0 0 323.1208 131.5082
  L 323.0218 131.4092
  A 3.74 3.74 0.0 0 0 317.7326 131.4092
  L 295.6992 153.4426
  A 3.74 3.74 0.0 0 0 295.6992 158.7318
  L 295.7982 158.8308
  A 3.74 3.74 0.0 0 0 301.0874 158.8308
  L 323.1208 136.7974
  Z
  M 288.68 251.69
  C 303.14 193.09 245.84 147.80 191.70 171.22
  C 162.48 183.86 144.18 215.52 151.46 247.02
  Q 155.83 265.93 165.34 280.93
  C 173.05 293.10 185.42 307.78 191.20 322.05
  C 196.19 334.35 194.95 345.56 195.01 357.85
  Q 195.05 366.37 196.56 370.33
  C 205.12 392.76 238.24 391.30 245.01 368.08
  Q 246.07 364.44 245.92 357.78
  C 245.49 339.09 246.46 322.52 256.56 308.31
  C 269.13 290.60 283.42 273.00 288.68 251.69
  Z
  M 122.90 207.80
  A 3.77 3.77 0.0 0 0 119.13 204.03
  L 87.85 204.03
  A 3.77 3.77 0.0 0 0 84.08 207.80
  L 84.08 207.96
  A 3.77 3.77 0.0 0 0 87.85 211.73
  L 119.13 211.73
  A 3.77 3.77 0.0 0 0 122.90 207.96
  L 122.90 207.80
  Z
  M 356.69 207.80
  A 3.77 3.77 0.0 0 0 352.92 204.03
  L 321.62 204.03
  A 3.77 3.77 0.0 0 0 317.85 207.80
  L 317.85 207.96
  A 3.77 3.77 0.0 0 0 321.62 211.73
  L 352.92 211.73
  A 3.77 3.77 0.0 0 0 356.69 207.96
  L 356.69 207.80
  Z
  M 122.3372 268.5644
  A 3.73 3.73 0.0 0 0 117.2420 267.1991
  L 90.1180 282.8591
  A 3.73 3.73 0.0 0 0 88.7528 287.9544
  L 88.8228 288.0756
  A 3.73 3.73 0.0 0 0 93.9180 289.4409
  L 121.0420 273.7809
  A 3.73 3.73 0.0 0 0 122.4072 268.6856
  L 122.3372 268.5644
  Z
  M 352.0460 287.8599
  A 3.61 3.61 0.0 0 0 350.7332 282.9262
  L 323.4983 267.1386
  A 3.61 3.61 0.0 0 0 318.5646 268.4514
  L 318.3740 268.7801
  A 3.61 3.61 0.0 0 0 319.6868 273.7138
  L 346.9217 289.5014
  A 3.61 3.61 0.0 0 0 351.8554 288.1886
  L 352.0460 287.8599
  Z"
/>
<rect fill="#ff7f4f" x="-1.23" y="-6.11" transform="translate(1155.78,73.11) rotate(-0.3)" width="2.46" height="12.22" rx="1.15"/>
<rect fill="#ff7f4f" x="-1.24" y="-6.10" transform="translate(1127.79,82.67) rotate(-45.0)" width="2.48" height="12.20" rx="1.20"/>
<rect fill="#ff7f4f" x="-1.17" y="-6.07" transform="translate(1183.85,82.62) rotate(44.7)" width="2.34" height="12.14" rx="1.05"/>
<path fill="#ff7f4f" d="
  M 1163.99 142.01
  L 1147.69 142.12
  C 1143.39 128.84 1128.36 117.98 1135.64 101.81
  C 1145.50 79.90 1180.84 88.08 1177.96 113.01
  C 1176.90 122.16 1170.78 128.92 1166.02 136.52
  C 1165.00 138.16 1164.81 140.19 1163.99 142.01
  Z"
/>
<rect fill="#ffffff" x="216.55" y="95.08" width="7.68" height="38.84" rx="3.76"/>
<rect fill="#ff7f4f" x="-6.00" y="-1.25" transform="translate(1119.00,102.49) rotate(0.1)" width="12.00" height="2.50" rx="1.21"/>
<rect fill="#ff7f4f" x="-5.99" y="-1.25" transform="translate(1192.52,102.50) rotate(0.1)" width="11.98" height="2.50" rx="1.21"/>
<rect fill="#ff7f4f" x="-6.07" y="-1.22" transform="translate(1119.65,124.68) rotate(-29.8)" width="12.14" height="2.44" rx="1.07"/>
<rect fill="#ff7f4f" x="-6.02" y="-1.23" transform="translate(1191.93,124.66) rotate(29.9)" width="12.04" height="2.46" rx="1.09"/>
<rect fill="#ffffff" x="-3.80" y="-19.35" transform="translate(131.37,145.12) rotate(-44.9)" width="7.60" height="38.70" rx="3.73"/>
<rect fill="#ffffff" x="-3.81" y="-19.32" transform="translate(309.41,145.12) rotate(45.0)" width="7.62" height="38.64" rx="3.74"/>
<path fill="#ffffff" d="
  M 1163.99 142.01
  C 1164.02 146.23 1164.76 151.98 1162.60 155.37
  C 1159.84 159.68 1152.40 160.10 1149.43 155.80
  C 1147.13 152.47 1147.57 146.36 1147.69 142.12
  L 1163.99 142.01
  Z
  M 1162.27 144.27
  L 1162.11 143.99
  Q 1161.90 143.64 1161.56 143.87
  C 1159.71 145.13 1152.00 144.68 1149.75 144.53
  A 0.91 0.91 0.0 0 0 1148.80 145.67
  Q 1148.90 146.04 1149.24 146.26
  Q 1149.49 146.43 1149.92 146.40
  Q 1155.53 146.10 1161.68 146.62
  A 1.19 1.19 0.0 0 0 1162.67 144.64
  Q 1162.56 144.51 1162.42 144.42
  Q 1162.33 144.36 1162.27 144.27
  Z
  M 1162.82 149.82
  L 1162.84 148.34
  A 0.14 0.14 0.0 0 0 1162.70 148.20
  L 1162.56 148.20
  A 13.82 0.83 0.5 0 0 1148.73 148.91
  L 1148.73 149.01
  A 13.82 0.83 0.5 0 0 1162.54 149.96
  L 1162.68 149.96
  A 0.14 0.14 0.0 0 0 1162.82 149.82
  Z
  M 1162.8685 152.2420
  A 0.88 0.88 0.0 0 0 1161.9824 151.3681
  L 1149.9827 151.4519
  A 0.88 0.88 0.0 0 0 1149.1088 152.3380
  L 1149.1115 152.7180
  A 0.88 0.88 0.0 0 0 1149.9976 153.5919
  L 1161.9973 153.5081
  A 0.88 0.88 0.0 0 0 1162.8712 152.6220
  L 1162.8685 152.2420
  Z"
/>
<path fill="#c8c8c1" d="
  M 1162.42 144.42
  Q 1162.56 144.51 1162.67 144.64
  A 1.19 1.19 0.0 0 1 1161.68 146.62
  Q 1155.53 146.10 1149.92 146.40
  Q 1149.49 146.43 1149.24 146.26
  Q 1148.90 146.04 1148.80 145.67
  A 0.91 0.91 0.0 0 1 1149.75 144.53
  C 1152.00 144.68 1159.71 145.13 1161.56 143.87
  Q 1161.90 143.64 1162.11 143.99
  L 1162.27 144.27
  Q 1162.33 144.36 1162.42 144.42
  Z"
/>
<path fill="#c8c8c1" d="
  M 1162.82 149.82
  A 0.14 0.14 0.0 0 1 1162.68 149.96
  L 1162.54 149.96
  A 13.82 0.83 0.5 0 1 1148.73 149.01
  L 1148.73 148.91
  A 13.82 0.83 0.5 0 1 1162.56 148.20
  L 1162.70 148.20
  A 0.14 0.14 0.0 0 1 1162.84 148.34
  L 1162.82 149.82
  Z"
/>
<rect fill="#c8c8c1" x="-6.88" y="-1.07" transform="translate(1155.99,152.48) rotate(-0.4)" width="13.76" height="2.14" rx="0.88"/>
<path fill="#000000" d="
  M 1656.25 289.25
  A 0.31 0.31 0.0 0 0 1655.68 289.08
  C 1643.84 307.39 1622.31 314.33 1601.39 309.79
  C 1569.72 302.93 1554.48 273.44 1560.10 242.77
  C 1565.63 212.61 1592.48 195.52 1622.24 199.81
  Q 1642.79 202.77 1655.04 219.89
  A 0.27 0.26 27.4 0 0 1655.52 219.74
  L 1655.50 156.03
  A 1.28 1.28 0.0 0 1 1656.79 154.75
  L 1669.75 154.75
  A 0.75 0.75 0.0 0 1 1670.50 155.50
  L 1670.50 309.50
  A 0.50 0.50 0.0 0 1 1670.00 310.00
  L 1656.88 310.00
  A 0.63 0.62 -0.0 0 1 1656.25 309.38
  L 1656.25 289.25
  Z
  M 1588.16 288.34
  C 1601.46 299.88 1622.55 300.90 1637.26 291.53
  C 1653.14 281.42 1658.62 261.38 1654.51 243.51
  C 1643.95 197.63 1577.83 203.22 1574.13 250.91
  C 1573.05 264.80 1577.31 278.92 1588.16 288.34
  Z"
/>
<ellipse fill="#000000" cx="0.00" cy="0.00" transform="translate(1719.27,165.23) rotate(-4.4)" rx="10.82" ry="10.54"/>
<path fill="#000000" d="
  M 1298.00 270.01
  C 1296.95 253.21 1276.78 248.89 1264.08 245.42
  C 1247.66 240.94 1227.59 237.69 1215.57 224.69
  C 1205.61 213.93 1206.05 195.65 1212.87 183.92
  C 1230.14 154.23 1282.31 158.72 1306.83 174.93
  Q 1307.32 175.26 1307.09 175.80
  L 1302.37 186.92
  A 0.58 0.58 0.0 0 1 1301.53 187.18
  Q 1276.57 171.64 1247.25 176.75
  C 1232.72 179.28 1220.14 191.31 1223.84 207.03
  C 1226.64 218.91 1239.01 223.97 1249.55 226.78
  C 1262.14 230.15 1274.90 233.04 1287.30 237.37
  C 1300.59 242.02 1312.10 252.21 1313.31 266.92
  C 1315.93 298.90 1287.36 310.66 1260.76 311.20
  C 1241.52 311.59 1219.24 306.25 1204.74 292.71
  A 0.76 0.76 0.0 0 1 1204.58 291.83
  L 1210.01 280.99
  Q 1210.28 280.45 1210.73 280.84
  C 1227.89 295.57 1251.53 300.79 1273.93 296.63
  C 1287.60 294.10 1298.94 285.15 1298.00 270.01
  Z"
/>
<path fill="#ffffff" d="
  M 191.70 171.22
  C 245.84 147.80 303.14 193.09 288.68 251.69
  C 283.42 273.00 269.13 290.60 256.56 308.31
  C 246.46 322.52 245.49 339.09 245.92 357.78
  Q 246.07 364.44 245.01 368.08
  C 238.24 391.30 205.12 392.76 196.56 370.33
  Q 195.05 366.37 195.01 357.85
  C 194.95 345.56 196.19 334.35 191.20 322.05
  C 185.42 307.78 173.05 293.10 165.34 280.93
  Q 155.83 265.93 151.46 247.02
  C 144.18 215.52 162.48 183.86 191.70 171.22
  Z
  M 243.44 344.32
  A 3.05 3.05 0.0 0 0 240.39 341.27
  L 200.43 341.27
  A 3.05 3.05 0.0 0 0 197.38 344.32
  L 197.38 344.44
  A 3.05 3.05 0.0 0 0 200.43 347.49
  L 240.39 347.49
  A 3.05 3.05 0.0 0 0 243.44 344.44
  L 243.44 344.32
  Z
  M 243.45 355.57
  A 3.05 3.05 0.0 0 0 240.40 352.52
  L 200.34 352.52
  A 3.05 3.05 0.0 0 0 197.29 355.57
  L 197.29 355.69
  A 3.05 3.05 0.0 0 0 200.34 358.74
  L 240.40 358.74
  A 3.05 3.05 0.0 0 0 243.45 355.69
  L 243.45 355.57
  Z
  M 243.39 366.46
  A 2.98 2.98 0.0 0 0 240.41 363.48
  L 200.49 363.48
  A 2.98 2.98 0.0 0 0 197.51 366.46
  L 197.51 366.76
  A 2.98 2.98 0.0 0 0 200.49 369.74
  L 240.41 369.74
  A 2.98 2.98 0.0 0 0 243.39 366.76
  L 243.39 366.46
  Z"
/>
<path fill="#104c81" d="
  M 562.06 310.00
  L 516.67 310.00
  A 0.44 0.44 0.0 0 1 516.23 309.56
  L 516.26 203.19
  A 0.44 0.44 0.0 0 0 515.82 202.75
  L 469.19 202.75
  A 0.44 0.44 0.0 0 1 468.75 202.31
  L 468.75 166.44
  A 0.44 0.44 0.0 0 1 469.19 166.00
  L 609.06 166.00
  A 0.44 0.44 0.0 0 1 609.50 166.44
  L 609.50 202.31
  A 0.44 0.44 0.0 0 1 609.06 202.75
  L 562.94 202.75
  A 0.44 0.44 0.0 0 0 562.50 203.19
  L 562.50 309.56
  A 0.44 0.44 0.0 0 1 562.06 310.00
  Z"
/>
<path fill="#104c81" d="
  M 677.17 220.51
  L 743.33 220.49
  A 0.42 0.42 0.0 0 1 743.75 220.91
  L 743.75 253.08
  A 0.42 0.42 0.0 0 1 743.33 253.50
  L 677.17 253.50
  A 0.42 0.42 0.0 0 0 676.75 253.92
  L 676.75 275.08
  A 0.42 0.42 0.0 0 0 677.17 275.50
  L 756.08 275.50
  A 0.42 0.42 0.0 0 1 756.50 275.92
  L 756.50 309.58
  A 0.42 0.42 0.0 0 1 756.08 310.00
  L 630.92 310.00
  A 0.42 0.42 0.0 0 1 630.50 309.58
  L 630.50 166.42
  A 0.42 0.42 0.0 0 1 630.92 166.00
  L 754.58 166.00
  A 0.42 0.42 0.0 0 1 755.00 166.42
  L 755.00 200.08
  A 0.42 0.42 0.0 0 1 754.58 200.50
  L 677.17 200.50
  A 0.42 0.42 0.0 0 0 676.75 200.92
  L 676.75 220.09
  A 0.42 0.42 0.0 0 0 677.17 220.51
  Z"
/>
<path fill="#104c81" d="
  M 828.62 226.82
  L 879.18 166.13
  A 0.35 0.35 0.0 0 1 879.44 166.00
  L 935.88 166.00
  A 0.35 0.35 0.0 0 1 936.14 166.58
  L 885.13 225.00
  A 0.35 0.35 0.0 0 0 885.10 225.42
  L 937.39 309.47
  A 0.35 0.35 0.0 0 1 937.09 310.00
  L 883.27 310.00
  A 0.35 0.35 0.0 0 1 882.97 309.82
  L 853.33 257.57
  A 0.35 0.35 0.0 0 0 852.81 257.47
  L 828.13 277.65
  A 0.35 0.35 0.0 0 0 828.00 277.93
  L 828.00 309.65
  A 0.35 0.35 0.0 0 1 827.65 310.00
  L 782.10 310.00
  A 0.35 0.35 0.0 0 1 781.75 309.65
  L 781.75 166.35
  A 0.35 0.35 0.0 0 1 782.10 166.00
  L 827.65 166.00
  A 0.35 0.35 0.0 0 1 828.00 166.35
  L 828.00 226.59
  A 0.35 0.35 0.0 0 0 828.62 226.82
  Z"
/>
<path fill="#104c81" d="
  M 1002.85 226.82
  L 1053.41 166.12
  A 0.34 0.34 0.0 0 1 1053.67 166.00
  L 1110.15 166.00
  A 0.34 0.34 0.0 0 1 1110.41 166.56
  L 1059.38 225.02
  A 0.34 0.34 0.0 0 0 1059.34 225.42
  L 1111.66 309.48
  A 0.34 0.34 0.0 0 1 1111.37 310.00
  L 1057.54 310.00
  A 0.34 0.34 0.0 0 1 1057.24 309.83
  L 1027.58 257.58
  A 0.34 0.34 0.0 0 0 1027.07 257.48
  L 1002.37 277.67
  A 0.34 0.34 0.0 0 0 1002.25 277.93
  L 1002.25 309.66
  A 0.34 0.34 0.0 0 1 1001.91 310.00
  L 956.34 310.00
  A 0.34 0.34 0.0 0 1 956.00 309.66
  L 956.00 166.34
  A 0.34 0.34 0.0 0 1 956.34 166.00
  L 1001.91 166.00
  A 0.34 0.34 0.0 0 1 1002.25 166.34
  L 1002.25 226.60
  A 0.34 0.34 0.0 0 0 1002.85 226.82
  Z"
/>
<path fill="#104c81" d="
  M 1178.75 167.85
  L 1178.76 309.53
  A 0.47 0.47 0.0 0 1 1178.29 310.00
  L 1133.00 310.00
  A 0.50 0.50 0.0 0 1 1132.50 309.50
  L 1132.50 166.50
  A 0.50 0.50 0.0 0 1 1133.00 166.00
  L 1178.49 166.00
  A 0.48 0.47 79.0 0 1 1178.93 166.30
  Q 1179.13 166.81 1178.91 167.20
  Q 1178.75 167.51 1178.75 167.85
  Z"
/>
<path fill="#000000" d="
  M 1361.91 200.00
  L 1394.25 200.00
  Q 1394.80 200.00 1394.80 200.56
  L 1394.76 212.00
  A 0.52 0.51 -89.4 0 1 1394.25 212.51
  L 1361.70 212.48
  A 0.47 0.46 0.0 0 0 1361.23 212.94
  Q 1361.21 245.31 1361.47 277.94
  Q 1361.49 280.60 1361.83 283.23
  C 1364.10 300.95 1384.67 301.23 1396.25 293.10
  Q 1396.77 292.74 1397.04 293.30
  L 1401.71 302.76
  Q 1401.96 303.28 1401.51 303.64
  C 1385.77 316.38 1355.29 313.47 1348.25 291.63
  Q 1346.61 286.55 1346.55 272.77
  Q 1346.42 242.97 1346.53 213.26
  A 0.75 0.75 0.0 0 0 1345.78 212.50
  L 1327.50 212.50
  Q 1326.75 212.50 1326.75 211.75
  L 1326.75 200.75
  Q 1326.75 200.00 1327.50 200.00
  L 1345.72 200.00
  A 0.78 0.78 0.0 0 0 1346.50 199.22
  L 1346.50 176.25
  Q 1346.50 175.75 1347.00 175.75
  L 1360.75 175.75
  Q 1361.25 175.75 1361.25 176.25
  L 1361.25 199.34
  A 0.66 0.66 0.0 0 0 1361.91 200.00
  Z"
/>
<path fill="#000000" d="
  M 1867.99 267.00
  C 1857.92 324.51 1771.41 325.92 1758.71 269.00
  C 1749.82 229.17 1779.52 193.73 1821.56 199.58
  C 1855.57 204.32 1873.79 233.92 1867.99 267.00
  Z
  M 1803.74 213.01
  C 1762.21 222.32 1761.45 286.67 1802.27 296.47
  C 1824.74 301.87 1846.47 290.93 1852.34 267.92
  Q 1856.84 250.25 1849.94 234.82
  C 1842.07 217.22 1822.33 208.84 1803.74 213.01
  Z"
/>
<path fill="#000000" d="
  M 1514.00 290.76
  A 0.41 0.41 0.0 0 0 1513.22 290.60
  C 1508.53 301.68 1493.16 309.01 1481.98 310.48
  C 1456.74 313.82 1433.54 302.56 1428.89 275.94
  Q 1428.07 271.22 1428.04 261.88
  Q 1427.92 231.30 1428.03 200.72
  Q 1428.03 200.00 1428.76 200.00
  L 1442.23 200.00
  A 0.50 0.50 0.0 0 1 1442.73 200.50
  Q 1442.80 230.04 1442.74 259.49
  C 1442.70 278.04 1448.22 293.76 1468.49 297.00
  C 1496.91 301.55 1513.21 283.63 1513.23 256.78
  Q 1513.25 228.66 1513.26 200.54
  Q 1513.26 200.02 1513.77 200.02
  L 1527.76 199.96
  Q 1528.25 199.95 1528.25 200.45
  L 1528.25 309.50
  A 0.50 0.50 0.0 0 1 1527.75 310.00
  L 1514.75 310.00
  A 0.75 0.75 0.0 0 1 1514.00 309.25
  L 1514.00 290.76
  Z"
/>
<path fill="#000000" d="
  M 1726.13 310.00
  L 1712.12 310.00
  A 0.37 0.37 0.0 0 1 1711.75 309.63
  L 1711.75 200.37
  A 0.37 0.37 0.0 0 1 1712.12 200.00
  L 1726.14 200.00
  A 0.37 0.37 0.0 0 1 1726.51 200.37
  L 1726.50 309.63
  A 0.37 0.37 0.0 0 1 1726.13 310.00
  Z"
/>
<rect fill="#ffffff" x="84.08" y="204.03" width="38.82" height="7.70" rx="3.77"/>
<rect fill="#ffffff" x="317.85" y="204.03" width="38.84" height="7.70" rx="3.77"/>
<rect fill="#ffffff" x="-19.39" y="-3.80" transform="translate(105.58,278.32) rotate(-30.0)" width="38.78" height="7.60" rx="3.73"/>
<rect fill="#ffffff" x="-19.35" y="-3.80" transform="translate(335.21,278.32) rotate(30.1)" width="38.70" height="7.60" rx="3.61"/>
<rect fill="#c8c8c1" x="197.38" y="341.27" width="46.06" height="6.22" rx="3.05"/>
<rect fill="#c8c8c1" x="197.29" y="352.52" width="46.16" height="6.22" rx="3.05"/>
<rect fill="#c8c8c1" x="197.51" y="363.48" width="45.88" height="6.26" rx="2.98"/>
</svg>
