<?xml version="1.0" encoding="UTF-8" standalone="no"?>
<!DOCTYPE svg PUBLIC "-//W3C//DTD SVG 1.1//EN" "http://www.w3.org/Graphics/SVG/1.1/DTD/svg11.dtd">
<svg xmlns="http://www.w3.org/2000/svg" version="1.1" viewBox="0.00 0.00 1752.00 354.00">
<path fill="#000000" d="
  M 1651.90 57.31
  C 1645.15 29.17 1663.18 9.49 1691.72 13.41
  C 1711.96 16.19 1721.04 32.77 1718.96 51.87
  C 1716.70 72.59 1701.34 82.75 1681.11 81.07
  C 1666.41 79.84 1655.50 72.34 1651.90 57.31
  Z"
/>
<path fill="#000000" d="
  M 625.82 256.31
  C 622.82 283.33 636.79 290.98 661.05 290.74
  Q 661.75 290.74 661.75 291.44
  L 661.75 294.12
  Q 661.75 294.75 661.12 294.75
  L 587.62 294.75
  Q 586.99 294.75 586.99 294.12
  L 587.02 291.40
  Q 587.02 290.67 587.75 290.66
  C 601.08 290.52 608.02 282.52 613.28 271.36
  Q 620.35 256.34 624.99 240.38
  Q 653.68 141.73 682.16 43.02
  A 0.92 0.91 -59.6 0 0 681.93 42.12
  C 672.60 33.07 657.90 31.50 645.56 31.90
  A 0.53 0.52 89.0 0 1 645.02 31.37
  L 644.99 28.51
  Q 644.99 28.00 645.50 28.00
  L 750.53 28.00
  A 0.92 0.91 -8.0 0 1 751.41 28.66
  Q 785.26 144.90 819.21 261.26
  C 824.17 278.24 829.48 291.12 850.01 290.70
  Q 850.74 290.69 850.74 291.42
  L 850.74 294.10
  Q 850.74 294.75 850.09 294.75
  L 717.63 294.75
  Q 717.00 294.75 717.00 294.12
  L 717.00 291.26
  Q 717.00 290.66 717.60 290.68
  C 725.98 291.01 738.57 289.58 744.73 283.52
  C 755.27 273.15 749.66 250.47 746.05 238.23
  Q 740.83 220.55 735.33 202.19
  A 0.62 0.61 -8.2 0 0 734.74 201.75
  L 640.74 201.75
  A 1.05 1.03 8.8 0 0 639.75 202.46
  C 633.95 220.17 627.84 238.14 625.82 256.31
  Z
  M 684.86 47.16
  Q 669.60 100.31 654.50 153.50
  C 651.86 162.79 650.14 173.98 654.19 182.58
  C 659.06 192.94 672.08 196.95 683.01 196.97
  Q 708.22 197.03 733.36 196.99
  A 0.27 0.26 81.7 0 0 733.61 196.65
  Q 714.31 131.31 694.87 65.96
  C 692.56 58.20 690.06 52.37 685.97 46.14
  A 0.51 0.51 0.0 0 0 685.03 46.39
  Q 685.01 46.62 684.86 47.16
  Z"
/>
<path fill="#000000" d="
  M 318.56 199.01
  C 309.59 231.75 291.18 262.84 267.95 287.58
  A 0.70 0.69 -44.7 0 1 266.94 287.58
  C 245.21 264.58 227.64 235.33 218.13 205.08
  C 209.18 176.62 209.43 146.93 218.90 118.69
  Q 234.01 73.63 267.12 38.44
  Q 267.54 38.00 267.95 38.45
  C 307.24 81.06 334.67 140.24 318.56 199.01
  Z"
/>
<path fill="#000000" d="
  M 224.30 88.78
  A 1.28 1.26 34.4 0 1 224.59 90.29
  Q 210.80 117.83 207.84 148.53
  Q 207.80 148.94 207.48 148.67
  Q 183.65 128.87 154.22 119.05
  A 0.74 0.74 0.0 0 1 153.72 118.32
  C 154.39 99.87 160.15 81.41 171.90 67.11
  A 2.43 2.43 0.0 0 1 173.78 66.22
  C 191.52 66.19 211.27 77.05 224.30 88.78
  Z"
/>
<path fill="#000000" d="
  M 361.96 66.34
  A 0.88 0.87 70.0 0 1 362.55 66.62
  C 374.78 80.52 380.24 100.36 381.20 118.41
  Q 381.22 118.92 380.74 119.08
  Q 351.36 128.87 327.51 148.56
  A 0.28 0.28 0.0 0 1 327.06 148.37
  Q 324.05 117.63 310.29 90.01
  A 0.94 0.92 -34.8 0 1 310.50 88.91
  C 323.28 77.18 344.13 65.61 361.96 66.34
  Z"
/>
<path fill="#000000" d="
  M 1042.20 139.73
  A 0.36 0.36 0.0 0 0 1042.90 139.76
  C 1047.87 116.99 1062.50 102.66 1086.26 100.75
  C 1123.02 97.80 1147.09 114.00 1147.27 153.06
  Q 1147.54 213.53 1147.49 274.00
  C 1147.47 288.37 1155.68 291.64 1168.52 290.65
  A 0.65 0.64 -2.1 0 1 1169.22 291.29
  L 1169.22 294.17
  Q 1169.22 294.75 1168.64 294.75
  L 1088.84 294.75
  A 0.32 0.32 0.0 0 1 1088.52 294.43
  Q 1088.50 222.66 1088.35 152.00
  C 1088.32 140.11 1090.46 118.68 1074.07 115.88
  C 1050.69 111.89 1043.78 142.80 1043.72 159.25
  Q 1043.50 215.87 1043.50 272.50
  C 1043.50 287.59 1050.62 291.87 1064.86 290.66
  Q 1065.50 290.61 1065.50 291.25
  L 1065.50 294.12
  Q 1065.50 294.75 1064.87 294.75
  L 985.76 294.75
  Q 985.26 294.75 985.26 294.25
  Q 985.22 220.35 985.26 146.50
  C 985.27 133.79 984.22 115.51 966.74 115.54
  C 946.34 115.58 940.61 143.37 940.57 158.32
  Q 940.41 213.90 940.36 269.50
  Q 940.36 278.61 942.20 283.77
  C 944.58 290.41 955.42 291.21 961.35 290.66
  Q 962.00 290.60 962.00 291.25
  L 962.00 294.13
  Q 962.00 294.75 961.37 294.75
  L 860.36 294.75
  Q 859.78 294.75 859.78 294.17
  L 859.78 291.29
  Q 859.78 290.60 860.47 290.65
  C 877.09 291.95 881.07 285.89 881.11 270.19
  Q 881.28 205.09 881.24 140.00
  Q 881.24 132.01 880.37 124.07
  C 879.24 113.81 868.12 113.55 860.36 114.06
  Q 859.74 114.10 859.74 113.48
  L 859.77 110.89
  A 0.67 0.67 0.0 0 1 860.43 110.22
  C 885.73 109.96 910.84 107.69 935.23 100.66
  C 936.94 100.16 938.31 100.21 940.02 100.26
  Q 940.52 100.28 940.52 100.78
  L 940.46 133.01
  A 0.25 0.24 -36.5 0 0 940.94 133.08
  C 947.79 110.91 964.71 101.07 986.68 100.36
  C 1013.98 99.48 1037.81 110.22 1042.20 139.73
  Z"
/>
<path fill="#000000" d="
  M 1213.01 117.53
  A 0.19 0.18 6.9 0 0 1213.24 117.82
  C 1229.35 107.51 1249.25 114.81 1253.01 133.78
  C 1257.04 154.17 1242.14 167.15 1222.79 164.67
  C 1211.10 163.16 1203.03 156.32 1201.61 144.39
  C 1196.07 97.91 1253.70 99.24 1282.51 100.66
  C 1320.56 102.53 1362.37 111.54 1367.40 157.21
  Q 1367.95 162.22 1367.97 172.95
  Q 1368.04 221.48 1368.00 270.00
  C 1367.99 285.77 1371.77 291.89 1388.65 290.71
  Q 1389.25 290.67 1389.25 291.27
  L 1389.25 294.12
  Q 1389.25 294.75 1388.62 294.75
  L 1309.25 294.75
  A 0.72 0.72 0.0 0 1 1308.53 294.04
  Q 1308.36 279.98 1308.76 265.96
  C 1308.82 263.63 1308.35 259.95 1309.07 256.79
  Q 1309.11 256.62 1308.95 256.56
  Q 1308.81 256.52 1308.68 256.48
  Q 1308.50 256.42 1308.44 256.59
  Q 1294.44 297.41 1249.96 298.42
  C 1214.79 299.21 1190.01 285.68 1189.62 247.49
  C 1189.18 204.17 1226.13 190.59 1262.35 185.53
  Q 1285.16 182.35 1308.14 182.17
  A 0.41 0.41 0.0 0 0 1308.55 181.76
  C 1308.44 150.58 1314.48 110.19 1271.26 104.99
  C 1253.33 102.83 1227.04 104.41 1213.01 117.53
  Z
  M 1250.87 274.50
  C 1262.50 288.44 1285.49 284.45 1295.74 271.24
  C 1312.25 249.96 1308.53 216.49 1308.51 190.89
  C 1308.51 189.75 1308.99 188.11 1308.69 186.67
  Q 1308.58 186.16 1308.06 186.15
  C 1279.23 185.80 1252.08 193.72 1244.98 225.37
  C 1241.88 239.23 1241.07 262.75 1250.87 274.50
  Z"
/>
<path fill="#000000" d="
  M 1481.47 138.50
  A 0.27 0.27 0.0 0 0 1482.00 138.57
  C 1491.71 100.79 1528.61 94.25 1561.24 104.27
  C 1587.72 112.40 1600.30 136.05 1600.39 162.69
  Q 1600.58 218.34 1600.47 274.00
  C 1600.45 288.16 1608.25 291.84 1621.06 290.64
  A 0.63 0.63 0.0 0 1 1621.75 291.27
  L 1621.75 294.25
  Q 1621.75 294.75 1621.25 294.75
  L 1542.01 294.75
  A 0.75 0.75 0.0 0 1 1541.26 294.00
  Q 1541.25 223.49 1541.18 152.75
  C 1541.16 134.89 1536.77 116.54 1514.94 115.62
  C 1484.54 114.34 1481.56 154.72 1481.53 175.56
  Q 1481.46 222.40 1481.48 269.25
  C 1481.49 284.54 1484.60 292.30 1501.85 290.66
  A 0.89 0.89 0.0 0 1 1502.82 291.57
  L 1502.72 294.27
  Q 1502.70 294.75 1502.23 294.75
  L 1401.26 294.75
  A 0.53 0.53 0.0 0 1 1400.73 294.20
  L 1400.80 291.26
  Q 1400.82 290.73 1401.35 290.77
  C 1416.91 291.78 1422.47 286.79 1422.48 271.15
  Q 1422.52 203.32 1422.52 135.50
  C 1422.52 118.26 1419.27 113.08 1401.34 114.03
  A 0.56 0.56 0.0 0 1 1400.75 113.47
  L 1400.75 110.97
  Q 1400.75 110.25 1401.48 110.24
  C 1426.94 109.91 1452.01 107.64 1476.56 100.56
  C 1478.09 100.12 1479.45 100.25 1481.00 100.25
  Q 1481.52 100.25 1481.52 100.77
  L 1481.47 138.50
  Z"
/>
<path fill="#000000" d="
  M 1714.33 268.25
  C 1714.35 285.64 1716.93 291.19 1735.42 290.72
  Q 1736.00 290.70 1736.00 291.28
  L 1736.00 294.00
  Q 1736.00 294.75 1735.25 294.75
  L 1634.63 294.75
  Q 1634.00 294.75 1634.00 294.12
  L 1634.00 291.25
  Q 1634.00 290.62 1634.63 290.67
  C 1648.64 291.81 1655.23 287.46 1655.24 272.67
  Q 1655.27 203.71 1655.24 134.75
  C 1655.23 117.98 1651.93 113.12 1634.59 114.03
  A 0.56 0.56 0.0 0 1 1634.00 113.47
  L 1634.00 110.97
  Q 1634.00 110.24 1634.73 110.23
  C 1661.00 109.95 1686.28 107.32 1711.81 100.04
  Q 1714.24 99.34 1714.24 101.87
  Q 1714.24 184.28 1714.33 268.25
  Z"
/>
<path fill="#000000" d="
  M 264.13 288.85
  A 0.24 0.24 0.0 0 1 263.94 289.25
  C 228.13 288.02 190.78 278.55 160.31 259.17
  C 111.17 227.92 90.27 168.97 87.99 113.23
  Q 87.95 112.23 88.94 112.27
  C 131.24 113.81 175.60 126.83 208.49 154.33
  Q 208.88 154.65 208.86 155.17
  C 206.50 205.58 230.97 252.20 264.13 288.85
  Z"
/>
<path fill="#000000" d="
  M 270.55 288.85
  C 303.45 253.38 328.97 204.96 325.97 155.27
  Q 325.94 154.75 326.34 154.42
  C 359.29 126.79 404.07 113.61 446.43 112.30
  A 0.46 0.46 0.0 0 1 446.90 112.78
  C 445.17 157.54 431.38 203.80 400.92 237.51
  C 369.56 272.22 316.03 287.56 270.76 289.31
  A 0.27 0.27 0.0 0 1 270.55 288.85
  Z"
/>
<path fill="#000000" d="
  M 41.96 197.33
  C 55.85 185.50 77.55 179.98 95.34 179.09
  A 0.52 0.52 0.0 0 1 95.86 179.44
  Q 105.73 208.87 125.24 232.94
  Q 125.67 233.47 124.99 233.54
  Q 94.39 236.48 66.98 250.22
  A 1.05 1.04 55.9 0 1 65.74 249.98
  C 53.39 236.45 42.81 216.94 41.57 198.26
  Q 41.53 197.70 41.96 197.33
  Z"
/>
<path fill="#000000" d="
  M 439.16 179.39
  A 0.54 0.53 11.1 0 1 439.71 179.03
  C 458.53 180.22 477.53 185.45 492.70 197.05
  Q 493.54 197.69 493.34 199.51
  C 491.21 218.07 481.39 236.34 469.16 249.96
  A 1.02 1.02 0.0 0 1 467.94 250.20
  C 449.08 240.79 430.90 236.25 410.06 233.55
  A 0.45 0.45 0.0 0 1 409.77 232.82
  Q 429.24 208.76 439.16 179.39
  Z"
/>
<path fill="#000000" d="
  M 130.09 237.11
  C 160.68 271.48 207.13 288.07 251.93 292.02
  Q 257.67 292.53 262.55 292.43
  Q 264.35 292.39 262.76 293.24
  Q 214.55 319.17 160.25 325.02
  Q 144.90 326.68 129.50 325.51
  C 86.37 322.24 44.66 295.71 15.03 265.60
  A 0.33 0.33 0.0 0 1 15.32 265.04
  C 27.60 266.82 39.85 264.74 51.59 261.27
  C 64.05 257.59 76.58 250.08 89.57 245.48
  Q 108.81 238.67 129.23 236.77
  A 1.02 1.01 -23.1 0 1 130.09 237.11
  Z"
/>
<path fill="#000000" d="
  M 271.73 292.93
  A 0.38 0.37 51.8 0 1 271.81 292.24
  Q 272.12 292.16 272.46 292.31
  Q 272.80 292.47 273.17 292.45
  C 321.35 290.40 372.00 273.78 404.94 237.15
  Q 405.28 236.78 405.77 236.83
  Q 430.51 238.99 452.28 248.18
  Q 456.51 249.97 470.33 256.40
  C 483.74 262.64 500.66 266.60 516.18 265.51
  C 517.11 265.44 518.52 264.86 519.66 264.80
  Q 520.51 264.76 519.91 265.37
  Q 487.98 298.11 447.45 315.21
  Q 415.79 328.56 379.99 325.52
  Q 322.79 320.66 271.73 292.93
  Z"
/>
</svg>
